G04 #@! TF.FileFunction,Soldermask,Top*
%FSLAX46Y46*%
G04 Gerber Fmt 4.6, Leading zero omitted, Abs format (unit mm)*
G04 Created by KiCad (PCBNEW (2015-05-28 BZR 5690)-product) date Tuesday, June 16, 2015 'PMt' 01:52:05 PM*
%MOMM*%
G01*
G04 APERTURE LIST*
%ADD10C,0.100000*%
%ADD11O,1.600000X1.600000*%
%ADD12R,1.250000X1.000000*%
%ADD13R,1.300000X0.700000*%
%ADD14C,1.524000*%
%ADD15C,1.501140*%
%ADD16R,1.000000X1.250000*%
%ADD17R,1.550000X2.100000*%
%ADD18C,2.000000*%
%ADD19C,3.500000*%
%ADD20O,2.600000X4.300000*%
%ADD21O,2.540000X2.032000*%
%ADD22R,2.500000X2.500000*%
%ADD23O,2.500000X2.500000*%
%ADD24R,2.235200X2.235200*%
%ADD25C,3.000000*%
%ADD26C,4.064000*%
G04 APERTURE END LIST*
D10*
D11*
X97790000Y-74295000D03*
X95250000Y-74295000D03*
X92710000Y-74295000D03*
X90170000Y-74295000D03*
X90170000Y-81915000D03*
X92710000Y-81915000D03*
X95250000Y-81915000D03*
X97790000Y-81915000D03*
D12*
X89535000Y-70120000D03*
X89535000Y-72120000D03*
D13*
X92710000Y-72070000D03*
X92710000Y-70170000D03*
X95885000Y-72070000D03*
X95885000Y-70170000D03*
X101600000Y-75880000D03*
X101600000Y-73980000D03*
D14*
X95885000Y-85725000D03*
X98425000Y-85725000D03*
X93345000Y-85725000D03*
D11*
X113665000Y-74295000D03*
X111125000Y-74295000D03*
X108585000Y-74295000D03*
X106045000Y-74295000D03*
X106045000Y-81915000D03*
X108585000Y-81915000D03*
X111125000Y-81915000D03*
X113665000Y-81915000D03*
D15*
X82296000Y-62992000D03*
X74676000Y-62992000D03*
X82296000Y-94488000D03*
X74676000Y-94488000D03*
D16*
X86852000Y-66040000D03*
X84852000Y-66040000D03*
X84852000Y-91948000D03*
X86852000Y-91948000D03*
D12*
X103505000Y-70120000D03*
X103505000Y-72120000D03*
D17*
X78105000Y-76327000D03*
X75565000Y-76327000D03*
X78105000Y-82827000D03*
X75565000Y-82827000D03*
D18*
X105235000Y-68250000D03*
D19*
X109235000Y-63500000D03*
D20*
X114385000Y-63500000D03*
D19*
X95235000Y-63500000D03*
D20*
X90085000Y-63500000D03*
D18*
X91235000Y-68250000D03*
X99108000Y-89230000D03*
D19*
X95108000Y-93980000D03*
D20*
X89958000Y-93980000D03*
D19*
X109108000Y-93980000D03*
D20*
X114258000Y-93980000D03*
D18*
X113108000Y-89230000D03*
D13*
X107315000Y-72070000D03*
X107315000Y-70170000D03*
X111125000Y-72070000D03*
X111125000Y-70170000D03*
D14*
X111125000Y-85725000D03*
X113665000Y-85725000D03*
X108585000Y-85725000D03*
D21*
X84328000Y-73152000D03*
X84328000Y-75692000D03*
X84328000Y-70612000D03*
X84328000Y-84836000D03*
X84328000Y-87376000D03*
X84328000Y-82296000D03*
D22*
X70485000Y-63500000D03*
D23*
X70485000Y-59500000D03*
D24*
X71120000Y-73660000D03*
D25*
X70738000Y-88900000D03*
X70738000Y-78740000D03*
X70738000Y-68580000D03*
D26*
X85725000Y-97155000D03*
X85725000Y-60960000D03*
M02*
