M48
;DRILL file {KiCad (2015-05-28 BZR 5690)-product} date Monday, June 08, 2015 'PMt' 12:36:45 PM
;FORMAT={-:-/ absolute / inch / decimal}
FMAT,2
INCH,TZ
T1C0.016
T2C0.031
T3C0.032
T4C0.040
%
G90
G05
M72
T1
X2.06Y-3.38
X2.06Y-3.72
X2.1Y-3.26
X2.125Y-3.525
X2.2Y-3.1
X2.24Y-3.58
X2.28Y-3.22
X2.28Y-3.36
X2.28Y-3.46
X2.28Y-3.7
X2.64Y-2.98
X2.7Y-3.72
T2
X2.34Y-3.28
X2.34Y-3.38
X2.34Y-3.48
X2.34Y-3.58
X2.64Y-3.28
X2.64Y-3.38
X2.64Y-3.48
X2.64Y-3.58
T3
X2.82Y-3.02
X2.82Y-3.12
X2.82Y-3.22
T4
X2.Y-3.18
X2.Y-3.28
X2.Y-3.38
X2.Y-3.56
X2.Y-3.66
X3.Y-3.36
X3.Y-3.46
T0
M30
