G04 #@! TF.FileFunction,Copper,L2,Bot,Signal*
%FSLAX46Y46*%
G04 Gerber Fmt 4.6, Leading zero omitted, Abs format (unit mm)*
G04 Created by KiCad (PCBNEW (2015-05-28 BZR 5690)-product) date Monday, June 08, 2015 'PMt' 12:36:40 PM*
%MOMM*%
G01*
G04 APERTURE LIST*
%ADD10C,0.100000*%
%ADD11O,1.600000X1.600000*%
%ADD12R,2.032000X2.032000*%
%ADD13O,2.032000X2.032000*%
%ADD14R,2.032000X1.727200*%
%ADD15O,2.032000X1.727200*%
%ADD16C,1.524000*%
%ADD17C,0.600000*%
%ADD18C,0.250000*%
%ADD19C,0.254000*%
G04 APERTURE END LIST*
D10*
D11*
X59436000Y-83312000D03*
X59436000Y-85852000D03*
X59436000Y-88392000D03*
X59436000Y-90932000D03*
X67056000Y-90932000D03*
X67056000Y-88392000D03*
X67056000Y-85852000D03*
X67056000Y-83312000D03*
D12*
X50800000Y-92964000D03*
D13*
X50800000Y-90424000D03*
D14*
X50800000Y-85852000D03*
D15*
X50800000Y-83312000D03*
X50800000Y-80772000D03*
D12*
X76200000Y-85344000D03*
D13*
X76200000Y-87884000D03*
D16*
X71628000Y-79248000D03*
X71628000Y-76708000D03*
X71628000Y-81788000D03*
D17*
X57912000Y-85344000D03*
X57912000Y-81788000D03*
X57912000Y-87884000D03*
X57912000Y-93980000D03*
X52324000Y-94488000D03*
X52324000Y-85852000D03*
X56896000Y-90932000D03*
X68580000Y-94488000D03*
X67056000Y-75692000D03*
X53975000Y-89535000D03*
X55880000Y-78740000D03*
X53340000Y-82804000D03*
D18*
X57912000Y-81788000D02*
X57912000Y-85344000D01*
X57912000Y-93980000D02*
X57912000Y-87884000D01*
X52324000Y-94488000D02*
X52324000Y-90932000D01*
X56896000Y-90932000D02*
X52324000Y-90932000D01*
X52324000Y-90932000D02*
X52324000Y-85852000D01*
X52324000Y-85852000D02*
X50800000Y-85852000D01*
X67056000Y-85852000D02*
X68580000Y-87376000D01*
X68580000Y-87376000D02*
X68580000Y-94488000D01*
X50800000Y-80772000D02*
X55880000Y-75692000D01*
X55880000Y-75692000D02*
X67056000Y-75692000D01*
X67056000Y-83312000D02*
X67564000Y-83312000D01*
X67564000Y-83312000D02*
X71628000Y-79248000D01*
X68580000Y-79756000D02*
X71628000Y-76708000D01*
X56388000Y-79756000D02*
X68580000Y-79756000D01*
X53340000Y-82804000D02*
X56388000Y-79756000D01*
D19*
G36*
X78613000Y-98933000D02*
X77863440Y-98933000D01*
X77863440Y-86360000D01*
X77863440Y-84328000D01*
X77816463Y-84085877D01*
X77676673Y-83873073D01*
X77465640Y-83730623D01*
X77216000Y-83680560D01*
X75184000Y-83680560D01*
X74941877Y-83727537D01*
X74729073Y-83867327D01*
X74586623Y-84078360D01*
X74536560Y-84328000D01*
X74536560Y-86360000D01*
X74583537Y-86602123D01*
X74723327Y-86814927D01*
X74883043Y-86922737D01*
X74793615Y-87019182D01*
X74594025Y-87501056D01*
X74713164Y-87757000D01*
X76073000Y-87757000D01*
X76073000Y-87737000D01*
X76327000Y-87737000D01*
X76327000Y-87757000D01*
X77686836Y-87757000D01*
X77805975Y-87501056D01*
X77606385Y-87019182D01*
X77516425Y-86922164D01*
X77670927Y-86820673D01*
X77813377Y-86609640D01*
X77863440Y-86360000D01*
X77863440Y-98933000D01*
X77805975Y-98933000D01*
X77805975Y-88266944D01*
X77686836Y-88011000D01*
X76327000Y-88011000D01*
X76327000Y-89371367D01*
X76582946Y-89489983D01*
X77168379Y-89221188D01*
X77606385Y-88748818D01*
X77805975Y-88266944D01*
X77805975Y-98933000D01*
X76073000Y-98933000D01*
X76073000Y-89371367D01*
X76073000Y-88011000D01*
X74713164Y-88011000D01*
X74594025Y-88266944D01*
X74793615Y-88748818D01*
X75231621Y-89221188D01*
X75817054Y-89489983D01*
X76073000Y-89371367D01*
X76073000Y-98933000D01*
X73025242Y-98933000D01*
X73025242Y-81511339D01*
X72813010Y-80997697D01*
X72420370Y-80604371D01*
X72212487Y-80518050D01*
X72418303Y-80433010D01*
X72811629Y-80040370D01*
X73024757Y-79527100D01*
X73025242Y-78971339D01*
X72813010Y-78457697D01*
X72420370Y-78064371D01*
X72212487Y-77978050D01*
X72418303Y-77893010D01*
X72811629Y-77500370D01*
X73024757Y-76987100D01*
X73025242Y-76431339D01*
X72813010Y-75917697D01*
X72420370Y-75524371D01*
X71907100Y-75311243D01*
X71351339Y-75310758D01*
X70837697Y-75522990D01*
X70444371Y-75915630D01*
X70231243Y-76428900D01*
X70230758Y-76984661D01*
X70244142Y-77017055D01*
X68265198Y-78996000D01*
X56388000Y-78996000D01*
X56097161Y-79053852D01*
X55850599Y-79218599D01*
X53200320Y-81868877D01*
X53154833Y-81868838D01*
X52811057Y-82010883D01*
X52547808Y-82273673D01*
X52405162Y-82617201D01*
X52404882Y-82938240D01*
X52404709Y-82937209D01*
X52150732Y-82409964D01*
X51734930Y-82038460D01*
X52044415Y-81831670D01*
X52369271Y-81345489D01*
X52483345Y-80772000D01*
X52382381Y-80264420D01*
X56194802Y-76452000D01*
X66493537Y-76452000D01*
X66525673Y-76484192D01*
X66869201Y-76626838D01*
X67241167Y-76627162D01*
X67584943Y-76485117D01*
X67848192Y-76222327D01*
X67990838Y-75878799D01*
X67991162Y-75506833D01*
X67849117Y-75163057D01*
X67586327Y-74899808D01*
X67242799Y-74757162D01*
X66870833Y-74756838D01*
X66527057Y-74898883D01*
X66493882Y-74932000D01*
X55880000Y-74932000D01*
X55589161Y-74989852D01*
X55342599Y-75154599D01*
X51184136Y-79313061D01*
X50984745Y-79273400D01*
X50615255Y-79273400D01*
X50041766Y-79387474D01*
X49555585Y-79712330D01*
X49230729Y-80198511D01*
X49116655Y-80772000D01*
X49230729Y-81345489D01*
X49555585Y-81831670D01*
X49865069Y-82038460D01*
X49449268Y-82409964D01*
X49195291Y-82937209D01*
X49192642Y-82952974D01*
X49313783Y-83185000D01*
X50673000Y-83185000D01*
X50673000Y-83165000D01*
X50927000Y-83165000D01*
X50927000Y-83185000D01*
X52286217Y-83185000D01*
X52404865Y-82957748D01*
X52404838Y-82989167D01*
X52546883Y-83332943D01*
X52809673Y-83596192D01*
X53153201Y-83738838D01*
X53525167Y-83739162D01*
X53868943Y-83597117D01*
X54132192Y-83334327D01*
X54274838Y-82990799D01*
X54274878Y-82943923D01*
X56702802Y-80516000D01*
X68580000Y-80516000D01*
X68870839Y-80458148D01*
X69117401Y-80293401D01*
X70231059Y-79179742D01*
X70230758Y-79524661D01*
X70244142Y-79557055D01*
X67742185Y-82059012D01*
X67633264Y-81986233D01*
X67084113Y-81877000D01*
X67027887Y-81877000D01*
X66478736Y-81986233D01*
X66013189Y-82297302D01*
X65702120Y-82762849D01*
X65592887Y-83312000D01*
X65702120Y-83861151D01*
X66013189Y-84326698D01*
X66395274Y-84582000D01*
X66013189Y-84837302D01*
X65702120Y-85302849D01*
X65592887Y-85852000D01*
X65702120Y-86401151D01*
X66013189Y-86866698D01*
X66395274Y-87122000D01*
X66013189Y-87377302D01*
X65702120Y-87842849D01*
X65592887Y-88392000D01*
X65702120Y-88941151D01*
X66013189Y-89406698D01*
X66395274Y-89662000D01*
X66013189Y-89917302D01*
X65702120Y-90382849D01*
X65592887Y-90932000D01*
X65702120Y-91481151D01*
X66013189Y-91946698D01*
X66478736Y-92257767D01*
X67027887Y-92367000D01*
X67084113Y-92367000D01*
X67633264Y-92257767D01*
X67820000Y-92132993D01*
X67820000Y-93925537D01*
X67787808Y-93957673D01*
X67645162Y-94301201D01*
X67644838Y-94673167D01*
X67786883Y-95016943D01*
X68049673Y-95280192D01*
X68393201Y-95422838D01*
X68765167Y-95423162D01*
X69108943Y-95281117D01*
X69372192Y-95018327D01*
X69514838Y-94674799D01*
X69515162Y-94302833D01*
X69373117Y-93959057D01*
X69340000Y-93925882D01*
X69340000Y-87376000D01*
X69291746Y-87133413D01*
X69282148Y-87085161D01*
X69282148Y-87085160D01*
X69117401Y-86838599D01*
X68454688Y-86175886D01*
X68519113Y-85852000D01*
X68409880Y-85302849D01*
X68098811Y-84837302D01*
X67716725Y-84582000D01*
X68098811Y-84326698D01*
X68409880Y-83861151D01*
X68489393Y-83461408D01*
X70231059Y-81719742D01*
X70230758Y-82064661D01*
X70442990Y-82578303D01*
X70835630Y-82971629D01*
X71348900Y-83184757D01*
X71904661Y-83185242D01*
X72418303Y-82973010D01*
X72811629Y-82580370D01*
X73024757Y-82067100D01*
X73025242Y-81511339D01*
X73025242Y-98933000D01*
X60899113Y-98933000D01*
X60899113Y-90932000D01*
X60789880Y-90382849D01*
X60478811Y-89917302D01*
X60096725Y-89662000D01*
X60478811Y-89406698D01*
X60789880Y-88941151D01*
X60899113Y-88392000D01*
X60789880Y-87842849D01*
X60478811Y-87377302D01*
X60096725Y-87122000D01*
X60478811Y-86866698D01*
X60789880Y-86401151D01*
X60899113Y-85852000D01*
X60789880Y-85302849D01*
X60478811Y-84837302D01*
X60096725Y-84582000D01*
X60478811Y-84326698D01*
X60789880Y-83861151D01*
X60899113Y-83312000D01*
X60789880Y-82762849D01*
X60478811Y-82297302D01*
X60013264Y-81986233D01*
X59464113Y-81877000D01*
X59407887Y-81877000D01*
X58858736Y-81986233D01*
X58835698Y-82001626D01*
X58846838Y-81974799D01*
X58847162Y-81602833D01*
X58705117Y-81259057D01*
X58442327Y-80995808D01*
X58098799Y-80853162D01*
X57726833Y-80852838D01*
X57383057Y-80994883D01*
X57119808Y-81257673D01*
X56977162Y-81601201D01*
X56976838Y-81973167D01*
X57118883Y-82316943D01*
X57152000Y-82350117D01*
X57152000Y-84781537D01*
X57119808Y-84813673D01*
X56977162Y-85157201D01*
X56976838Y-85529167D01*
X57118883Y-85872943D01*
X57381673Y-86136192D01*
X57725201Y-86278838D01*
X58057848Y-86279127D01*
X58082120Y-86401151D01*
X58393189Y-86866698D01*
X58775274Y-87122000D01*
X58593627Y-87243372D01*
X58442327Y-87091808D01*
X58098799Y-86949162D01*
X57726833Y-86948838D01*
X57383057Y-87090883D01*
X57119808Y-87353673D01*
X56977162Y-87697201D01*
X56976838Y-88069167D01*
X57118883Y-88412943D01*
X57152000Y-88446117D01*
X57152000Y-90025896D01*
X57082799Y-89997162D01*
X56710833Y-89996838D01*
X56367057Y-90138883D01*
X56333882Y-90172000D01*
X53084000Y-90172000D01*
X53084000Y-86414462D01*
X53116192Y-86382327D01*
X53258838Y-86038799D01*
X53259162Y-85666833D01*
X53117117Y-85323057D01*
X52854327Y-85059808D01*
X52510799Y-84917162D01*
X52449607Y-84917108D01*
X52416463Y-84746277D01*
X52276673Y-84533473D01*
X52065640Y-84391023D01*
X51973354Y-84372516D01*
X52150732Y-84214036D01*
X52404709Y-83686791D01*
X52407358Y-83671026D01*
X52286217Y-83439000D01*
X50927000Y-83439000D01*
X50927000Y-83459000D01*
X50673000Y-83459000D01*
X50673000Y-83439000D01*
X49313783Y-83439000D01*
X49192642Y-83671026D01*
X49195291Y-83686791D01*
X49449268Y-84214036D01*
X49625701Y-84371673D01*
X49541877Y-84387937D01*
X49329073Y-84527727D01*
X49186623Y-84738760D01*
X49136560Y-84988400D01*
X49136560Y-86715600D01*
X49183537Y-86957723D01*
X49323327Y-87170527D01*
X49534360Y-87312977D01*
X49784000Y-87363040D01*
X51564000Y-87363040D01*
X51564000Y-88965389D01*
X51464155Y-88898675D01*
X50832345Y-88773000D01*
X50767655Y-88773000D01*
X50135845Y-88898675D01*
X49600222Y-89256567D01*
X49242330Y-89792190D01*
X49116655Y-90424000D01*
X49242330Y-91055810D01*
X49469169Y-91395298D01*
X49329073Y-91487327D01*
X49186623Y-91698360D01*
X49136560Y-91948000D01*
X49136560Y-93980000D01*
X49183537Y-94222123D01*
X49323327Y-94434927D01*
X49534360Y-94577377D01*
X49784000Y-94627440D01*
X51388877Y-94627440D01*
X51388838Y-94673167D01*
X51530883Y-95016943D01*
X51793673Y-95280192D01*
X52137201Y-95422838D01*
X52509167Y-95423162D01*
X52852943Y-95281117D01*
X53116192Y-95018327D01*
X53258838Y-94674799D01*
X53259162Y-94302833D01*
X53117117Y-93959057D01*
X53084000Y-93925882D01*
X53084000Y-91692000D01*
X56333537Y-91692000D01*
X56365673Y-91724192D01*
X56709201Y-91866838D01*
X57081167Y-91867162D01*
X57152000Y-91837894D01*
X57152000Y-93417537D01*
X57119808Y-93449673D01*
X56977162Y-93793201D01*
X56976838Y-94165167D01*
X57118883Y-94508943D01*
X57381673Y-94772192D01*
X57725201Y-94914838D01*
X58097167Y-94915162D01*
X58440943Y-94773117D01*
X58704192Y-94510327D01*
X58846838Y-94166799D01*
X58847162Y-93794833D01*
X58705117Y-93451057D01*
X58672000Y-93417882D01*
X58672000Y-92132993D01*
X58858736Y-92257767D01*
X59407887Y-92367000D01*
X59464113Y-92367000D01*
X60013264Y-92257767D01*
X60478811Y-91946698D01*
X60789880Y-91481151D01*
X60899113Y-90932000D01*
X60899113Y-98933000D01*
X48387000Y-98933000D01*
X48387000Y-73787000D01*
X78613000Y-73787000D01*
X78613000Y-98933000D01*
X78613000Y-98933000D01*
G37*
X78613000Y-98933000D02*
X77863440Y-98933000D01*
X77863440Y-86360000D01*
X77863440Y-84328000D01*
X77816463Y-84085877D01*
X77676673Y-83873073D01*
X77465640Y-83730623D01*
X77216000Y-83680560D01*
X75184000Y-83680560D01*
X74941877Y-83727537D01*
X74729073Y-83867327D01*
X74586623Y-84078360D01*
X74536560Y-84328000D01*
X74536560Y-86360000D01*
X74583537Y-86602123D01*
X74723327Y-86814927D01*
X74883043Y-86922737D01*
X74793615Y-87019182D01*
X74594025Y-87501056D01*
X74713164Y-87757000D01*
X76073000Y-87757000D01*
X76073000Y-87737000D01*
X76327000Y-87737000D01*
X76327000Y-87757000D01*
X77686836Y-87757000D01*
X77805975Y-87501056D01*
X77606385Y-87019182D01*
X77516425Y-86922164D01*
X77670927Y-86820673D01*
X77813377Y-86609640D01*
X77863440Y-86360000D01*
X77863440Y-98933000D01*
X77805975Y-98933000D01*
X77805975Y-88266944D01*
X77686836Y-88011000D01*
X76327000Y-88011000D01*
X76327000Y-89371367D01*
X76582946Y-89489983D01*
X77168379Y-89221188D01*
X77606385Y-88748818D01*
X77805975Y-88266944D01*
X77805975Y-98933000D01*
X76073000Y-98933000D01*
X76073000Y-89371367D01*
X76073000Y-88011000D01*
X74713164Y-88011000D01*
X74594025Y-88266944D01*
X74793615Y-88748818D01*
X75231621Y-89221188D01*
X75817054Y-89489983D01*
X76073000Y-89371367D01*
X76073000Y-98933000D01*
X73025242Y-98933000D01*
X73025242Y-81511339D01*
X72813010Y-80997697D01*
X72420370Y-80604371D01*
X72212487Y-80518050D01*
X72418303Y-80433010D01*
X72811629Y-80040370D01*
X73024757Y-79527100D01*
X73025242Y-78971339D01*
X72813010Y-78457697D01*
X72420370Y-78064371D01*
X72212487Y-77978050D01*
X72418303Y-77893010D01*
X72811629Y-77500370D01*
X73024757Y-76987100D01*
X73025242Y-76431339D01*
X72813010Y-75917697D01*
X72420370Y-75524371D01*
X71907100Y-75311243D01*
X71351339Y-75310758D01*
X70837697Y-75522990D01*
X70444371Y-75915630D01*
X70231243Y-76428900D01*
X70230758Y-76984661D01*
X70244142Y-77017055D01*
X68265198Y-78996000D01*
X56388000Y-78996000D01*
X56097161Y-79053852D01*
X55850599Y-79218599D01*
X53200320Y-81868877D01*
X53154833Y-81868838D01*
X52811057Y-82010883D01*
X52547808Y-82273673D01*
X52405162Y-82617201D01*
X52404882Y-82938240D01*
X52404709Y-82937209D01*
X52150732Y-82409964D01*
X51734930Y-82038460D01*
X52044415Y-81831670D01*
X52369271Y-81345489D01*
X52483345Y-80772000D01*
X52382381Y-80264420D01*
X56194802Y-76452000D01*
X66493537Y-76452000D01*
X66525673Y-76484192D01*
X66869201Y-76626838D01*
X67241167Y-76627162D01*
X67584943Y-76485117D01*
X67848192Y-76222327D01*
X67990838Y-75878799D01*
X67991162Y-75506833D01*
X67849117Y-75163057D01*
X67586327Y-74899808D01*
X67242799Y-74757162D01*
X66870833Y-74756838D01*
X66527057Y-74898883D01*
X66493882Y-74932000D01*
X55880000Y-74932000D01*
X55589161Y-74989852D01*
X55342599Y-75154599D01*
X51184136Y-79313061D01*
X50984745Y-79273400D01*
X50615255Y-79273400D01*
X50041766Y-79387474D01*
X49555585Y-79712330D01*
X49230729Y-80198511D01*
X49116655Y-80772000D01*
X49230729Y-81345489D01*
X49555585Y-81831670D01*
X49865069Y-82038460D01*
X49449268Y-82409964D01*
X49195291Y-82937209D01*
X49192642Y-82952974D01*
X49313783Y-83185000D01*
X50673000Y-83185000D01*
X50673000Y-83165000D01*
X50927000Y-83165000D01*
X50927000Y-83185000D01*
X52286217Y-83185000D01*
X52404865Y-82957748D01*
X52404838Y-82989167D01*
X52546883Y-83332943D01*
X52809673Y-83596192D01*
X53153201Y-83738838D01*
X53525167Y-83739162D01*
X53868943Y-83597117D01*
X54132192Y-83334327D01*
X54274838Y-82990799D01*
X54274878Y-82943923D01*
X56702802Y-80516000D01*
X68580000Y-80516000D01*
X68870839Y-80458148D01*
X69117401Y-80293401D01*
X70231059Y-79179742D01*
X70230758Y-79524661D01*
X70244142Y-79557055D01*
X67742185Y-82059012D01*
X67633264Y-81986233D01*
X67084113Y-81877000D01*
X67027887Y-81877000D01*
X66478736Y-81986233D01*
X66013189Y-82297302D01*
X65702120Y-82762849D01*
X65592887Y-83312000D01*
X65702120Y-83861151D01*
X66013189Y-84326698D01*
X66395274Y-84582000D01*
X66013189Y-84837302D01*
X65702120Y-85302849D01*
X65592887Y-85852000D01*
X65702120Y-86401151D01*
X66013189Y-86866698D01*
X66395274Y-87122000D01*
X66013189Y-87377302D01*
X65702120Y-87842849D01*
X65592887Y-88392000D01*
X65702120Y-88941151D01*
X66013189Y-89406698D01*
X66395274Y-89662000D01*
X66013189Y-89917302D01*
X65702120Y-90382849D01*
X65592887Y-90932000D01*
X65702120Y-91481151D01*
X66013189Y-91946698D01*
X66478736Y-92257767D01*
X67027887Y-92367000D01*
X67084113Y-92367000D01*
X67633264Y-92257767D01*
X67820000Y-92132993D01*
X67820000Y-93925537D01*
X67787808Y-93957673D01*
X67645162Y-94301201D01*
X67644838Y-94673167D01*
X67786883Y-95016943D01*
X68049673Y-95280192D01*
X68393201Y-95422838D01*
X68765167Y-95423162D01*
X69108943Y-95281117D01*
X69372192Y-95018327D01*
X69514838Y-94674799D01*
X69515162Y-94302833D01*
X69373117Y-93959057D01*
X69340000Y-93925882D01*
X69340000Y-87376000D01*
X69291746Y-87133413D01*
X69282148Y-87085161D01*
X69282148Y-87085160D01*
X69117401Y-86838599D01*
X68454688Y-86175886D01*
X68519113Y-85852000D01*
X68409880Y-85302849D01*
X68098811Y-84837302D01*
X67716725Y-84582000D01*
X68098811Y-84326698D01*
X68409880Y-83861151D01*
X68489393Y-83461408D01*
X70231059Y-81719742D01*
X70230758Y-82064661D01*
X70442990Y-82578303D01*
X70835630Y-82971629D01*
X71348900Y-83184757D01*
X71904661Y-83185242D01*
X72418303Y-82973010D01*
X72811629Y-82580370D01*
X73024757Y-82067100D01*
X73025242Y-81511339D01*
X73025242Y-98933000D01*
X60899113Y-98933000D01*
X60899113Y-90932000D01*
X60789880Y-90382849D01*
X60478811Y-89917302D01*
X60096725Y-89662000D01*
X60478811Y-89406698D01*
X60789880Y-88941151D01*
X60899113Y-88392000D01*
X60789880Y-87842849D01*
X60478811Y-87377302D01*
X60096725Y-87122000D01*
X60478811Y-86866698D01*
X60789880Y-86401151D01*
X60899113Y-85852000D01*
X60789880Y-85302849D01*
X60478811Y-84837302D01*
X60096725Y-84582000D01*
X60478811Y-84326698D01*
X60789880Y-83861151D01*
X60899113Y-83312000D01*
X60789880Y-82762849D01*
X60478811Y-82297302D01*
X60013264Y-81986233D01*
X59464113Y-81877000D01*
X59407887Y-81877000D01*
X58858736Y-81986233D01*
X58835698Y-82001626D01*
X58846838Y-81974799D01*
X58847162Y-81602833D01*
X58705117Y-81259057D01*
X58442327Y-80995808D01*
X58098799Y-80853162D01*
X57726833Y-80852838D01*
X57383057Y-80994883D01*
X57119808Y-81257673D01*
X56977162Y-81601201D01*
X56976838Y-81973167D01*
X57118883Y-82316943D01*
X57152000Y-82350117D01*
X57152000Y-84781537D01*
X57119808Y-84813673D01*
X56977162Y-85157201D01*
X56976838Y-85529167D01*
X57118883Y-85872943D01*
X57381673Y-86136192D01*
X57725201Y-86278838D01*
X58057848Y-86279127D01*
X58082120Y-86401151D01*
X58393189Y-86866698D01*
X58775274Y-87122000D01*
X58593627Y-87243372D01*
X58442327Y-87091808D01*
X58098799Y-86949162D01*
X57726833Y-86948838D01*
X57383057Y-87090883D01*
X57119808Y-87353673D01*
X56977162Y-87697201D01*
X56976838Y-88069167D01*
X57118883Y-88412943D01*
X57152000Y-88446117D01*
X57152000Y-90025896D01*
X57082799Y-89997162D01*
X56710833Y-89996838D01*
X56367057Y-90138883D01*
X56333882Y-90172000D01*
X53084000Y-90172000D01*
X53084000Y-86414462D01*
X53116192Y-86382327D01*
X53258838Y-86038799D01*
X53259162Y-85666833D01*
X53117117Y-85323057D01*
X52854327Y-85059808D01*
X52510799Y-84917162D01*
X52449607Y-84917108D01*
X52416463Y-84746277D01*
X52276673Y-84533473D01*
X52065640Y-84391023D01*
X51973354Y-84372516D01*
X52150732Y-84214036D01*
X52404709Y-83686791D01*
X52407358Y-83671026D01*
X52286217Y-83439000D01*
X50927000Y-83439000D01*
X50927000Y-83459000D01*
X50673000Y-83459000D01*
X50673000Y-83439000D01*
X49313783Y-83439000D01*
X49192642Y-83671026D01*
X49195291Y-83686791D01*
X49449268Y-84214036D01*
X49625701Y-84371673D01*
X49541877Y-84387937D01*
X49329073Y-84527727D01*
X49186623Y-84738760D01*
X49136560Y-84988400D01*
X49136560Y-86715600D01*
X49183537Y-86957723D01*
X49323327Y-87170527D01*
X49534360Y-87312977D01*
X49784000Y-87363040D01*
X51564000Y-87363040D01*
X51564000Y-88965389D01*
X51464155Y-88898675D01*
X50832345Y-88773000D01*
X50767655Y-88773000D01*
X50135845Y-88898675D01*
X49600222Y-89256567D01*
X49242330Y-89792190D01*
X49116655Y-90424000D01*
X49242330Y-91055810D01*
X49469169Y-91395298D01*
X49329073Y-91487327D01*
X49186623Y-91698360D01*
X49136560Y-91948000D01*
X49136560Y-93980000D01*
X49183537Y-94222123D01*
X49323327Y-94434927D01*
X49534360Y-94577377D01*
X49784000Y-94627440D01*
X51388877Y-94627440D01*
X51388838Y-94673167D01*
X51530883Y-95016943D01*
X51793673Y-95280192D01*
X52137201Y-95422838D01*
X52509167Y-95423162D01*
X52852943Y-95281117D01*
X53116192Y-95018327D01*
X53258838Y-94674799D01*
X53259162Y-94302833D01*
X53117117Y-93959057D01*
X53084000Y-93925882D01*
X53084000Y-91692000D01*
X56333537Y-91692000D01*
X56365673Y-91724192D01*
X56709201Y-91866838D01*
X57081167Y-91867162D01*
X57152000Y-91837894D01*
X57152000Y-93417537D01*
X57119808Y-93449673D01*
X56977162Y-93793201D01*
X56976838Y-94165167D01*
X57118883Y-94508943D01*
X57381673Y-94772192D01*
X57725201Y-94914838D01*
X58097167Y-94915162D01*
X58440943Y-94773117D01*
X58704192Y-94510327D01*
X58846838Y-94166799D01*
X58847162Y-93794833D01*
X58705117Y-93451057D01*
X58672000Y-93417882D01*
X58672000Y-92132993D01*
X58858736Y-92257767D01*
X59407887Y-92367000D01*
X59464113Y-92367000D01*
X60013264Y-92257767D01*
X60478811Y-91946698D01*
X60789880Y-91481151D01*
X60899113Y-90932000D01*
X60899113Y-98933000D01*
X48387000Y-98933000D01*
X48387000Y-73787000D01*
X78613000Y-73787000D01*
X78613000Y-98933000D01*
M02*
