M48
;DRILL file {KiCad (2015-05-28 BZR 5690)-product} date Tuesday, June 16, 2015 'PMt' 01:52:11 PM
;FORMAT={-:-/ absolute / inch / decimal}
FMAT,2
INCH,TZ
T1C0.016
T2C0.031
T3C0.032
T4C0.032
T5C0.040
T6C0.045
T7C0.047
T8C0.059
T9C0.061
T10C0.098
T11C0.120
%
G90
G05
M72
T1
X3.4Y-2.8
X3.525Y-2.7
X3.6Y-2.875
X3.975Y-2.575
X4.075Y-3.55
X4.275Y-3.05
X4.325Y-3.475
X4.375Y-2.575
X4.4Y-2.375
X4.45Y-2.725
T2
X3.55Y-2.925
X3.55Y-3.225
X3.65Y-2.925
X3.65Y-3.225
X3.75Y-2.925
X3.75Y-3.225
X3.85Y-2.925
X3.85Y-3.225
X4.175Y-2.925
X4.175Y-3.225
X4.275Y-2.925
X4.275Y-3.225
X4.375Y-2.925
X4.375Y-3.225
X4.475Y-2.925
X4.475Y-3.225
T3
X2.94Y-2.48
X2.94Y-3.72
X3.24Y-2.48
X3.24Y-3.72
T4
X3.675Y-3.375
X3.775Y-3.375
X3.875Y-3.375
X4.275Y-3.375
X4.375Y-3.375
X4.475Y-3.375
T5
X2.8Y-2.9
T6
X3.32Y-2.78
X3.32Y-2.88
X3.32Y-2.98
X3.32Y-3.24
X3.32Y-3.34
X3.32Y-3.44
T7
X3.5919Y-2.687
X3.9019Y-3.513
X4.1431Y-2.687
X4.4531Y-3.513
T8
X2.775Y-2.3425
X2.775Y-2.5
T9
X2.785Y-2.7
X2.785Y-3.1
X2.785Y-3.5
T10
X3.7444Y-3.7
X3.7494Y-2.5
X4.2956Y-3.7
X4.3006Y-2.5
T11
X3.375Y-2.4
X3.375Y-3.825
T10
X3.5417Y-3.7335G85X3.5417Y-3.6665
G05
X3.5467Y-2.4665G85X3.5467Y-2.5335
G05
X4.4983Y-3.7335G85X4.4983Y-3.6665
G05
X4.5033Y-2.4665G85X4.5033Y-2.5335
G05
T0
M30
