G04 #@! TF.FileFunction,Soldermask,Top*
%FSLAX46Y46*%
G04 Gerber Fmt 4.6, Leading zero omitted, Abs format (unit mm)*
G04 Created by KiCad (PCBNEW 0.201505300414+5690~23~ubuntu14.04.1-product) date Sat 20 Jun 2015 09:16:34 PM PDT*
%MOMM*%
G01*
G04 APERTURE LIST*
%ADD10C,0.100000*%
%ADD11O,1.600000X1.600000*%
%ADD12R,1.250000X1.000000*%
%ADD13R,1.300000X0.700000*%
%ADD14C,1.524000*%
%ADD15R,1.000000X1.250000*%
%ADD16C,2.000000*%
%ADD17C,3.500000*%
%ADD18O,2.600000X4.300000*%
%ADD19O,2.540000X2.032000*%
%ADD20R,2.500000X2.500000*%
%ADD21O,2.500000X2.500000*%
%ADD22C,1.501140*%
%ADD23C,3.000000*%
%ADD24R,1.550000X2.100000*%
G04 APERTURE END LIST*
D10*
D11*
X97790000Y-74295000D03*
X95250000Y-74295000D03*
X92710000Y-74295000D03*
X90170000Y-74295000D03*
X90170000Y-81915000D03*
X92710000Y-81915000D03*
X95250000Y-81915000D03*
X97790000Y-81915000D03*
D12*
X89535000Y-70120000D03*
X89535000Y-72120000D03*
D13*
X92710000Y-72070000D03*
X92710000Y-70170000D03*
X95885000Y-72070000D03*
X95885000Y-70170000D03*
X101600000Y-75880000D03*
X101600000Y-73980000D03*
D14*
X95885000Y-85725000D03*
X98425000Y-85725000D03*
X93345000Y-85725000D03*
D11*
X113665000Y-74295000D03*
X111125000Y-74295000D03*
X108585000Y-74295000D03*
X106045000Y-74295000D03*
X106045000Y-81915000D03*
X108585000Y-81915000D03*
X111125000Y-81915000D03*
X113665000Y-81915000D03*
D15*
X86852000Y-66040000D03*
X84852000Y-66040000D03*
X84852000Y-91948000D03*
X86852000Y-91948000D03*
D12*
X103505000Y-70120000D03*
X103505000Y-72120000D03*
D16*
X105235000Y-68250000D03*
D17*
X109235000Y-63500000D03*
D18*
X114385000Y-63500000D03*
D17*
X95235000Y-63500000D03*
D18*
X90085000Y-63500000D03*
D16*
X91235000Y-68250000D03*
X99108000Y-89230000D03*
D17*
X95108000Y-93980000D03*
D18*
X89958000Y-93980000D03*
D17*
X109108000Y-93980000D03*
D18*
X114258000Y-93980000D03*
D16*
X113108000Y-89230000D03*
D13*
X107315000Y-72070000D03*
X107315000Y-70170000D03*
X111125000Y-72070000D03*
X111125000Y-70170000D03*
D14*
X111125000Y-85725000D03*
X113665000Y-85725000D03*
X108585000Y-85725000D03*
D19*
X84328000Y-73152000D03*
X84328000Y-75692000D03*
X84328000Y-70612000D03*
X84328000Y-84836000D03*
X84328000Y-87376000D03*
X84328000Y-82296000D03*
D20*
X70612000Y-63500000D03*
D21*
X70612000Y-59500000D03*
D22*
X82296000Y-62992000D03*
X74676000Y-62992000D03*
X82296000Y-94488000D03*
X74676000Y-94488000D03*
D15*
X86852000Y-62484000D03*
X84852000Y-62484000D03*
X84852000Y-95504000D03*
X86852000Y-95504000D03*
D23*
X70738000Y-89535000D03*
X70738000Y-67945000D03*
X70738000Y-83185000D03*
X70738000Y-74295000D03*
D24*
X78105000Y-76327000D03*
X75565000Y-76327000D03*
X78105000Y-82827000D03*
X75565000Y-82827000D03*
M02*
