G04 #@! TF.FileFunction,Soldermask,Top*
%FSLAX46Y46*%
G04 Gerber Fmt 4.6, Leading zero omitted, Abs format (unit mm)*
G04 Created by KiCad (PCBNEW (2015-05-28 BZR 5690)-product) date Monday, June 08, 2015 'PMt' 12:36:40 PM*
%MOMM*%
G01*
G04 APERTURE LIST*
%ADD10C,0.100000*%
%ADD11O,1.600000X1.600000*%
%ADD12R,1.000000X1.250000*%
%ADD13R,2.032000X2.032000*%
%ADD14O,2.032000X2.032000*%
%ADD15R,2.032000X1.727200*%
%ADD16O,2.032000X1.727200*%
%ADD17R,0.700000X1.300000*%
%ADD18R,1.300000X0.700000*%
%ADD19C,1.524000*%
%ADD20R,1.450000X0.450000*%
G04 APERTURE END LIST*
D10*
D11*
X59436000Y-83312000D03*
X59436000Y-85852000D03*
X59436000Y-88392000D03*
X59436000Y-90932000D03*
X67056000Y-90932000D03*
X67056000Y-88392000D03*
X67056000Y-85852000D03*
X67056000Y-83312000D03*
D12*
X55864000Y-85344000D03*
X53864000Y-85344000D03*
X55864000Y-87884000D03*
X53864000Y-87884000D03*
X53864000Y-90932000D03*
X55864000Y-90932000D03*
X71104000Y-90932000D03*
X69104000Y-90932000D03*
X71104000Y-85852000D03*
X69104000Y-85852000D03*
D10*
G36*
X69217540Y-95370650D02*
X69217540Y-97669350D01*
X65615820Y-97069910D01*
X65615820Y-95970090D01*
X69217540Y-95370650D01*
X69217540Y-95370650D01*
G37*
G36*
X59814460Y-97669350D02*
X59814460Y-95370650D01*
X63416180Y-95970090D01*
X63416180Y-97069910D01*
X59814460Y-97669350D01*
X59814460Y-97669350D01*
G37*
G36*
X59057540Y-95370650D02*
X59057540Y-97669350D01*
X55455820Y-97069910D01*
X55455820Y-95970090D01*
X59057540Y-95370650D01*
X59057540Y-95370650D01*
G37*
G36*
X49654460Y-97669350D02*
X49654460Y-95370650D01*
X53256180Y-95970090D01*
X53256180Y-97069910D01*
X49654460Y-97669350D01*
X49654460Y-97669350D01*
G37*
G36*
X69217540Y-76066650D02*
X69217540Y-78365350D01*
X65615820Y-77765910D01*
X65615820Y-76666090D01*
X69217540Y-76066650D01*
X69217540Y-76066650D01*
G37*
G36*
X59814460Y-78365350D02*
X59814460Y-76066650D01*
X63416180Y-76666090D01*
X63416180Y-77765910D01*
X59814460Y-78365350D01*
X59814460Y-78365350D01*
G37*
G36*
X59057540Y-76066650D02*
X59057540Y-78365350D01*
X55455820Y-77765910D01*
X55455820Y-76666090D01*
X59057540Y-76066650D01*
X59057540Y-76066650D01*
G37*
G36*
X49654460Y-78365350D02*
X49654460Y-76066650D01*
X53256180Y-76666090D01*
X53256180Y-77765910D01*
X49654460Y-78365350D01*
X49654460Y-78365350D01*
G37*
D13*
X50800000Y-92964000D03*
D14*
X50800000Y-90424000D03*
D15*
X50800000Y-85852000D03*
D16*
X50800000Y-83312000D03*
X50800000Y-80772000D03*
D13*
X76200000Y-85344000D03*
D14*
X76200000Y-87884000D03*
D17*
X53914000Y-93472000D03*
X55814000Y-93472000D03*
X53914000Y-80264000D03*
X55814000Y-80264000D03*
X54422000Y-82804000D03*
X56322000Y-82804000D03*
D18*
X73660000Y-90490000D03*
X73660000Y-92390000D03*
D19*
X71628000Y-79248000D03*
X71628000Y-76708000D03*
X71628000Y-81788000D03*
D20*
X75860000Y-97495000D03*
X75860000Y-96845000D03*
X75860000Y-96195000D03*
X75860000Y-95545000D03*
X71460000Y-95545000D03*
X71460000Y-96195000D03*
X71460000Y-96845000D03*
X71460000Y-97495000D03*
M02*
