G04 #@! TF.FileFunction,Copper,L1,Top,Signal*
%FSLAX46Y46*%
G04 Gerber Fmt 4.6, Leading zero omitted, Abs format (unit mm)*
G04 Created by KiCad (PCBNEW (2015-05-28 BZR 5690)-product) date Monday, June 08, 2015 'PMt' 12:36:40 PM*
%MOMM*%
G01*
G04 APERTURE LIST*
%ADD10C,0.100000*%
%ADD11O,1.600000X1.600000*%
%ADD12R,1.000000X1.250000*%
%ADD13R,2.032000X2.032000*%
%ADD14O,2.032000X2.032000*%
%ADD15R,2.032000X1.727200*%
%ADD16O,2.032000X1.727200*%
%ADD17R,0.700000X1.300000*%
%ADD18R,1.300000X0.700000*%
%ADD19C,1.524000*%
%ADD20R,1.450000X0.450000*%
%ADD21C,0.600000*%
%ADD22C,0.250000*%
%ADD23C,0.254000*%
G04 APERTURE END LIST*
D10*
D11*
X59436000Y-83312000D03*
X59436000Y-85852000D03*
X59436000Y-88392000D03*
X59436000Y-90932000D03*
X67056000Y-90932000D03*
X67056000Y-88392000D03*
X67056000Y-85852000D03*
X67056000Y-83312000D03*
D12*
X55864000Y-85344000D03*
X53864000Y-85344000D03*
X55864000Y-87884000D03*
X53864000Y-87884000D03*
X53864000Y-90932000D03*
X55864000Y-90932000D03*
X71104000Y-90932000D03*
X69104000Y-90932000D03*
X71104000Y-85852000D03*
X69104000Y-85852000D03*
D10*
G36*
X69217540Y-95370650D02*
X69217540Y-97669350D01*
X65615820Y-97069910D01*
X65615820Y-95970090D01*
X69217540Y-95370650D01*
X69217540Y-95370650D01*
G37*
G36*
X59814460Y-97669350D02*
X59814460Y-95370650D01*
X63416180Y-95970090D01*
X63416180Y-97069910D01*
X59814460Y-97669350D01*
X59814460Y-97669350D01*
G37*
G36*
X59057540Y-95370650D02*
X59057540Y-97669350D01*
X55455820Y-97069910D01*
X55455820Y-95970090D01*
X59057540Y-95370650D01*
X59057540Y-95370650D01*
G37*
G36*
X49654460Y-97669350D02*
X49654460Y-95370650D01*
X53256180Y-95970090D01*
X53256180Y-97069910D01*
X49654460Y-97669350D01*
X49654460Y-97669350D01*
G37*
G36*
X69217540Y-76066650D02*
X69217540Y-78365350D01*
X65615820Y-77765910D01*
X65615820Y-76666090D01*
X69217540Y-76066650D01*
X69217540Y-76066650D01*
G37*
G36*
X59814460Y-78365350D02*
X59814460Y-76066650D01*
X63416180Y-76666090D01*
X63416180Y-77765910D01*
X59814460Y-78365350D01*
X59814460Y-78365350D01*
G37*
G36*
X59057540Y-76066650D02*
X59057540Y-78365350D01*
X55455820Y-77765910D01*
X55455820Y-76666090D01*
X59057540Y-76066650D01*
X59057540Y-76066650D01*
G37*
G36*
X49654460Y-78365350D02*
X49654460Y-76066650D01*
X53256180Y-76666090D01*
X53256180Y-77765910D01*
X49654460Y-78365350D01*
X49654460Y-78365350D01*
G37*
D13*
X50800000Y-92964000D03*
D14*
X50800000Y-90424000D03*
D15*
X50800000Y-85852000D03*
D16*
X50800000Y-83312000D03*
X50800000Y-80772000D03*
D13*
X76200000Y-85344000D03*
D14*
X76200000Y-87884000D03*
D17*
X53914000Y-93472000D03*
X55814000Y-93472000D03*
X53914000Y-80264000D03*
X55814000Y-80264000D03*
X54422000Y-82804000D03*
X56322000Y-82804000D03*
D18*
X73660000Y-90490000D03*
X73660000Y-92390000D03*
D19*
X71628000Y-79248000D03*
X71628000Y-76708000D03*
X71628000Y-81788000D03*
D20*
X75860000Y-97495000D03*
X75860000Y-96845000D03*
X75860000Y-96195000D03*
X75860000Y-95545000D03*
X71460000Y-95545000D03*
X71460000Y-96195000D03*
X71460000Y-96845000D03*
X71460000Y-97495000D03*
D21*
X57912000Y-85344000D03*
X57912000Y-81788000D03*
X57912000Y-87884000D03*
X57912000Y-93980000D03*
X52324000Y-94488000D03*
X52324000Y-85852000D03*
X56896000Y-90932000D03*
X68580000Y-94488000D03*
X67056000Y-75692000D03*
X53975000Y-89535000D03*
X55880000Y-78740000D03*
X53340000Y-82804000D03*
D22*
X56322000Y-82804000D02*
X58928000Y-82804000D01*
X58928000Y-82804000D02*
X59436000Y-83312000D01*
X59436000Y-83312000D02*
X59436000Y-82870000D01*
X53914000Y-80264000D02*
X53914000Y-79314000D01*
X53914000Y-79314000D02*
X56012000Y-77216000D01*
X56012000Y-77216000D02*
X57256680Y-77216000D01*
X57256680Y-77216000D02*
X57764680Y-81640680D01*
X57912000Y-81788000D02*
X57764680Y-81640680D01*
X55864000Y-85344000D02*
X57912000Y-85344000D01*
X57912000Y-85344000D02*
X58928000Y-85344000D01*
X58928000Y-85344000D02*
X59436000Y-85852000D01*
X56880000Y-77592680D02*
X57256680Y-77216000D01*
X57256680Y-77216000D02*
X57256680Y-76789320D01*
X57256680Y-77216000D02*
X61615320Y-77216000D01*
X53914000Y-93472000D02*
X54208680Y-93472000D01*
X54208680Y-93472000D02*
X57256680Y-96520000D01*
X57256680Y-96520000D02*
X57256680Y-94635320D01*
X57912000Y-93980000D02*
X57256680Y-94635320D01*
X55864000Y-87884000D02*
X57912000Y-87884000D01*
X57912000Y-87884000D02*
X58928000Y-87884000D01*
X58928000Y-87884000D02*
X59436000Y-88392000D01*
X56240680Y-88260680D02*
X55864000Y-87884000D01*
X57256680Y-96520000D02*
X57256680Y-96946680D01*
X57256680Y-96520000D02*
X61615320Y-96520000D01*
X51455320Y-96520000D02*
X51455320Y-95356680D01*
X51455320Y-95356680D02*
X52324000Y-94488000D01*
X51455320Y-77363320D02*
X52324000Y-78232000D01*
X52324000Y-78740000D02*
X52324000Y-78232000D01*
X52324000Y-78740000D02*
X52324000Y-85852000D01*
X51455320Y-77363320D02*
X51455320Y-77216000D01*
X56896000Y-90932000D02*
X59436000Y-90932000D01*
X55864000Y-90932000D02*
X56896000Y-90932000D01*
X51455320Y-96520000D02*
X51455320Y-96372680D01*
X51308000Y-77363320D02*
X51455320Y-77216000D01*
X50800000Y-85852000D02*
X51308000Y-85852000D01*
X71460000Y-96195000D02*
X70287000Y-96195000D01*
X69104000Y-92472000D02*
X69104000Y-90932000D01*
X70104000Y-93472000D02*
X69104000Y-92472000D01*
X70104000Y-96012000D02*
X70104000Y-93472000D01*
X70287000Y-96195000D02*
X70104000Y-96012000D01*
X67056000Y-90932000D02*
X69104000Y-90932000D01*
X73660000Y-88392000D02*
X73660000Y-87376000D01*
X73660000Y-87376000D02*
X75692000Y-85344000D01*
X75692000Y-85344000D02*
X76200000Y-85344000D01*
X67056000Y-88392000D02*
X73660000Y-88392000D01*
X73660000Y-88392000D02*
X73660000Y-90490000D01*
X67416680Y-95651320D02*
X67416680Y-96520000D01*
X68580000Y-94488000D02*
X67416680Y-95651320D01*
X67056000Y-85852000D02*
X68580000Y-84328000D01*
X68580000Y-78379320D02*
X67416680Y-77216000D01*
X68580000Y-84328000D02*
X68580000Y-78379320D01*
X67056000Y-85852000D02*
X69104000Y-85852000D01*
X67056000Y-75692000D02*
X67416680Y-76052680D01*
X67416680Y-76052680D02*
X67416680Y-77216000D01*
X50800000Y-90424000D02*
X53864000Y-85344000D01*
X52705000Y-89043000D02*
X53864000Y-87884000D01*
X52705000Y-91440000D02*
X52705000Y-89043000D01*
X51181000Y-92964000D02*
X52705000Y-91440000D01*
X50800000Y-92964000D02*
X51181000Y-92964000D01*
X53864000Y-89646000D02*
X53975000Y-89535000D01*
X53864000Y-90932000D02*
X53864000Y-89646000D01*
X74605000Y-96195000D02*
X74295000Y-95885000D01*
X75860000Y-96195000D02*
X74605000Y-96195000D01*
X55814000Y-78806000D02*
X55880000Y-78740000D01*
X55814000Y-80264000D02*
X55814000Y-78806000D01*
X75860000Y-96845000D02*
X77033000Y-96845000D01*
X75626000Y-92390000D02*
X73660000Y-92390000D01*
X77216000Y-93980000D02*
X75626000Y-92390000D01*
X77216000Y-96662000D02*
X77216000Y-93980000D01*
X77033000Y-96845000D02*
X77216000Y-96662000D01*
X71104000Y-90932000D02*
X71104000Y-91424000D01*
X71104000Y-91424000D02*
X72070000Y-92390000D01*
X72070000Y-92390000D02*
X73660000Y-92390000D01*
X74102000Y-92390000D02*
X73660000Y-92390000D01*
X54422000Y-82804000D02*
X53340000Y-82804000D01*
D23*
G36*
X56991257Y-81567255D02*
X56979464Y-81595655D01*
X56921640Y-81556623D01*
X56672000Y-81506560D01*
X56392768Y-81506560D01*
X56523698Y-81452327D01*
X56702327Y-81273699D01*
X56799000Y-81040310D01*
X56799000Y-80787691D01*
X56799000Y-80549750D01*
X56640250Y-80391000D01*
X55941000Y-80391000D01*
X55941000Y-80411000D01*
X55687000Y-80411000D01*
X55687000Y-80391000D01*
X55667000Y-80391000D01*
X55667000Y-80137000D01*
X55687000Y-80137000D01*
X55687000Y-79137750D01*
X55528250Y-78979000D01*
X55337691Y-78979000D01*
X55313980Y-78988821D01*
X55819943Y-78482858D01*
X56653055Y-78621514D01*
X56734670Y-79332386D01*
X56702327Y-79254301D01*
X56523698Y-79075673D01*
X56290309Y-78979000D01*
X56099750Y-78979000D01*
X55941000Y-79137750D01*
X55941000Y-80137000D01*
X56640250Y-80137000D01*
X56799000Y-79978250D01*
X56799000Y-79892692D01*
X56991257Y-81567255D01*
X56991257Y-81567255D01*
G37*
X56991257Y-81567255D02*
X56979464Y-81595655D01*
X56921640Y-81556623D01*
X56672000Y-81506560D01*
X56392768Y-81506560D01*
X56523698Y-81452327D01*
X56702327Y-81273699D01*
X56799000Y-81040310D01*
X56799000Y-80787691D01*
X56799000Y-80549750D01*
X56640250Y-80391000D01*
X55941000Y-80391000D01*
X55941000Y-80411000D01*
X55687000Y-80411000D01*
X55687000Y-80391000D01*
X55667000Y-80391000D01*
X55667000Y-80137000D01*
X55687000Y-80137000D01*
X55687000Y-79137750D01*
X55528250Y-78979000D01*
X55337691Y-78979000D01*
X55313980Y-78988821D01*
X55819943Y-78482858D01*
X56653055Y-78621514D01*
X56734670Y-79332386D01*
X56702327Y-79254301D01*
X56523698Y-79075673D01*
X56290309Y-78979000D01*
X56099750Y-78979000D01*
X55941000Y-79137750D01*
X55941000Y-80137000D01*
X56640250Y-80137000D01*
X56799000Y-79978250D01*
X56799000Y-79892692D01*
X56991257Y-81567255D01*
G36*
X58775274Y-89662000D02*
X58393189Y-89917302D01*
X58223004Y-90172000D01*
X57458462Y-90172000D01*
X57426327Y-90139808D01*
X57082799Y-89997162D01*
X56919888Y-89997020D01*
X56824673Y-89852073D01*
X56613640Y-89709623D01*
X56364000Y-89659560D01*
X55364000Y-89659560D01*
X55121877Y-89706537D01*
X54909073Y-89846327D01*
X54865662Y-89910637D01*
X54723698Y-89768673D01*
X54490309Y-89672000D01*
X54149750Y-89672000D01*
X53991000Y-89830750D01*
X53991000Y-90805000D01*
X54011000Y-90805000D01*
X54011000Y-91059000D01*
X53991000Y-91059000D01*
X53991000Y-91079000D01*
X53737000Y-91079000D01*
X53737000Y-91059000D01*
X53717000Y-91059000D01*
X53717000Y-90805000D01*
X53737000Y-90805000D01*
X53737000Y-89830750D01*
X53578250Y-89672000D01*
X53465000Y-89672000D01*
X53465000Y-89357802D01*
X53666362Y-89156440D01*
X54364000Y-89156440D01*
X54606123Y-89109463D01*
X54818927Y-88969673D01*
X54863613Y-88903471D01*
X54903327Y-88963927D01*
X55114360Y-89106377D01*
X55364000Y-89156440D01*
X56364000Y-89156440D01*
X56606123Y-89109463D01*
X56818927Y-88969673D01*
X56961377Y-88758640D01*
X56984366Y-88644000D01*
X57349537Y-88644000D01*
X57381673Y-88676192D01*
X57725201Y-88818838D01*
X58057848Y-88819127D01*
X58082120Y-88941151D01*
X58393189Y-89406698D01*
X58775274Y-89662000D01*
X58775274Y-89662000D01*
G37*
X58775274Y-89662000D02*
X58393189Y-89917302D01*
X58223004Y-90172000D01*
X57458462Y-90172000D01*
X57426327Y-90139808D01*
X57082799Y-89997162D01*
X56919888Y-89997020D01*
X56824673Y-89852073D01*
X56613640Y-89709623D01*
X56364000Y-89659560D01*
X55364000Y-89659560D01*
X55121877Y-89706537D01*
X54909073Y-89846327D01*
X54865662Y-89910637D01*
X54723698Y-89768673D01*
X54490309Y-89672000D01*
X54149750Y-89672000D01*
X53991000Y-89830750D01*
X53991000Y-90805000D01*
X54011000Y-90805000D01*
X54011000Y-91059000D01*
X53991000Y-91059000D01*
X53991000Y-91079000D01*
X53737000Y-91079000D01*
X53737000Y-91059000D01*
X53717000Y-91059000D01*
X53717000Y-90805000D01*
X53737000Y-90805000D01*
X53737000Y-89830750D01*
X53578250Y-89672000D01*
X53465000Y-89672000D01*
X53465000Y-89357802D01*
X53666362Y-89156440D01*
X54364000Y-89156440D01*
X54606123Y-89109463D01*
X54818927Y-88969673D01*
X54863613Y-88903471D01*
X54903327Y-88963927D01*
X55114360Y-89106377D01*
X55364000Y-89156440D01*
X56364000Y-89156440D01*
X56606123Y-89109463D01*
X56818927Y-88969673D01*
X56961377Y-88758640D01*
X56984366Y-88644000D01*
X57349537Y-88644000D01*
X57381673Y-88676192D01*
X57725201Y-88818838D01*
X58057848Y-88819127D01*
X58082120Y-88941151D01*
X58393189Y-89406698D01*
X58775274Y-89662000D01*
G36*
X78613000Y-98933000D02*
X77976000Y-98933000D01*
X77976000Y-96662000D01*
X77976000Y-93980000D01*
X77918148Y-93689161D01*
X77805975Y-93521281D01*
X77805975Y-88266944D01*
X77686836Y-88011000D01*
X76327000Y-88011000D01*
X76327000Y-89371367D01*
X76582946Y-89489983D01*
X77168379Y-89221188D01*
X77606385Y-88748818D01*
X77805975Y-88266944D01*
X77805975Y-93521281D01*
X77753401Y-93442599D01*
X76163401Y-91852599D01*
X76073000Y-91792195D01*
X76073000Y-89371367D01*
X76073000Y-88011000D01*
X74713164Y-88011000D01*
X74594025Y-88266944D01*
X74793615Y-88748818D01*
X75231621Y-89221188D01*
X75817054Y-89489983D01*
X76073000Y-89371367D01*
X76073000Y-91792195D01*
X75916839Y-91687852D01*
X75626000Y-91630000D01*
X74800185Y-91630000D01*
X74770673Y-91585073D01*
X74559640Y-91442623D01*
X74550469Y-91440783D01*
X74552123Y-91440463D01*
X74764927Y-91300673D01*
X74907377Y-91089640D01*
X74957440Y-90840000D01*
X74957440Y-90140000D01*
X74910463Y-89897877D01*
X74770673Y-89685073D01*
X74559640Y-89542623D01*
X74420000Y-89514619D01*
X74420000Y-88392000D01*
X74420000Y-87690802D01*
X74599018Y-87511783D01*
X74713164Y-87757000D01*
X76073000Y-87757000D01*
X76073000Y-87737000D01*
X76327000Y-87737000D01*
X76327000Y-87757000D01*
X77686836Y-87757000D01*
X77805975Y-87501056D01*
X77606385Y-87019182D01*
X77516425Y-86922164D01*
X77670927Y-86820673D01*
X77813377Y-86609640D01*
X77863440Y-86360000D01*
X77863440Y-84328000D01*
X77816463Y-84085877D01*
X77676673Y-83873073D01*
X77465640Y-83730623D01*
X77216000Y-83680560D01*
X75184000Y-83680560D01*
X74941877Y-83727537D01*
X74729073Y-83867327D01*
X74586623Y-84078360D01*
X74536560Y-84328000D01*
X74536560Y-85424638D01*
X73122599Y-86838599D01*
X73025242Y-86984304D01*
X73025242Y-81511339D01*
X72813010Y-80997697D01*
X72420370Y-80604371D01*
X72212487Y-80518050D01*
X72418303Y-80433010D01*
X72811629Y-80040370D01*
X73024757Y-79527100D01*
X73025242Y-78971339D01*
X72813010Y-78457697D01*
X72420370Y-78064371D01*
X72212487Y-77978050D01*
X72418303Y-77893010D01*
X72811629Y-77500370D01*
X73024757Y-76987100D01*
X73025242Y-76431339D01*
X72813010Y-75917697D01*
X72420370Y-75524371D01*
X71907100Y-75311243D01*
X71351339Y-75310758D01*
X70837697Y-75522990D01*
X70444371Y-75915630D01*
X70231243Y-76428900D01*
X70230758Y-76984661D01*
X70442990Y-77498303D01*
X70835630Y-77891629D01*
X71043512Y-77977949D01*
X70837697Y-78062990D01*
X70444371Y-78455630D01*
X70231243Y-78968900D01*
X70230758Y-79524661D01*
X70442990Y-80038303D01*
X70835630Y-80431629D01*
X71043512Y-80517949D01*
X70837697Y-80602990D01*
X70444371Y-80995630D01*
X70231243Y-81508900D01*
X70230758Y-82064661D01*
X70442990Y-82578303D01*
X70835630Y-82971629D01*
X71348900Y-83184757D01*
X71904661Y-83185242D01*
X72418303Y-82973010D01*
X72811629Y-82580370D01*
X73024757Y-82067100D01*
X73025242Y-81511339D01*
X73025242Y-86984304D01*
X72957852Y-87085161D01*
X72900000Y-87376000D01*
X72900000Y-87632000D01*
X72239000Y-87632000D01*
X72239000Y-86603310D01*
X72239000Y-86350691D01*
X72239000Y-86137750D01*
X72239000Y-85566250D01*
X72239000Y-85353309D01*
X72239000Y-85100690D01*
X72142327Y-84867301D01*
X71963698Y-84688673D01*
X71730309Y-84592000D01*
X71389750Y-84592000D01*
X71231000Y-84750750D01*
X71231000Y-85725000D01*
X72080250Y-85725000D01*
X72239000Y-85566250D01*
X72239000Y-86137750D01*
X72080250Y-85979000D01*
X71231000Y-85979000D01*
X71231000Y-86953250D01*
X71389750Y-87112000D01*
X71730309Y-87112000D01*
X71963698Y-87015327D01*
X72142327Y-86836699D01*
X72239000Y-86603310D01*
X72239000Y-87632000D01*
X68268995Y-87632000D01*
X68098811Y-87377302D01*
X67716725Y-87122000D01*
X68098811Y-86866698D01*
X68099651Y-86865439D01*
X68143327Y-86931927D01*
X68354360Y-87074377D01*
X68604000Y-87124440D01*
X69604000Y-87124440D01*
X69846123Y-87077463D01*
X70058927Y-86937673D01*
X70102337Y-86873362D01*
X70244302Y-87015327D01*
X70477691Y-87112000D01*
X70818250Y-87112000D01*
X70977000Y-86953250D01*
X70977000Y-85979000D01*
X70957000Y-85979000D01*
X70957000Y-85725000D01*
X70977000Y-85725000D01*
X70977000Y-84750750D01*
X70818250Y-84592000D01*
X70477691Y-84592000D01*
X70244302Y-84688673D01*
X70102823Y-84830150D01*
X70064673Y-84772073D01*
X69853640Y-84629623D01*
X69604000Y-84579560D01*
X69289961Y-84579560D01*
X69291746Y-84570586D01*
X69339999Y-84328000D01*
X69340000Y-84328000D01*
X69340000Y-78978930D01*
X69459663Y-78965813D01*
X69672467Y-78826023D01*
X69814917Y-78614990D01*
X69864980Y-78365350D01*
X69864980Y-76066650D01*
X69770105Y-75729232D01*
X69597276Y-75542265D01*
X69365720Y-75436395D01*
X69111248Y-75427994D01*
X68017401Y-75610044D01*
X67991106Y-75570691D01*
X67991162Y-75506833D01*
X67849117Y-75163057D01*
X67586327Y-74899808D01*
X67242799Y-74757162D01*
X66870833Y-74756838D01*
X66527057Y-74898883D01*
X66263808Y-75161673D01*
X66121162Y-75505201D01*
X66120838Y-75877167D01*
X66139598Y-75922570D01*
X65509528Y-76027434D01*
X65373697Y-76065627D01*
X65160893Y-76205417D01*
X65018443Y-76416450D01*
X64968380Y-76666090D01*
X64968380Y-77765910D01*
X64983755Y-77906168D01*
X65086710Y-78139035D01*
X65271494Y-78314197D01*
X65509528Y-78404566D01*
X67820000Y-78789101D01*
X67820000Y-82111006D01*
X67633264Y-81986233D01*
X67084113Y-81877000D01*
X67027887Y-81877000D01*
X66478736Y-81986233D01*
X66013189Y-82297302D01*
X65702120Y-82762849D01*
X65592887Y-83312000D01*
X65702120Y-83861151D01*
X66013189Y-84326698D01*
X66395274Y-84582000D01*
X66013189Y-84837302D01*
X65702120Y-85302849D01*
X65592887Y-85852000D01*
X65702120Y-86401151D01*
X66013189Y-86866698D01*
X66395274Y-87122000D01*
X66013189Y-87377302D01*
X65702120Y-87842849D01*
X65592887Y-88392000D01*
X65702120Y-88941151D01*
X66013189Y-89406698D01*
X66395274Y-89662000D01*
X66013189Y-89917302D01*
X65702120Y-90382849D01*
X65592887Y-90932000D01*
X65702120Y-91481151D01*
X66013189Y-91946698D01*
X66478736Y-92257767D01*
X67027887Y-92367000D01*
X67084113Y-92367000D01*
X67633264Y-92257767D01*
X68098811Y-91946698D01*
X68099651Y-91945439D01*
X68143327Y-92011927D01*
X68344000Y-92147383D01*
X68344000Y-92472000D01*
X68401852Y-92762839D01*
X68566599Y-93009401D01*
X69344000Y-93786802D01*
X69344000Y-93929889D01*
X69110327Y-93695808D01*
X68766799Y-93553162D01*
X68394833Y-93552838D01*
X68051057Y-93694883D01*
X67787808Y-93957673D01*
X67645162Y-94301201D01*
X67645121Y-94348076D01*
X66891821Y-95101376D01*
X65509528Y-95331434D01*
X65373697Y-95369627D01*
X65160893Y-95509417D01*
X65018443Y-95720450D01*
X64968380Y-95970090D01*
X64968380Y-97069910D01*
X64983755Y-97210168D01*
X65086710Y-97443035D01*
X65271494Y-97618197D01*
X65509528Y-97708566D01*
X69111248Y-98308006D01*
X69459663Y-98269813D01*
X69672467Y-98130023D01*
X69814917Y-97918990D01*
X69864980Y-97669350D01*
X69864980Y-96809495D01*
X69996161Y-96897148D01*
X70087560Y-96915328D01*
X70087560Y-97070000D01*
X70107282Y-97171652D01*
X70087560Y-97270000D01*
X70087560Y-97720000D01*
X70134537Y-97962123D01*
X70274327Y-98174927D01*
X70485360Y-98317377D01*
X70735000Y-98367440D01*
X72185000Y-98367440D01*
X72427123Y-98320463D01*
X72639927Y-98180673D01*
X72782377Y-97969640D01*
X72832440Y-97720000D01*
X72832440Y-97270000D01*
X72812717Y-97168347D01*
X72832440Y-97070000D01*
X72832440Y-96620000D01*
X72812717Y-96518347D01*
X72832440Y-96420000D01*
X72832440Y-95970000D01*
X72812717Y-95868347D01*
X72832440Y-95770000D01*
X72832440Y-95320000D01*
X72785463Y-95077877D01*
X72645673Y-94865073D01*
X72434640Y-94722623D01*
X72185000Y-94672560D01*
X70864000Y-94672560D01*
X70864000Y-93472000D01*
X70806148Y-93181161D01*
X70641401Y-92934599D01*
X69864000Y-92157198D01*
X69864000Y-92145719D01*
X70058927Y-92017673D01*
X70103613Y-91951471D01*
X70143327Y-92011927D01*
X70354360Y-92154377D01*
X70604000Y-92204440D01*
X70809638Y-92204440D01*
X71532599Y-92927401D01*
X71779160Y-93092148D01*
X71779161Y-93092148D01*
X72070000Y-93150000D01*
X72519814Y-93150000D01*
X72549327Y-93194927D01*
X72760360Y-93337377D01*
X73010000Y-93387440D01*
X74310000Y-93387440D01*
X74552123Y-93340463D01*
X74764927Y-93200673D01*
X74799131Y-93150000D01*
X75311198Y-93150000D01*
X76456000Y-94294802D01*
X76456000Y-94672560D01*
X75135000Y-94672560D01*
X74892877Y-94719537D01*
X74680073Y-94859327D01*
X74537623Y-95070360D01*
X74487560Y-95320000D01*
X74487560Y-95770000D01*
X74501264Y-95840636D01*
X74500000Y-95843690D01*
X74500000Y-95923750D01*
X74521577Y-95945327D01*
X74534537Y-96012123D01*
X74655321Y-96195994D01*
X74537623Y-96370360D01*
X74523006Y-96443243D01*
X74500000Y-96466250D01*
X74500000Y-96546310D01*
X74501575Y-96550112D01*
X74487560Y-96620000D01*
X74487560Y-97070000D01*
X74507282Y-97171652D01*
X74487560Y-97270000D01*
X74487560Y-97720000D01*
X74534537Y-97962123D01*
X74674327Y-98174927D01*
X74885360Y-98317377D01*
X75135000Y-98367440D01*
X76585000Y-98367440D01*
X76827123Y-98320463D01*
X77039927Y-98180673D01*
X77182377Y-97969640D01*
X77232440Y-97720000D01*
X77232440Y-97565328D01*
X77323839Y-97547148D01*
X77570401Y-97382401D01*
X77753401Y-97199401D01*
X77918148Y-96952839D01*
X77976000Y-96662000D01*
X77976000Y-98933000D01*
X64063620Y-98933000D01*
X64063620Y-97069910D01*
X64063620Y-95970090D01*
X64048245Y-95829832D01*
X63945290Y-95596965D01*
X63760506Y-95421803D01*
X63522472Y-95331434D01*
X59920752Y-94731994D01*
X59572337Y-94770187D01*
X59444547Y-94854131D01*
X59437276Y-94846265D01*
X59205720Y-94740395D01*
X58951248Y-94731994D01*
X58263409Y-94846471D01*
X58440943Y-94773117D01*
X58704192Y-94510327D01*
X58846838Y-94166799D01*
X58847162Y-93794833D01*
X58705117Y-93451057D01*
X58442327Y-93187808D01*
X58098799Y-93045162D01*
X57726833Y-93044838D01*
X57383057Y-93186883D01*
X57119808Y-93449673D01*
X56977162Y-93793201D01*
X56977121Y-93840076D01*
X56799000Y-94018198D01*
X56799000Y-93995691D01*
X56799000Y-93757750D01*
X56640250Y-93599000D01*
X55941000Y-93599000D01*
X55941000Y-93619000D01*
X55687000Y-93619000D01*
X55687000Y-93599000D01*
X55667000Y-93599000D01*
X55667000Y-93345000D01*
X55687000Y-93345000D01*
X55687000Y-93325000D01*
X55941000Y-93325000D01*
X55941000Y-93345000D01*
X56640250Y-93345000D01*
X56799000Y-93186250D01*
X56799000Y-92948309D01*
X56799000Y-92695690D01*
X56702327Y-92462301D01*
X56523698Y-92283673D01*
X56332412Y-92204440D01*
X56364000Y-92204440D01*
X56606123Y-92157463D01*
X56818927Y-92017673D01*
X56920618Y-91867022D01*
X57081167Y-91867162D01*
X57424943Y-91725117D01*
X57458117Y-91692000D01*
X58223004Y-91692000D01*
X58393189Y-91946698D01*
X58858736Y-92257767D01*
X59407887Y-92367000D01*
X59464113Y-92367000D01*
X60013264Y-92257767D01*
X60478811Y-91946698D01*
X60789880Y-91481151D01*
X60899113Y-90932000D01*
X60789880Y-90382849D01*
X60478811Y-89917302D01*
X60096725Y-89662000D01*
X60478811Y-89406698D01*
X60789880Y-88941151D01*
X60899113Y-88392000D01*
X60789880Y-87842849D01*
X60478811Y-87377302D01*
X60096725Y-87122000D01*
X60478811Y-86866698D01*
X60789880Y-86401151D01*
X60899113Y-85852000D01*
X60789880Y-85302849D01*
X60478811Y-84837302D01*
X60096725Y-84582000D01*
X60478811Y-84326698D01*
X60789880Y-83861151D01*
X60899113Y-83312000D01*
X60789880Y-82762849D01*
X60478811Y-82297302D01*
X60013264Y-81986233D01*
X59464113Y-81877000D01*
X59407887Y-81877000D01*
X58858736Y-81986233D01*
X58835698Y-82001626D01*
X58846838Y-81974799D01*
X58847162Y-81602833D01*
X58705117Y-81259057D01*
X58457363Y-81010871D01*
X58212845Y-78881112D01*
X58951248Y-79004006D01*
X59299663Y-78965813D01*
X59427452Y-78881868D01*
X59434724Y-78889735D01*
X59666280Y-78995605D01*
X59920752Y-79004006D01*
X63522472Y-78404566D01*
X63658303Y-78366373D01*
X63871107Y-78226583D01*
X64013557Y-78015550D01*
X64063620Y-77765910D01*
X64063620Y-76666090D01*
X64048245Y-76525832D01*
X63945290Y-76292965D01*
X63760506Y-76117803D01*
X63522472Y-76027434D01*
X59920752Y-75427994D01*
X59572337Y-75466187D01*
X59444547Y-75550131D01*
X59437276Y-75542265D01*
X59205720Y-75436395D01*
X58951248Y-75427994D01*
X55349528Y-76027434D01*
X55213697Y-76065627D01*
X55000893Y-76205417D01*
X54858443Y-76416450D01*
X54808380Y-76666090D01*
X54808380Y-77344818D01*
X53376599Y-78776599D01*
X53211852Y-79023161D01*
X53197516Y-79095228D01*
X53109073Y-79153327D01*
X53084000Y-79190471D01*
X53084000Y-78740000D01*
X53084000Y-78450912D01*
X53362472Y-78404566D01*
X53498303Y-78366373D01*
X53711107Y-78226583D01*
X53853557Y-78015550D01*
X53903620Y-77765910D01*
X53903620Y-76666090D01*
X53888245Y-76525832D01*
X53785290Y-76292965D01*
X53600506Y-76117803D01*
X53362472Y-76027434D01*
X49760752Y-75427994D01*
X49412337Y-75466187D01*
X49199533Y-75605977D01*
X49057083Y-75817010D01*
X49007020Y-76066650D01*
X49007020Y-78365350D01*
X49101895Y-78702768D01*
X49274724Y-78889735D01*
X49506280Y-78995605D01*
X49760752Y-79004006D01*
X51564000Y-78703888D01*
X51564000Y-78740000D01*
X51564000Y-79391326D01*
X51558234Y-79387474D01*
X50984745Y-79273400D01*
X50615255Y-79273400D01*
X50041766Y-79387474D01*
X49555585Y-79712330D01*
X49230729Y-80198511D01*
X49116655Y-80772000D01*
X49230729Y-81345489D01*
X49555585Y-81831670D01*
X49865069Y-82038460D01*
X49449268Y-82409964D01*
X49195291Y-82937209D01*
X49192642Y-82952974D01*
X49313783Y-83185000D01*
X50673000Y-83185000D01*
X50673000Y-83165000D01*
X50927000Y-83165000D01*
X50927000Y-83185000D01*
X50947000Y-83185000D01*
X50947000Y-83439000D01*
X50927000Y-83439000D01*
X50927000Y-83459000D01*
X50673000Y-83459000D01*
X50673000Y-83439000D01*
X49313783Y-83439000D01*
X49192642Y-83671026D01*
X49195291Y-83686791D01*
X49449268Y-84214036D01*
X49625701Y-84371673D01*
X49541877Y-84387937D01*
X49329073Y-84527727D01*
X49186623Y-84738760D01*
X49136560Y-84988400D01*
X49136560Y-86715600D01*
X49183537Y-86957723D01*
X49323327Y-87170527D01*
X49534360Y-87312977D01*
X49784000Y-87363040D01*
X51758677Y-87363040D01*
X50900128Y-88786483D01*
X50832345Y-88773000D01*
X50767655Y-88773000D01*
X50135845Y-88898675D01*
X49600222Y-89256567D01*
X49242330Y-89792190D01*
X49116655Y-90424000D01*
X49242330Y-91055810D01*
X49469169Y-91395298D01*
X49329073Y-91487327D01*
X49186623Y-91698360D01*
X49136560Y-91948000D01*
X49136560Y-93980000D01*
X49183537Y-94222123D01*
X49323327Y-94434927D01*
X49534360Y-94577377D01*
X49784000Y-94627440D01*
X51109758Y-94627440D01*
X50917919Y-94819279D01*
X50854598Y-94914044D01*
X49760752Y-94731994D01*
X49412337Y-94770187D01*
X49199533Y-94909977D01*
X49057083Y-95121010D01*
X49007020Y-95370650D01*
X49007020Y-97669350D01*
X49101895Y-98006768D01*
X49274724Y-98193735D01*
X49506280Y-98299605D01*
X49760752Y-98308006D01*
X53362472Y-97708566D01*
X53498303Y-97670373D01*
X53711107Y-97530583D01*
X53853557Y-97319550D01*
X53903620Y-97069910D01*
X53903620Y-95970090D01*
X53888245Y-95829832D01*
X53785290Y-95596965D01*
X53600506Y-95421803D01*
X53362472Y-95331434D01*
X52882551Y-95251560D01*
X53116192Y-95018327D01*
X53256535Y-94680344D01*
X53314360Y-94719377D01*
X53564000Y-94769440D01*
X54264000Y-94769440D01*
X54404129Y-94742251D01*
X55103737Y-95441859D01*
X55000893Y-95509417D01*
X54858443Y-95720450D01*
X54808380Y-95970090D01*
X54808380Y-97069910D01*
X54823755Y-97210168D01*
X54926710Y-97443035D01*
X55111494Y-97618197D01*
X55349528Y-97708566D01*
X58951248Y-98308006D01*
X59299663Y-98269813D01*
X59427452Y-98185868D01*
X59434724Y-98193735D01*
X59666280Y-98299605D01*
X59920752Y-98308006D01*
X63522472Y-97708566D01*
X63658303Y-97670373D01*
X63871107Y-97530583D01*
X64013557Y-97319550D01*
X64063620Y-97069910D01*
X64063620Y-98933000D01*
X48387000Y-98933000D01*
X48387000Y-73787000D01*
X78613000Y-73787000D01*
X78613000Y-98933000D01*
X78613000Y-98933000D01*
G37*
X78613000Y-98933000D02*
X77976000Y-98933000D01*
X77976000Y-96662000D01*
X77976000Y-93980000D01*
X77918148Y-93689161D01*
X77805975Y-93521281D01*
X77805975Y-88266944D01*
X77686836Y-88011000D01*
X76327000Y-88011000D01*
X76327000Y-89371367D01*
X76582946Y-89489983D01*
X77168379Y-89221188D01*
X77606385Y-88748818D01*
X77805975Y-88266944D01*
X77805975Y-93521281D01*
X77753401Y-93442599D01*
X76163401Y-91852599D01*
X76073000Y-91792195D01*
X76073000Y-89371367D01*
X76073000Y-88011000D01*
X74713164Y-88011000D01*
X74594025Y-88266944D01*
X74793615Y-88748818D01*
X75231621Y-89221188D01*
X75817054Y-89489983D01*
X76073000Y-89371367D01*
X76073000Y-91792195D01*
X75916839Y-91687852D01*
X75626000Y-91630000D01*
X74800185Y-91630000D01*
X74770673Y-91585073D01*
X74559640Y-91442623D01*
X74550469Y-91440783D01*
X74552123Y-91440463D01*
X74764927Y-91300673D01*
X74907377Y-91089640D01*
X74957440Y-90840000D01*
X74957440Y-90140000D01*
X74910463Y-89897877D01*
X74770673Y-89685073D01*
X74559640Y-89542623D01*
X74420000Y-89514619D01*
X74420000Y-88392000D01*
X74420000Y-87690802D01*
X74599018Y-87511783D01*
X74713164Y-87757000D01*
X76073000Y-87757000D01*
X76073000Y-87737000D01*
X76327000Y-87737000D01*
X76327000Y-87757000D01*
X77686836Y-87757000D01*
X77805975Y-87501056D01*
X77606385Y-87019182D01*
X77516425Y-86922164D01*
X77670927Y-86820673D01*
X77813377Y-86609640D01*
X77863440Y-86360000D01*
X77863440Y-84328000D01*
X77816463Y-84085877D01*
X77676673Y-83873073D01*
X77465640Y-83730623D01*
X77216000Y-83680560D01*
X75184000Y-83680560D01*
X74941877Y-83727537D01*
X74729073Y-83867327D01*
X74586623Y-84078360D01*
X74536560Y-84328000D01*
X74536560Y-85424638D01*
X73122599Y-86838599D01*
X73025242Y-86984304D01*
X73025242Y-81511339D01*
X72813010Y-80997697D01*
X72420370Y-80604371D01*
X72212487Y-80518050D01*
X72418303Y-80433010D01*
X72811629Y-80040370D01*
X73024757Y-79527100D01*
X73025242Y-78971339D01*
X72813010Y-78457697D01*
X72420370Y-78064371D01*
X72212487Y-77978050D01*
X72418303Y-77893010D01*
X72811629Y-77500370D01*
X73024757Y-76987100D01*
X73025242Y-76431339D01*
X72813010Y-75917697D01*
X72420370Y-75524371D01*
X71907100Y-75311243D01*
X71351339Y-75310758D01*
X70837697Y-75522990D01*
X70444371Y-75915630D01*
X70231243Y-76428900D01*
X70230758Y-76984661D01*
X70442990Y-77498303D01*
X70835630Y-77891629D01*
X71043512Y-77977949D01*
X70837697Y-78062990D01*
X70444371Y-78455630D01*
X70231243Y-78968900D01*
X70230758Y-79524661D01*
X70442990Y-80038303D01*
X70835630Y-80431629D01*
X71043512Y-80517949D01*
X70837697Y-80602990D01*
X70444371Y-80995630D01*
X70231243Y-81508900D01*
X70230758Y-82064661D01*
X70442990Y-82578303D01*
X70835630Y-82971629D01*
X71348900Y-83184757D01*
X71904661Y-83185242D01*
X72418303Y-82973010D01*
X72811629Y-82580370D01*
X73024757Y-82067100D01*
X73025242Y-81511339D01*
X73025242Y-86984304D01*
X72957852Y-87085161D01*
X72900000Y-87376000D01*
X72900000Y-87632000D01*
X72239000Y-87632000D01*
X72239000Y-86603310D01*
X72239000Y-86350691D01*
X72239000Y-86137750D01*
X72239000Y-85566250D01*
X72239000Y-85353309D01*
X72239000Y-85100690D01*
X72142327Y-84867301D01*
X71963698Y-84688673D01*
X71730309Y-84592000D01*
X71389750Y-84592000D01*
X71231000Y-84750750D01*
X71231000Y-85725000D01*
X72080250Y-85725000D01*
X72239000Y-85566250D01*
X72239000Y-86137750D01*
X72080250Y-85979000D01*
X71231000Y-85979000D01*
X71231000Y-86953250D01*
X71389750Y-87112000D01*
X71730309Y-87112000D01*
X71963698Y-87015327D01*
X72142327Y-86836699D01*
X72239000Y-86603310D01*
X72239000Y-87632000D01*
X68268995Y-87632000D01*
X68098811Y-87377302D01*
X67716725Y-87122000D01*
X68098811Y-86866698D01*
X68099651Y-86865439D01*
X68143327Y-86931927D01*
X68354360Y-87074377D01*
X68604000Y-87124440D01*
X69604000Y-87124440D01*
X69846123Y-87077463D01*
X70058927Y-86937673D01*
X70102337Y-86873362D01*
X70244302Y-87015327D01*
X70477691Y-87112000D01*
X70818250Y-87112000D01*
X70977000Y-86953250D01*
X70977000Y-85979000D01*
X70957000Y-85979000D01*
X70957000Y-85725000D01*
X70977000Y-85725000D01*
X70977000Y-84750750D01*
X70818250Y-84592000D01*
X70477691Y-84592000D01*
X70244302Y-84688673D01*
X70102823Y-84830150D01*
X70064673Y-84772073D01*
X69853640Y-84629623D01*
X69604000Y-84579560D01*
X69289961Y-84579560D01*
X69291746Y-84570586D01*
X69339999Y-84328000D01*
X69340000Y-84328000D01*
X69340000Y-78978930D01*
X69459663Y-78965813D01*
X69672467Y-78826023D01*
X69814917Y-78614990D01*
X69864980Y-78365350D01*
X69864980Y-76066650D01*
X69770105Y-75729232D01*
X69597276Y-75542265D01*
X69365720Y-75436395D01*
X69111248Y-75427994D01*
X68017401Y-75610044D01*
X67991106Y-75570691D01*
X67991162Y-75506833D01*
X67849117Y-75163057D01*
X67586327Y-74899808D01*
X67242799Y-74757162D01*
X66870833Y-74756838D01*
X66527057Y-74898883D01*
X66263808Y-75161673D01*
X66121162Y-75505201D01*
X66120838Y-75877167D01*
X66139598Y-75922570D01*
X65509528Y-76027434D01*
X65373697Y-76065627D01*
X65160893Y-76205417D01*
X65018443Y-76416450D01*
X64968380Y-76666090D01*
X64968380Y-77765910D01*
X64983755Y-77906168D01*
X65086710Y-78139035D01*
X65271494Y-78314197D01*
X65509528Y-78404566D01*
X67820000Y-78789101D01*
X67820000Y-82111006D01*
X67633264Y-81986233D01*
X67084113Y-81877000D01*
X67027887Y-81877000D01*
X66478736Y-81986233D01*
X66013189Y-82297302D01*
X65702120Y-82762849D01*
X65592887Y-83312000D01*
X65702120Y-83861151D01*
X66013189Y-84326698D01*
X66395274Y-84582000D01*
X66013189Y-84837302D01*
X65702120Y-85302849D01*
X65592887Y-85852000D01*
X65702120Y-86401151D01*
X66013189Y-86866698D01*
X66395274Y-87122000D01*
X66013189Y-87377302D01*
X65702120Y-87842849D01*
X65592887Y-88392000D01*
X65702120Y-88941151D01*
X66013189Y-89406698D01*
X66395274Y-89662000D01*
X66013189Y-89917302D01*
X65702120Y-90382849D01*
X65592887Y-90932000D01*
X65702120Y-91481151D01*
X66013189Y-91946698D01*
X66478736Y-92257767D01*
X67027887Y-92367000D01*
X67084113Y-92367000D01*
X67633264Y-92257767D01*
X68098811Y-91946698D01*
X68099651Y-91945439D01*
X68143327Y-92011927D01*
X68344000Y-92147383D01*
X68344000Y-92472000D01*
X68401852Y-92762839D01*
X68566599Y-93009401D01*
X69344000Y-93786802D01*
X69344000Y-93929889D01*
X69110327Y-93695808D01*
X68766799Y-93553162D01*
X68394833Y-93552838D01*
X68051057Y-93694883D01*
X67787808Y-93957673D01*
X67645162Y-94301201D01*
X67645121Y-94348076D01*
X66891821Y-95101376D01*
X65509528Y-95331434D01*
X65373697Y-95369627D01*
X65160893Y-95509417D01*
X65018443Y-95720450D01*
X64968380Y-95970090D01*
X64968380Y-97069910D01*
X64983755Y-97210168D01*
X65086710Y-97443035D01*
X65271494Y-97618197D01*
X65509528Y-97708566D01*
X69111248Y-98308006D01*
X69459663Y-98269813D01*
X69672467Y-98130023D01*
X69814917Y-97918990D01*
X69864980Y-97669350D01*
X69864980Y-96809495D01*
X69996161Y-96897148D01*
X70087560Y-96915328D01*
X70087560Y-97070000D01*
X70107282Y-97171652D01*
X70087560Y-97270000D01*
X70087560Y-97720000D01*
X70134537Y-97962123D01*
X70274327Y-98174927D01*
X70485360Y-98317377D01*
X70735000Y-98367440D01*
X72185000Y-98367440D01*
X72427123Y-98320463D01*
X72639927Y-98180673D01*
X72782377Y-97969640D01*
X72832440Y-97720000D01*
X72832440Y-97270000D01*
X72812717Y-97168347D01*
X72832440Y-97070000D01*
X72832440Y-96620000D01*
X72812717Y-96518347D01*
X72832440Y-96420000D01*
X72832440Y-95970000D01*
X72812717Y-95868347D01*
X72832440Y-95770000D01*
X72832440Y-95320000D01*
X72785463Y-95077877D01*
X72645673Y-94865073D01*
X72434640Y-94722623D01*
X72185000Y-94672560D01*
X70864000Y-94672560D01*
X70864000Y-93472000D01*
X70806148Y-93181161D01*
X70641401Y-92934599D01*
X69864000Y-92157198D01*
X69864000Y-92145719D01*
X70058927Y-92017673D01*
X70103613Y-91951471D01*
X70143327Y-92011927D01*
X70354360Y-92154377D01*
X70604000Y-92204440D01*
X70809638Y-92204440D01*
X71532599Y-92927401D01*
X71779160Y-93092148D01*
X71779161Y-93092148D01*
X72070000Y-93150000D01*
X72519814Y-93150000D01*
X72549327Y-93194927D01*
X72760360Y-93337377D01*
X73010000Y-93387440D01*
X74310000Y-93387440D01*
X74552123Y-93340463D01*
X74764927Y-93200673D01*
X74799131Y-93150000D01*
X75311198Y-93150000D01*
X76456000Y-94294802D01*
X76456000Y-94672560D01*
X75135000Y-94672560D01*
X74892877Y-94719537D01*
X74680073Y-94859327D01*
X74537623Y-95070360D01*
X74487560Y-95320000D01*
X74487560Y-95770000D01*
X74501264Y-95840636D01*
X74500000Y-95843690D01*
X74500000Y-95923750D01*
X74521577Y-95945327D01*
X74534537Y-96012123D01*
X74655321Y-96195994D01*
X74537623Y-96370360D01*
X74523006Y-96443243D01*
X74500000Y-96466250D01*
X74500000Y-96546310D01*
X74501575Y-96550112D01*
X74487560Y-96620000D01*
X74487560Y-97070000D01*
X74507282Y-97171652D01*
X74487560Y-97270000D01*
X74487560Y-97720000D01*
X74534537Y-97962123D01*
X74674327Y-98174927D01*
X74885360Y-98317377D01*
X75135000Y-98367440D01*
X76585000Y-98367440D01*
X76827123Y-98320463D01*
X77039927Y-98180673D01*
X77182377Y-97969640D01*
X77232440Y-97720000D01*
X77232440Y-97565328D01*
X77323839Y-97547148D01*
X77570401Y-97382401D01*
X77753401Y-97199401D01*
X77918148Y-96952839D01*
X77976000Y-96662000D01*
X77976000Y-98933000D01*
X64063620Y-98933000D01*
X64063620Y-97069910D01*
X64063620Y-95970090D01*
X64048245Y-95829832D01*
X63945290Y-95596965D01*
X63760506Y-95421803D01*
X63522472Y-95331434D01*
X59920752Y-94731994D01*
X59572337Y-94770187D01*
X59444547Y-94854131D01*
X59437276Y-94846265D01*
X59205720Y-94740395D01*
X58951248Y-94731994D01*
X58263409Y-94846471D01*
X58440943Y-94773117D01*
X58704192Y-94510327D01*
X58846838Y-94166799D01*
X58847162Y-93794833D01*
X58705117Y-93451057D01*
X58442327Y-93187808D01*
X58098799Y-93045162D01*
X57726833Y-93044838D01*
X57383057Y-93186883D01*
X57119808Y-93449673D01*
X56977162Y-93793201D01*
X56977121Y-93840076D01*
X56799000Y-94018198D01*
X56799000Y-93995691D01*
X56799000Y-93757750D01*
X56640250Y-93599000D01*
X55941000Y-93599000D01*
X55941000Y-93619000D01*
X55687000Y-93619000D01*
X55687000Y-93599000D01*
X55667000Y-93599000D01*
X55667000Y-93345000D01*
X55687000Y-93345000D01*
X55687000Y-93325000D01*
X55941000Y-93325000D01*
X55941000Y-93345000D01*
X56640250Y-93345000D01*
X56799000Y-93186250D01*
X56799000Y-92948309D01*
X56799000Y-92695690D01*
X56702327Y-92462301D01*
X56523698Y-92283673D01*
X56332412Y-92204440D01*
X56364000Y-92204440D01*
X56606123Y-92157463D01*
X56818927Y-92017673D01*
X56920618Y-91867022D01*
X57081167Y-91867162D01*
X57424943Y-91725117D01*
X57458117Y-91692000D01*
X58223004Y-91692000D01*
X58393189Y-91946698D01*
X58858736Y-92257767D01*
X59407887Y-92367000D01*
X59464113Y-92367000D01*
X60013264Y-92257767D01*
X60478811Y-91946698D01*
X60789880Y-91481151D01*
X60899113Y-90932000D01*
X60789880Y-90382849D01*
X60478811Y-89917302D01*
X60096725Y-89662000D01*
X60478811Y-89406698D01*
X60789880Y-88941151D01*
X60899113Y-88392000D01*
X60789880Y-87842849D01*
X60478811Y-87377302D01*
X60096725Y-87122000D01*
X60478811Y-86866698D01*
X60789880Y-86401151D01*
X60899113Y-85852000D01*
X60789880Y-85302849D01*
X60478811Y-84837302D01*
X60096725Y-84582000D01*
X60478811Y-84326698D01*
X60789880Y-83861151D01*
X60899113Y-83312000D01*
X60789880Y-82762849D01*
X60478811Y-82297302D01*
X60013264Y-81986233D01*
X59464113Y-81877000D01*
X59407887Y-81877000D01*
X58858736Y-81986233D01*
X58835698Y-82001626D01*
X58846838Y-81974799D01*
X58847162Y-81602833D01*
X58705117Y-81259057D01*
X58457363Y-81010871D01*
X58212845Y-78881112D01*
X58951248Y-79004006D01*
X59299663Y-78965813D01*
X59427452Y-78881868D01*
X59434724Y-78889735D01*
X59666280Y-78995605D01*
X59920752Y-79004006D01*
X63522472Y-78404566D01*
X63658303Y-78366373D01*
X63871107Y-78226583D01*
X64013557Y-78015550D01*
X64063620Y-77765910D01*
X64063620Y-76666090D01*
X64048245Y-76525832D01*
X63945290Y-76292965D01*
X63760506Y-76117803D01*
X63522472Y-76027434D01*
X59920752Y-75427994D01*
X59572337Y-75466187D01*
X59444547Y-75550131D01*
X59437276Y-75542265D01*
X59205720Y-75436395D01*
X58951248Y-75427994D01*
X55349528Y-76027434D01*
X55213697Y-76065627D01*
X55000893Y-76205417D01*
X54858443Y-76416450D01*
X54808380Y-76666090D01*
X54808380Y-77344818D01*
X53376599Y-78776599D01*
X53211852Y-79023161D01*
X53197516Y-79095228D01*
X53109073Y-79153327D01*
X53084000Y-79190471D01*
X53084000Y-78740000D01*
X53084000Y-78450912D01*
X53362472Y-78404566D01*
X53498303Y-78366373D01*
X53711107Y-78226583D01*
X53853557Y-78015550D01*
X53903620Y-77765910D01*
X53903620Y-76666090D01*
X53888245Y-76525832D01*
X53785290Y-76292965D01*
X53600506Y-76117803D01*
X53362472Y-76027434D01*
X49760752Y-75427994D01*
X49412337Y-75466187D01*
X49199533Y-75605977D01*
X49057083Y-75817010D01*
X49007020Y-76066650D01*
X49007020Y-78365350D01*
X49101895Y-78702768D01*
X49274724Y-78889735D01*
X49506280Y-78995605D01*
X49760752Y-79004006D01*
X51564000Y-78703888D01*
X51564000Y-78740000D01*
X51564000Y-79391326D01*
X51558234Y-79387474D01*
X50984745Y-79273400D01*
X50615255Y-79273400D01*
X50041766Y-79387474D01*
X49555585Y-79712330D01*
X49230729Y-80198511D01*
X49116655Y-80772000D01*
X49230729Y-81345489D01*
X49555585Y-81831670D01*
X49865069Y-82038460D01*
X49449268Y-82409964D01*
X49195291Y-82937209D01*
X49192642Y-82952974D01*
X49313783Y-83185000D01*
X50673000Y-83185000D01*
X50673000Y-83165000D01*
X50927000Y-83165000D01*
X50927000Y-83185000D01*
X50947000Y-83185000D01*
X50947000Y-83439000D01*
X50927000Y-83439000D01*
X50927000Y-83459000D01*
X50673000Y-83459000D01*
X50673000Y-83439000D01*
X49313783Y-83439000D01*
X49192642Y-83671026D01*
X49195291Y-83686791D01*
X49449268Y-84214036D01*
X49625701Y-84371673D01*
X49541877Y-84387937D01*
X49329073Y-84527727D01*
X49186623Y-84738760D01*
X49136560Y-84988400D01*
X49136560Y-86715600D01*
X49183537Y-86957723D01*
X49323327Y-87170527D01*
X49534360Y-87312977D01*
X49784000Y-87363040D01*
X51758677Y-87363040D01*
X50900128Y-88786483D01*
X50832345Y-88773000D01*
X50767655Y-88773000D01*
X50135845Y-88898675D01*
X49600222Y-89256567D01*
X49242330Y-89792190D01*
X49116655Y-90424000D01*
X49242330Y-91055810D01*
X49469169Y-91395298D01*
X49329073Y-91487327D01*
X49186623Y-91698360D01*
X49136560Y-91948000D01*
X49136560Y-93980000D01*
X49183537Y-94222123D01*
X49323327Y-94434927D01*
X49534360Y-94577377D01*
X49784000Y-94627440D01*
X51109758Y-94627440D01*
X50917919Y-94819279D01*
X50854598Y-94914044D01*
X49760752Y-94731994D01*
X49412337Y-94770187D01*
X49199533Y-94909977D01*
X49057083Y-95121010D01*
X49007020Y-95370650D01*
X49007020Y-97669350D01*
X49101895Y-98006768D01*
X49274724Y-98193735D01*
X49506280Y-98299605D01*
X49760752Y-98308006D01*
X53362472Y-97708566D01*
X53498303Y-97670373D01*
X53711107Y-97530583D01*
X53853557Y-97319550D01*
X53903620Y-97069910D01*
X53903620Y-95970090D01*
X53888245Y-95829832D01*
X53785290Y-95596965D01*
X53600506Y-95421803D01*
X53362472Y-95331434D01*
X52882551Y-95251560D01*
X53116192Y-95018327D01*
X53256535Y-94680344D01*
X53314360Y-94719377D01*
X53564000Y-94769440D01*
X54264000Y-94769440D01*
X54404129Y-94742251D01*
X55103737Y-95441859D01*
X55000893Y-95509417D01*
X54858443Y-95720450D01*
X54808380Y-95970090D01*
X54808380Y-97069910D01*
X54823755Y-97210168D01*
X54926710Y-97443035D01*
X55111494Y-97618197D01*
X55349528Y-97708566D01*
X58951248Y-98308006D01*
X59299663Y-98269813D01*
X59427452Y-98185868D01*
X59434724Y-98193735D01*
X59666280Y-98299605D01*
X59920752Y-98308006D01*
X63522472Y-97708566D01*
X63658303Y-97670373D01*
X63871107Y-97530583D01*
X64013557Y-97319550D01*
X64063620Y-97069910D01*
X64063620Y-98933000D01*
X48387000Y-98933000D01*
X48387000Y-73787000D01*
X78613000Y-73787000D01*
X78613000Y-98933000D01*
M02*
