G04 #@! TF.FileFunction,Copper,L2,Bot,Signal*
%FSLAX46Y46*%
G04 Gerber Fmt 4.6, Leading zero omitted, Abs format (unit mm)*
G04 Created by KiCad (PCBNEW (2015-05-28 BZR 5690)-product) date Tuesday, June 16, 2015 'PMt' 01:52:05 PM*
%MOMM*%
G01*
G04 APERTURE LIST*
%ADD10C,0.100000*%
%ADD11O,1.600000X1.600000*%
%ADD12R,1.250000X1.000000*%
%ADD13R,1.000000X1.250000*%
%ADD14R,0.700000X1.300000*%
%ADD15C,1.524000*%
%ADD16C,1.501140*%
%ADD17C,2.000000*%
%ADD18C,3.500000*%
%ADD19O,2.600000X4.300000*%
%ADD20R,1.300000X0.700000*%
%ADD21R,0.650000X1.060000*%
%ADD22O,2.540000X2.032000*%
%ADD23R,2.500000X2.500000*%
%ADD24O,2.500000X2.500000*%
%ADD25R,2.499360X1.800860*%
%ADD26R,2.235200X2.235200*%
%ADD27C,3.000000*%
%ADD28C,4.064000*%
%ADD29C,0.600000*%
%ADD30C,0.250000*%
%ADD31C,1.000000*%
%ADD32C,0.254000*%
G04 APERTURE END LIST*
D10*
D11*
X97790000Y-74295000D03*
X95250000Y-74295000D03*
X92710000Y-74295000D03*
X90170000Y-74295000D03*
X90170000Y-81915000D03*
X92710000Y-81915000D03*
X95250000Y-81915000D03*
X97790000Y-81915000D03*
D12*
X98425000Y-65135000D03*
X98425000Y-63135000D03*
X93980000Y-68310000D03*
X93980000Y-66310000D03*
D13*
X90535000Y-86360000D03*
X88535000Y-86360000D03*
D12*
X95250000Y-77740000D03*
X95250000Y-79740000D03*
D14*
X94295000Y-88900000D03*
X92395000Y-88900000D03*
D15*
X95885000Y-85725000D03*
X98425000Y-85725000D03*
X93345000Y-85725000D03*
D11*
X113665000Y-74295000D03*
X111125000Y-74295000D03*
X108585000Y-74295000D03*
X106045000Y-74295000D03*
X106045000Y-81915000D03*
X108585000Y-81915000D03*
X111125000Y-81915000D03*
X113665000Y-81915000D03*
D16*
X82296000Y-62992000D03*
X74676000Y-62992000D03*
X82296000Y-94488000D03*
X74676000Y-94488000D03*
D12*
X105791000Y-64500000D03*
X105791000Y-62500000D03*
X108585000Y-68310000D03*
X108585000Y-66310000D03*
D13*
X104505000Y-84455000D03*
X102505000Y-84455000D03*
D12*
X111125000Y-77740000D03*
X111125000Y-79740000D03*
D17*
X105235000Y-68250000D03*
D18*
X109235000Y-63500000D03*
D19*
X114385000Y-63500000D03*
D18*
X95235000Y-63500000D03*
D19*
X90085000Y-63500000D03*
D17*
X91235000Y-68250000D03*
X99108000Y-89230000D03*
D18*
X95108000Y-93980000D03*
D19*
X89958000Y-93980000D03*
D18*
X109108000Y-93980000D03*
D19*
X114258000Y-93980000D03*
D17*
X113108000Y-89230000D03*
D20*
X114935000Y-79055000D03*
X114935000Y-77155000D03*
D14*
X108265000Y-88265000D03*
X106365000Y-88265000D03*
D15*
X111125000Y-85725000D03*
X113665000Y-85725000D03*
X108585000Y-85725000D03*
D21*
X88585000Y-88435000D03*
X89535000Y-88435000D03*
X90485000Y-88435000D03*
X90485000Y-90635000D03*
X88585000Y-90635000D03*
D22*
X84328000Y-73152000D03*
X84328000Y-75692000D03*
X84328000Y-70612000D03*
X84328000Y-84836000D03*
X84328000Y-87376000D03*
X84328000Y-82296000D03*
D21*
X102555000Y-86530000D03*
X103505000Y-86530000D03*
X104455000Y-86530000D03*
X104455000Y-88730000D03*
X102555000Y-88730000D03*
D23*
X70485000Y-63500000D03*
D24*
X70485000Y-59500000D03*
D25*
X89441020Y-71120000D03*
X93438980Y-71120000D03*
X96426020Y-71120000D03*
X100423980Y-71120000D03*
X101058980Y-67310000D03*
X97061020Y-67310000D03*
X96426020Y-59690000D03*
X100423980Y-59690000D03*
X115028980Y-67310000D03*
X111031020Y-67310000D03*
X108043980Y-59690000D03*
X104046020Y-59690000D03*
X115028980Y-71120000D03*
X111031020Y-71120000D03*
X108043980Y-71120000D03*
X104046020Y-71120000D03*
D26*
X71120000Y-73660000D03*
D27*
X70738000Y-88900000D03*
X70738000Y-78740000D03*
X70738000Y-68580000D03*
D28*
X85725000Y-97155000D03*
X85725000Y-60960000D03*
D29*
X91440000Y-73025000D03*
X89535000Y-68580000D03*
X100965000Y-65405000D03*
X111760000Y-60325000D03*
X86360000Y-71120000D03*
X108585000Y-77470000D03*
X103505000Y-90170000D03*
X113030000Y-69215000D03*
X109855000Y-88265000D03*
X111125000Y-65405000D03*
D30*
X88171020Y-58961020D02*
X88265000Y-59055000D01*
X97061020Y-67310000D02*
X97061020Y-68486020D01*
X96520000Y-73025000D02*
X95250000Y-74295000D01*
X97790000Y-73025000D02*
X96520000Y-73025000D01*
X98425000Y-72390000D02*
X97790000Y-73025000D01*
X98425000Y-69850000D02*
X98425000Y-72390000D01*
X97061020Y-68486020D02*
X98425000Y-69850000D01*
X98425000Y-65135000D02*
X99330000Y-65135000D01*
X97790000Y-61595000D02*
X96426020Y-60231020D01*
X99695000Y-61595000D02*
X97790000Y-61595000D01*
X99695000Y-64770000D02*
X99695000Y-61595000D01*
X99330000Y-65135000D02*
X99695000Y-64770000D01*
X96426020Y-60231020D02*
X96426020Y-59690000D01*
X98425000Y-65135000D02*
X98425000Y-65946020D01*
X98425000Y-65946020D02*
X97061020Y-67310000D01*
X97061020Y-67310000D02*
X96012000Y-67310000D01*
X96553020Y-66802000D02*
X97061020Y-67310000D01*
X93438980Y-71120000D02*
X93345000Y-71120000D01*
X93345000Y-71120000D02*
X91440000Y-73025000D01*
X93980000Y-68310000D02*
X93980000Y-70578980D01*
X93980000Y-70578980D02*
X93438980Y-71120000D01*
X93438980Y-71120000D02*
X93438980Y-73566020D01*
X93438980Y-73566020D02*
X92710000Y-74295000D01*
X93438980Y-71120000D02*
X96426020Y-71120000D01*
X93920000Y-68250000D02*
X93980000Y-68310000D01*
X90170000Y-74295000D02*
X92075000Y-76200000D01*
X99695000Y-74930000D02*
X99695000Y-71848980D01*
X98425000Y-76200000D02*
X99695000Y-74930000D01*
X92075000Y-76200000D02*
X98425000Y-76200000D01*
X99695000Y-71848980D02*
X100423980Y-71120000D01*
X104046020Y-71120000D02*
X104046020Y-72296020D01*
X104046020Y-72296020D02*
X106045000Y-74295000D01*
X104046020Y-59690000D02*
X104046020Y-66768980D01*
X103505000Y-67310000D02*
X103505000Y-70578980D01*
X104046020Y-66768980D02*
X103505000Y-67310000D01*
X103505000Y-70578980D02*
X104046020Y-71120000D01*
X100423980Y-59690000D02*
X104046020Y-59690000D01*
X100423980Y-71120000D02*
X104046020Y-71120000D01*
X100423980Y-59690000D02*
X100457000Y-59690000D01*
X100423980Y-71120000D02*
X100423980Y-70578980D01*
X104046020Y-59690000D02*
X104013000Y-59690000D01*
X104521000Y-59690000D02*
X105283000Y-60452000D01*
X104046020Y-59690000D02*
X104521000Y-59690000D01*
X88535000Y-86360000D02*
X88535000Y-88385000D01*
X88535000Y-88385000D02*
X88585000Y-88435000D01*
X90170000Y-81915000D02*
X90170000Y-82550000D01*
X90170000Y-82550000D02*
X88535000Y-84185000D01*
X88535000Y-84185000D02*
X88535000Y-86360000D01*
X94295000Y-88900000D02*
X95250000Y-88900000D01*
X110898000Y-91440000D02*
X113108000Y-89230000D01*
X97790000Y-91440000D02*
X110898000Y-91440000D01*
X95250000Y-88900000D02*
X97790000Y-91440000D01*
X92710000Y-81915000D02*
X92710000Y-82550000D01*
X92710000Y-82550000D02*
X94615000Y-84455000D01*
X94615000Y-84455000D02*
X94615000Y-88580000D01*
X94615000Y-88580000D02*
X94295000Y-88900000D01*
X111125000Y-79740000D02*
X111125000Y-81915000D01*
X95250000Y-79740000D02*
X111125000Y-79740000D01*
X95250000Y-79740000D02*
X95250000Y-81915000D01*
X84328000Y-75692000D02*
X88392000Y-75692000D01*
X92440000Y-79740000D02*
X95250000Y-79740000D01*
X88392000Y-75692000D02*
X92440000Y-79740000D01*
X89441020Y-68673980D02*
X89441020Y-71120000D01*
X89535000Y-68580000D02*
X89441020Y-68673980D01*
X115028980Y-67310000D02*
X114300000Y-67310000D01*
X114300000Y-67310000D02*
X112395000Y-65405000D01*
X101058980Y-65498980D02*
X101058980Y-67310000D01*
X100965000Y-65405000D02*
X101058980Y-65498980D01*
X112395000Y-60960000D02*
X111760000Y-60325000D01*
X112395000Y-65405000D02*
X112395000Y-60960000D01*
X115028980Y-67310000D02*
X115028980Y-71120000D01*
X86360000Y-71120000D02*
X89441020Y-71120000D01*
X84328000Y-75692000D02*
X86360000Y-73660000D01*
X86360000Y-73660000D02*
X86360000Y-71120000D01*
X88949020Y-71612000D02*
X89441020Y-71120000D01*
X84328000Y-75692000D02*
X84582000Y-75692000D01*
X115028980Y-71120000D02*
X114046000Y-71120000D01*
X98425000Y-63135000D02*
X95600000Y-63135000D01*
X95600000Y-63135000D02*
X95235000Y-63500000D01*
X91235000Y-68250000D02*
X91235000Y-67515000D01*
X91235000Y-67515000D02*
X92440000Y-66310000D01*
X92440000Y-66310000D02*
X93980000Y-66310000D01*
X111125000Y-77740000D02*
X108855000Y-77740000D01*
X108855000Y-77740000D02*
X108585000Y-77470000D01*
X104455000Y-88730000D02*
X104455000Y-89220000D01*
X104455000Y-89220000D02*
X103505000Y-90170000D01*
X90485000Y-88435000D02*
X91930000Y-88435000D01*
X91930000Y-88435000D02*
X92395000Y-88900000D01*
X90535000Y-86360000D02*
X90535000Y-88385000D01*
X90535000Y-88385000D02*
X90485000Y-88435000D01*
X113665000Y-74295000D02*
X113665000Y-75885000D01*
X113665000Y-75885000D02*
X114935000Y-77155000D01*
X111031020Y-71120000D02*
X111031020Y-74201020D01*
X111031020Y-74201020D02*
X111125000Y-74295000D01*
X105791000Y-64500000D02*
X105791000Y-65151000D01*
X106680000Y-69756020D02*
X108043980Y-71120000D01*
X106680000Y-66040000D02*
X106680000Y-69756020D01*
X105791000Y-65151000D02*
X106680000Y-66040000D01*
X108043980Y-71120000D02*
X111031020Y-71120000D01*
X113030000Y-69215000D02*
X111125000Y-67310000D01*
X111125000Y-67310000D02*
X111031020Y-67310000D01*
X111031020Y-67310000D02*
X109855000Y-67310000D01*
X109855000Y-67310000D02*
X108855000Y-68310000D01*
X108855000Y-68310000D02*
X108585000Y-68310000D01*
X108043980Y-59690000D02*
X109855000Y-59690000D01*
X111760000Y-61595000D02*
X111760000Y-66581020D01*
X109855000Y-59690000D02*
X111760000Y-61595000D01*
X111760000Y-66581020D02*
X111031020Y-67310000D01*
X111031020Y-67403980D02*
X111031020Y-67310000D01*
X108043980Y-59690000D02*
X109093000Y-59690000D01*
X108535000Y-68260000D02*
X108585000Y-68310000D01*
X108585000Y-68310000D02*
X108585000Y-68326000D01*
X102505000Y-84455000D02*
X102505000Y-86480000D01*
X102505000Y-86480000D02*
X102555000Y-86530000D01*
X102505000Y-84455000D02*
X102505000Y-84185000D01*
X102505000Y-84185000D02*
X104775000Y-81915000D01*
X104775000Y-81915000D02*
X106045000Y-81915000D01*
X102489000Y-84455000D02*
X102505000Y-84455000D01*
X109855000Y-88265000D02*
X108265000Y-88265000D01*
X108265000Y-88265000D02*
X108265000Y-87310000D01*
X107315000Y-83185000D02*
X108585000Y-81915000D01*
X107315000Y-86360000D02*
X107315000Y-83185000D01*
X108265000Y-87310000D02*
X107315000Y-86360000D01*
X108585000Y-81915000D02*
X109093000Y-81915000D01*
X113665000Y-81915000D02*
X113665000Y-83185000D01*
X113665000Y-83185000D02*
X111125000Y-85725000D01*
X105791000Y-62500000D02*
X108235000Y-62500000D01*
X108235000Y-62500000D02*
X109235000Y-63500000D01*
X111125000Y-65405000D02*
X110490000Y-66040000D01*
X110490000Y-66040000D02*
X108855000Y-66040000D01*
X108855000Y-66040000D02*
X108585000Y-66310000D01*
X104505000Y-84455000D02*
X104505000Y-86480000D01*
X104505000Y-86480000D02*
X106290000Y-88265000D01*
X106290000Y-88265000D02*
X106365000Y-88265000D01*
X106365000Y-88707000D02*
X106365000Y-88265000D01*
X104505000Y-84471000D02*
X104505000Y-84455000D01*
D31*
X70485000Y-63500000D02*
X70485000Y-68327000D01*
X70485000Y-68327000D02*
X70738000Y-68580000D01*
D30*
X113665000Y-85725000D02*
X114935000Y-84455000D01*
X114935000Y-84455000D02*
X114935000Y-79055000D01*
D32*
G36*
X114175000Y-80553332D02*
X113665000Y-80451887D01*
X113115849Y-80561120D01*
X112650302Y-80872189D01*
X112395000Y-81254274D01*
X112139698Y-80872189D01*
X112042596Y-80807307D01*
X112204927Y-80700673D01*
X112347377Y-80489640D01*
X112397440Y-80240000D01*
X112397440Y-79240000D01*
X112350463Y-78997877D01*
X112210673Y-78785073D01*
X112146362Y-78741662D01*
X112288327Y-78599698D01*
X112385000Y-78366309D01*
X112385000Y-78025750D01*
X112385000Y-77454250D01*
X112385000Y-77113691D01*
X112288327Y-76880302D01*
X112109699Y-76701673D01*
X111876310Y-76605000D01*
X111623691Y-76605000D01*
X111410750Y-76605000D01*
X111252000Y-76763750D01*
X111252000Y-77613000D01*
X112226250Y-77613000D01*
X112385000Y-77454250D01*
X112385000Y-78025750D01*
X112226250Y-77867000D01*
X111252000Y-77867000D01*
X111252000Y-77887000D01*
X110998000Y-77887000D01*
X110998000Y-77867000D01*
X110998000Y-77613000D01*
X110998000Y-76763750D01*
X110839250Y-76605000D01*
X110626309Y-76605000D01*
X110373690Y-76605000D01*
X110140301Y-76701673D01*
X109961673Y-76880302D01*
X109865000Y-77113691D01*
X109865000Y-77454250D01*
X110023750Y-77613000D01*
X110998000Y-77613000D01*
X110998000Y-77867000D01*
X110023750Y-77867000D01*
X109865000Y-78025750D01*
X109865000Y-78366309D01*
X109961673Y-78599698D01*
X110103150Y-78741176D01*
X110045073Y-78779327D01*
X109909616Y-78980000D01*
X96463719Y-78980000D01*
X96335673Y-78785073D01*
X96271362Y-78741662D01*
X96413327Y-78599698D01*
X96510000Y-78366309D01*
X96510000Y-78025750D01*
X96351250Y-77867000D01*
X95377000Y-77867000D01*
X95377000Y-77887000D01*
X95123000Y-77887000D01*
X95123000Y-77867000D01*
X94148750Y-77867000D01*
X93990000Y-78025750D01*
X93990000Y-78366309D01*
X94086673Y-78599698D01*
X94228150Y-78741176D01*
X94170073Y-78779327D01*
X94034616Y-78980000D01*
X92754802Y-78980000D01*
X88929401Y-75154599D01*
X88682839Y-74989852D01*
X88392000Y-74932000D01*
X86162802Y-74932000D01*
X86897401Y-74197401D01*
X87062148Y-73950839D01*
X87120000Y-73660000D01*
X87120000Y-71880000D01*
X87543900Y-71880000D01*
X87543900Y-72020430D01*
X87590877Y-72262553D01*
X87730667Y-72475357D01*
X87941700Y-72617807D01*
X88191340Y-72667870D01*
X90575889Y-72667870D01*
X90505162Y-72838201D01*
X90505109Y-72898544D01*
X90170000Y-72831887D01*
X89620849Y-72941120D01*
X89155302Y-73252189D01*
X88844233Y-73717736D01*
X88735000Y-74266887D01*
X88735000Y-74323113D01*
X88844233Y-74872264D01*
X89155302Y-75337811D01*
X89620849Y-75648880D01*
X90170000Y-75758113D01*
X90493886Y-75693688D01*
X91537599Y-76737401D01*
X91784161Y-76902148D01*
X92075000Y-76960000D01*
X94053660Y-76960000D01*
X93990000Y-77113691D01*
X93990000Y-77454250D01*
X94148750Y-77613000D01*
X95123000Y-77613000D01*
X95123000Y-77593000D01*
X95377000Y-77593000D01*
X95377000Y-77613000D01*
X96351250Y-77613000D01*
X96510000Y-77454250D01*
X96510000Y-77113691D01*
X96446339Y-76960000D01*
X98425000Y-76960000D01*
X98715839Y-76902148D01*
X98962401Y-76737401D01*
X100232401Y-75467401D01*
X100397148Y-75220840D01*
X100397148Y-75220839D01*
X100455000Y-74930000D01*
X100455000Y-72667870D01*
X101673660Y-72667870D01*
X101915783Y-72620893D01*
X102128587Y-72481103D01*
X102235448Y-72322792D01*
X102335667Y-72475357D01*
X102546700Y-72617807D01*
X102796340Y-72667870D01*
X103398001Y-72667870D01*
X103508619Y-72833421D01*
X104665096Y-73989898D01*
X104610000Y-74266887D01*
X104610000Y-74323113D01*
X104719233Y-74872264D01*
X105030302Y-75337811D01*
X105495849Y-75648880D01*
X106045000Y-75758113D01*
X106594151Y-75648880D01*
X107059698Y-75337811D01*
X107315000Y-74955725D01*
X107570302Y-75337811D01*
X108035849Y-75648880D01*
X108585000Y-75758113D01*
X109134151Y-75648880D01*
X109599698Y-75337811D01*
X109855000Y-74955725D01*
X110110302Y-75337811D01*
X110575849Y-75648880D01*
X111125000Y-75758113D01*
X111674151Y-75648880D01*
X112139698Y-75337811D01*
X112395000Y-74955725D01*
X112650302Y-75337811D01*
X112905000Y-75507995D01*
X112905000Y-75885000D01*
X112962852Y-76175839D01*
X113127599Y-76422401D01*
X113637560Y-76932362D01*
X113637560Y-77505000D01*
X113684537Y-77747123D01*
X113824327Y-77959927D01*
X114035360Y-78102377D01*
X114044530Y-78104216D01*
X114042877Y-78104537D01*
X113830073Y-78244327D01*
X113687623Y-78455360D01*
X113637560Y-78705000D01*
X113637560Y-79405000D01*
X113684537Y-79647123D01*
X113824327Y-79859927D01*
X114035360Y-80002377D01*
X114175000Y-80030380D01*
X114175000Y-80553332D01*
X114175000Y-80553332D01*
G37*
X114175000Y-80553332D02*
X113665000Y-80451887D01*
X113115849Y-80561120D01*
X112650302Y-80872189D01*
X112395000Y-81254274D01*
X112139698Y-80872189D01*
X112042596Y-80807307D01*
X112204927Y-80700673D01*
X112347377Y-80489640D01*
X112397440Y-80240000D01*
X112397440Y-79240000D01*
X112350463Y-78997877D01*
X112210673Y-78785073D01*
X112146362Y-78741662D01*
X112288327Y-78599698D01*
X112385000Y-78366309D01*
X112385000Y-78025750D01*
X112385000Y-77454250D01*
X112385000Y-77113691D01*
X112288327Y-76880302D01*
X112109699Y-76701673D01*
X111876310Y-76605000D01*
X111623691Y-76605000D01*
X111410750Y-76605000D01*
X111252000Y-76763750D01*
X111252000Y-77613000D01*
X112226250Y-77613000D01*
X112385000Y-77454250D01*
X112385000Y-78025750D01*
X112226250Y-77867000D01*
X111252000Y-77867000D01*
X111252000Y-77887000D01*
X110998000Y-77887000D01*
X110998000Y-77867000D01*
X110998000Y-77613000D01*
X110998000Y-76763750D01*
X110839250Y-76605000D01*
X110626309Y-76605000D01*
X110373690Y-76605000D01*
X110140301Y-76701673D01*
X109961673Y-76880302D01*
X109865000Y-77113691D01*
X109865000Y-77454250D01*
X110023750Y-77613000D01*
X110998000Y-77613000D01*
X110998000Y-77867000D01*
X110023750Y-77867000D01*
X109865000Y-78025750D01*
X109865000Y-78366309D01*
X109961673Y-78599698D01*
X110103150Y-78741176D01*
X110045073Y-78779327D01*
X109909616Y-78980000D01*
X96463719Y-78980000D01*
X96335673Y-78785073D01*
X96271362Y-78741662D01*
X96413327Y-78599698D01*
X96510000Y-78366309D01*
X96510000Y-78025750D01*
X96351250Y-77867000D01*
X95377000Y-77867000D01*
X95377000Y-77887000D01*
X95123000Y-77887000D01*
X95123000Y-77867000D01*
X94148750Y-77867000D01*
X93990000Y-78025750D01*
X93990000Y-78366309D01*
X94086673Y-78599698D01*
X94228150Y-78741176D01*
X94170073Y-78779327D01*
X94034616Y-78980000D01*
X92754802Y-78980000D01*
X88929401Y-75154599D01*
X88682839Y-74989852D01*
X88392000Y-74932000D01*
X86162802Y-74932000D01*
X86897401Y-74197401D01*
X87062148Y-73950839D01*
X87120000Y-73660000D01*
X87120000Y-71880000D01*
X87543900Y-71880000D01*
X87543900Y-72020430D01*
X87590877Y-72262553D01*
X87730667Y-72475357D01*
X87941700Y-72617807D01*
X88191340Y-72667870D01*
X90575889Y-72667870D01*
X90505162Y-72838201D01*
X90505109Y-72898544D01*
X90170000Y-72831887D01*
X89620849Y-72941120D01*
X89155302Y-73252189D01*
X88844233Y-73717736D01*
X88735000Y-74266887D01*
X88735000Y-74323113D01*
X88844233Y-74872264D01*
X89155302Y-75337811D01*
X89620849Y-75648880D01*
X90170000Y-75758113D01*
X90493886Y-75693688D01*
X91537599Y-76737401D01*
X91784161Y-76902148D01*
X92075000Y-76960000D01*
X94053660Y-76960000D01*
X93990000Y-77113691D01*
X93990000Y-77454250D01*
X94148750Y-77613000D01*
X95123000Y-77613000D01*
X95123000Y-77593000D01*
X95377000Y-77593000D01*
X95377000Y-77613000D01*
X96351250Y-77613000D01*
X96510000Y-77454250D01*
X96510000Y-77113691D01*
X96446339Y-76960000D01*
X98425000Y-76960000D01*
X98715839Y-76902148D01*
X98962401Y-76737401D01*
X100232401Y-75467401D01*
X100397148Y-75220840D01*
X100397148Y-75220839D01*
X100455000Y-74930000D01*
X100455000Y-72667870D01*
X101673660Y-72667870D01*
X101915783Y-72620893D01*
X102128587Y-72481103D01*
X102235448Y-72322792D01*
X102335667Y-72475357D01*
X102546700Y-72617807D01*
X102796340Y-72667870D01*
X103398001Y-72667870D01*
X103508619Y-72833421D01*
X104665096Y-73989898D01*
X104610000Y-74266887D01*
X104610000Y-74323113D01*
X104719233Y-74872264D01*
X105030302Y-75337811D01*
X105495849Y-75648880D01*
X106045000Y-75758113D01*
X106594151Y-75648880D01*
X107059698Y-75337811D01*
X107315000Y-74955725D01*
X107570302Y-75337811D01*
X108035849Y-75648880D01*
X108585000Y-75758113D01*
X109134151Y-75648880D01*
X109599698Y-75337811D01*
X109855000Y-74955725D01*
X110110302Y-75337811D01*
X110575849Y-75648880D01*
X111125000Y-75758113D01*
X111674151Y-75648880D01*
X112139698Y-75337811D01*
X112395000Y-74955725D01*
X112650302Y-75337811D01*
X112905000Y-75507995D01*
X112905000Y-75885000D01*
X112962852Y-76175839D01*
X113127599Y-76422401D01*
X113637560Y-76932362D01*
X113637560Y-77505000D01*
X113684537Y-77747123D01*
X113824327Y-77959927D01*
X114035360Y-78102377D01*
X114044530Y-78104216D01*
X114042877Y-78104537D01*
X113830073Y-78244327D01*
X113687623Y-78455360D01*
X113637560Y-78705000D01*
X113637560Y-79405000D01*
X113684537Y-79647123D01*
X113824327Y-79859927D01*
X114035360Y-80002377D01*
X114175000Y-80030380D01*
X114175000Y-80553332D01*
G36*
X116155000Y-99645000D02*
X111498956Y-99645000D01*
X111498956Y-94423409D01*
X111486641Y-93474677D01*
X111147271Y-92655364D01*
X110802528Y-92465077D01*
X109287605Y-93980000D01*
X110802528Y-95494923D01*
X111147271Y-95304636D01*
X111498956Y-94423409D01*
X111498956Y-99645000D01*
X110622923Y-99645000D01*
X110622923Y-95674528D01*
X109108000Y-94159605D01*
X108928395Y-94339210D01*
X108928395Y-93980000D01*
X107413472Y-92465077D01*
X107068729Y-92655364D01*
X106717044Y-93536591D01*
X106729359Y-94485323D01*
X107068729Y-95304636D01*
X107413472Y-95494923D01*
X108928395Y-93980000D01*
X108928395Y-94339210D01*
X107593077Y-95674528D01*
X107783364Y-96019271D01*
X108664591Y-96370956D01*
X109613323Y-96358641D01*
X110432636Y-96019271D01*
X110622923Y-95674528D01*
X110622923Y-99645000D01*
X97498956Y-99645000D01*
X97498956Y-94423409D01*
X97486641Y-93474677D01*
X97147271Y-92655364D01*
X96802528Y-92465077D01*
X96622923Y-92644682D01*
X96622923Y-92285472D01*
X96432636Y-91940729D01*
X95551409Y-91589044D01*
X94602677Y-91601359D01*
X93783364Y-91940729D01*
X93593077Y-92285472D01*
X95108000Y-93800395D01*
X96622923Y-92285472D01*
X96622923Y-92644682D01*
X95287605Y-93980000D01*
X96802528Y-95494923D01*
X97147271Y-95304636D01*
X97498956Y-94423409D01*
X97498956Y-99645000D01*
X96622923Y-99645000D01*
X96622923Y-95674528D01*
X95108000Y-94159605D01*
X94928395Y-94339210D01*
X94928395Y-93980000D01*
X93413472Y-92465077D01*
X93068729Y-92655364D01*
X92717044Y-93536591D01*
X92729359Y-94485323D01*
X93068729Y-95304636D01*
X93413472Y-95494923D01*
X94928395Y-93980000D01*
X94928395Y-94339210D01*
X93593077Y-95674528D01*
X93783364Y-96019271D01*
X94664591Y-96370956D01*
X95613323Y-96358641D01*
X96432636Y-96019271D01*
X96622923Y-95674528D01*
X96622923Y-99645000D01*
X86682662Y-99645000D01*
X87233761Y-99417291D01*
X87984655Y-98667707D01*
X88391536Y-97687827D01*
X88392462Y-96626828D01*
X87987291Y-95646239D01*
X87237707Y-94895345D01*
X86270321Y-94493651D01*
X86270321Y-87376000D01*
X86144646Y-86744190D01*
X85786754Y-86208567D01*
X85633251Y-86106000D01*
X85786754Y-86003433D01*
X86144646Y-85467810D01*
X86270321Y-84836000D01*
X86144646Y-84204190D01*
X85786754Y-83668567D01*
X85612218Y-83551946D01*
X85839236Y-83373630D01*
X86155926Y-82810477D01*
X86187975Y-82678944D01*
X86187975Y-81913056D01*
X86155926Y-81781523D01*
X85839236Y-81218370D01*
X85331143Y-80819276D01*
X84709000Y-80645000D01*
X84455000Y-80645000D01*
X84455000Y-82169000D01*
X86068836Y-82169000D01*
X86187975Y-81913056D01*
X86187975Y-82678944D01*
X86068836Y-82423000D01*
X84455000Y-82423000D01*
X84455000Y-82443000D01*
X84201000Y-82443000D01*
X84201000Y-82423000D01*
X84201000Y-82169000D01*
X84201000Y-80645000D01*
X83947000Y-80645000D01*
X83324857Y-80819276D01*
X82816764Y-81218370D01*
X82500074Y-81781523D01*
X82468025Y-81913056D01*
X82587164Y-82169000D01*
X84201000Y-82169000D01*
X84201000Y-82423000D01*
X82587164Y-82423000D01*
X82468025Y-82678944D01*
X82500074Y-82810477D01*
X82816764Y-83373630D01*
X83043781Y-83551946D01*
X82869246Y-83668567D01*
X82511354Y-84204190D01*
X82385679Y-84836000D01*
X82511354Y-85467810D01*
X82869246Y-86003433D01*
X83022748Y-86106000D01*
X82869246Y-86208567D01*
X82511354Y-86744190D01*
X82385679Y-87376000D01*
X82511354Y-88007810D01*
X82869246Y-88543433D01*
X83404869Y-88901325D01*
X84036679Y-89027000D01*
X84619321Y-89027000D01*
X85251131Y-88901325D01*
X85786754Y-88543433D01*
X86144646Y-88007810D01*
X86270321Y-87376000D01*
X86270321Y-94493651D01*
X86257827Y-94488464D01*
X85196828Y-94487538D01*
X84216239Y-94892709D01*
X83681810Y-95426205D01*
X83681810Y-94213602D01*
X83471314Y-93704163D01*
X83081887Y-93314056D01*
X82572816Y-93102671D01*
X82021602Y-93102190D01*
X81512163Y-93312686D01*
X81122056Y-93702113D01*
X80910671Y-94211184D01*
X80910190Y-94762398D01*
X81120686Y-95271837D01*
X81510113Y-95661944D01*
X82019184Y-95873329D01*
X82570398Y-95873810D01*
X83079837Y-95663314D01*
X83469944Y-95273887D01*
X83681329Y-94764816D01*
X83681810Y-94213602D01*
X83681810Y-95426205D01*
X83465345Y-95642293D01*
X83058464Y-96622173D01*
X83057538Y-97683172D01*
X83462709Y-98663761D01*
X84212293Y-99414655D01*
X84767026Y-99645000D01*
X76073767Y-99645000D01*
X76073767Y-94692966D01*
X76061810Y-94457561D01*
X76061810Y-62717602D01*
X75851314Y-62208163D01*
X75461887Y-61818056D01*
X74952816Y-61606671D01*
X74401602Y-61606190D01*
X73892163Y-61816686D01*
X73502056Y-62206113D01*
X73290671Y-62715184D01*
X73290190Y-63266398D01*
X73500686Y-63775837D01*
X73890113Y-64165944D01*
X74399184Y-64377329D01*
X74950398Y-64377810D01*
X75459837Y-64167314D01*
X75849944Y-63777887D01*
X76061329Y-63268816D01*
X76061810Y-62717602D01*
X76061810Y-94457561D01*
X76045805Y-94142462D01*
X75888931Y-93763735D01*
X75647930Y-93695675D01*
X75468325Y-93875280D01*
X75468325Y-93516070D01*
X75400265Y-93275069D01*
X74880966Y-93090233D01*
X74330462Y-93118195D01*
X73951735Y-93275069D01*
X73883675Y-93516070D01*
X74676000Y-94308395D01*
X75468325Y-93516070D01*
X75468325Y-93875280D01*
X74855605Y-94488000D01*
X75647930Y-95280325D01*
X75888931Y-95212265D01*
X76073767Y-94692966D01*
X76073767Y-99645000D01*
X75468325Y-99645000D01*
X75468325Y-95459930D01*
X74676000Y-94667605D01*
X74496395Y-94847210D01*
X74496395Y-94488000D01*
X73704070Y-93695675D01*
X73463069Y-93763735D01*
X73278233Y-94283034D01*
X73306195Y-94833538D01*
X73463069Y-95212265D01*
X73704070Y-95280325D01*
X74496395Y-94488000D01*
X74496395Y-94847210D01*
X73883675Y-95459930D01*
X73951735Y-95700931D01*
X74471034Y-95885767D01*
X75021538Y-95857805D01*
X75400265Y-95700931D01*
X75468325Y-95459930D01*
X75468325Y-99645000D01*
X72885040Y-99645000D01*
X72885040Y-74777600D01*
X72885040Y-72542400D01*
X72873370Y-72482251D01*
X72873370Y-68157185D01*
X72549020Y-67372200D01*
X71948959Y-66771091D01*
X71620000Y-66634495D01*
X71620000Y-65397440D01*
X71735000Y-65397440D01*
X71977123Y-65350463D01*
X72189927Y-65210673D01*
X72332377Y-64999640D01*
X72382440Y-64750000D01*
X72382440Y-62250000D01*
X72335463Y-62007877D01*
X72195673Y-61795073D01*
X71984640Y-61652623D01*
X71735000Y-61602560D01*
X69235000Y-61602560D01*
X68992877Y-61649537D01*
X68780073Y-61789327D01*
X68637623Y-62000360D01*
X68587560Y-62250000D01*
X68587560Y-64750000D01*
X68634537Y-64992123D01*
X68774327Y-65204927D01*
X68985360Y-65347377D01*
X69235000Y-65397440D01*
X69350000Y-65397440D01*
X69350000Y-66948865D01*
X68929091Y-67369041D01*
X68603372Y-68153459D01*
X68602630Y-69002815D01*
X68926980Y-69787800D01*
X69527041Y-70388909D01*
X70311459Y-70714628D01*
X71160815Y-70715370D01*
X71945800Y-70391020D01*
X72546909Y-69790959D01*
X72872628Y-69006541D01*
X72873370Y-68157185D01*
X72873370Y-72482251D01*
X72838063Y-72300277D01*
X72698273Y-72087473D01*
X72487240Y-71945023D01*
X72237600Y-71894960D01*
X70002400Y-71894960D01*
X69760277Y-71941937D01*
X69547473Y-72081727D01*
X69405023Y-72292760D01*
X69354960Y-72542400D01*
X69354960Y-74777600D01*
X69401937Y-75019723D01*
X69541727Y-75232527D01*
X69752760Y-75374977D01*
X70002400Y-75425040D01*
X72237600Y-75425040D01*
X72479723Y-75378063D01*
X72692527Y-75238273D01*
X72834977Y-75027240D01*
X72885040Y-74777600D01*
X72885040Y-99645000D01*
X72880723Y-99645000D01*
X72880723Y-79123813D01*
X72864497Y-78274613D01*
X72570739Y-77565418D01*
X72251970Y-77405635D01*
X72072365Y-77585240D01*
X72072365Y-77226030D01*
X71912582Y-76907261D01*
X71121813Y-76597277D01*
X70272613Y-76613503D01*
X69563418Y-76907261D01*
X69403635Y-77226030D01*
X70738000Y-78560395D01*
X72072365Y-77226030D01*
X72072365Y-77585240D01*
X70917605Y-78740000D01*
X72251970Y-80074365D01*
X72570739Y-79914582D01*
X72880723Y-79123813D01*
X72880723Y-99645000D01*
X72873370Y-99645000D01*
X72873370Y-88477185D01*
X72549020Y-87692200D01*
X72072365Y-87214712D01*
X72072365Y-80253970D01*
X70738000Y-78919605D01*
X70558395Y-79099210D01*
X70558395Y-78740000D01*
X69224030Y-77405635D01*
X68905261Y-77565418D01*
X68595277Y-78356187D01*
X68611503Y-79205387D01*
X68905261Y-79914582D01*
X69224030Y-80074365D01*
X70558395Y-78740000D01*
X70558395Y-79099210D01*
X69403635Y-80253970D01*
X69563418Y-80572739D01*
X70354187Y-80882723D01*
X71203387Y-80866497D01*
X71912582Y-80572739D01*
X72072365Y-80253970D01*
X72072365Y-87214712D01*
X71948959Y-87091091D01*
X71164541Y-86765372D01*
X70315185Y-86764630D01*
X69530200Y-87088980D01*
X68929091Y-87689041D01*
X68603372Y-88473459D01*
X68602630Y-89322815D01*
X68926980Y-90107800D01*
X69527041Y-90708909D01*
X70311459Y-91034628D01*
X71160815Y-91035370D01*
X71945800Y-90711020D01*
X72546909Y-90110959D01*
X72872628Y-89326541D01*
X72873370Y-88477185D01*
X72873370Y-99645000D01*
X67995000Y-99645000D01*
X67995000Y-57835000D01*
X69612203Y-57835000D01*
X69115175Y-58167104D01*
X68706558Y-58778642D01*
X68563071Y-59500000D01*
X68706558Y-60221358D01*
X69115175Y-60832896D01*
X69726713Y-61241513D01*
X70448071Y-61385000D01*
X70521929Y-61385000D01*
X71243287Y-61241513D01*
X71854825Y-60832896D01*
X72263442Y-60221358D01*
X72406929Y-59500000D01*
X72263442Y-58778642D01*
X71854825Y-58167104D01*
X71357796Y-57835000D01*
X116155000Y-57835000D01*
X116155000Y-61828446D01*
X115753252Y-61227187D01*
X115125492Y-60807732D01*
X114385000Y-60660439D01*
X113644508Y-60807732D01*
X113155000Y-61134810D01*
X113155000Y-60960000D01*
X113097148Y-60669161D01*
X112932401Y-60422599D01*
X112695122Y-60185320D01*
X112695162Y-60139833D01*
X112553117Y-59796057D01*
X112290327Y-59532808D01*
X111946799Y-59390162D01*
X111574833Y-59389838D01*
X111231057Y-59531883D01*
X111001170Y-59761368D01*
X110392401Y-59152599D01*
X110145839Y-58987852D01*
X109941100Y-58947126D01*
X109941100Y-58789570D01*
X109894123Y-58547447D01*
X109754333Y-58334643D01*
X109543300Y-58192193D01*
X109293660Y-58142130D01*
X106794300Y-58142130D01*
X106552177Y-58189107D01*
X106339373Y-58328897D01*
X106196923Y-58539930D01*
X106146860Y-58789570D01*
X106146860Y-60590430D01*
X106193837Y-60832553D01*
X106333627Y-61045357D01*
X106544660Y-61187807D01*
X106794300Y-61237870D01*
X108464307Y-61237870D01*
X107885771Y-61476916D01*
X107622227Y-61740000D01*
X107004719Y-61740000D01*
X106876673Y-61545073D01*
X106665640Y-61402623D01*
X106416000Y-61352560D01*
X105166000Y-61352560D01*
X104923877Y-61399537D01*
X104806020Y-61476956D01*
X104806020Y-61237870D01*
X105295700Y-61237870D01*
X105537823Y-61190893D01*
X105750627Y-61051103D01*
X105769169Y-61023632D01*
X105820401Y-60989401D01*
X105985148Y-60742840D01*
X106043000Y-60452000D01*
X105985148Y-60161161D01*
X105943140Y-60098291D01*
X105943140Y-58789570D01*
X105896163Y-58547447D01*
X105756373Y-58334643D01*
X105545340Y-58192193D01*
X105295700Y-58142130D01*
X102796340Y-58142130D01*
X102554217Y-58189107D01*
X102341413Y-58328897D01*
X102234551Y-58487207D01*
X102134333Y-58334643D01*
X101923300Y-58192193D01*
X101673660Y-58142130D01*
X99174300Y-58142130D01*
X98932177Y-58189107D01*
X98719373Y-58328897D01*
X98576923Y-58539930D01*
X98526860Y-58789570D01*
X98526860Y-60590430D01*
X98573837Y-60832553D01*
X98575444Y-60835000D01*
X98274093Y-60835000D01*
X98323140Y-60590430D01*
X98323140Y-58789570D01*
X98276163Y-58547447D01*
X98136373Y-58334643D01*
X97925340Y-58192193D01*
X97675700Y-58142130D01*
X95176340Y-58142130D01*
X94934217Y-58189107D01*
X94721413Y-58328897D01*
X94578963Y-58539930D01*
X94528900Y-58789570D01*
X94528900Y-60590430D01*
X94575877Y-60832553D01*
X94715667Y-61045357D01*
X94818299Y-61114635D01*
X94762675Y-61114587D01*
X93885771Y-61476916D01*
X93214274Y-62147242D01*
X92850415Y-63023513D01*
X92849587Y-63972325D01*
X93211916Y-64849229D01*
X93524700Y-65162560D01*
X93355000Y-65162560D01*
X93112877Y-65209537D01*
X92900073Y-65349327D01*
X92764616Y-65550000D01*
X92440000Y-65550000D01*
X92149160Y-65607852D01*
X92020000Y-65694154D01*
X92020000Y-64404561D01*
X92020000Y-62595439D01*
X91872707Y-61854947D01*
X91453252Y-61227187D01*
X90825492Y-60807732D01*
X90085000Y-60660439D01*
X89344508Y-60807732D01*
X89025000Y-61021220D01*
X89025000Y-59055000D01*
X88967148Y-58764161D01*
X88802401Y-58517599D01*
X88708421Y-58423619D01*
X88461859Y-58258872D01*
X88171020Y-58201020D01*
X87880181Y-58258872D01*
X87633619Y-58423619D01*
X87468872Y-58670181D01*
X87425459Y-58888426D01*
X87237707Y-58700345D01*
X86257827Y-58293464D01*
X85196828Y-58292538D01*
X84216239Y-58697709D01*
X83465345Y-59447293D01*
X83058464Y-60427173D01*
X83057538Y-61488172D01*
X83248361Y-61949999D01*
X83203377Y-61905015D01*
X83088324Y-62020067D01*
X83020265Y-61779069D01*
X82500966Y-61594233D01*
X81950462Y-61622195D01*
X81571735Y-61779069D01*
X81503675Y-62020070D01*
X82296000Y-62812395D01*
X82310142Y-62798252D01*
X82489747Y-62977857D01*
X82475605Y-62992000D01*
X83267930Y-63784325D01*
X83508931Y-63716265D01*
X83693767Y-63196966D01*
X83667183Y-62673592D01*
X84212293Y-63219655D01*
X85192173Y-63626536D01*
X86253172Y-63627462D01*
X87233761Y-63222291D01*
X87984655Y-62472707D01*
X88391536Y-61492827D01*
X88392462Y-60431828D01*
X88126184Y-59787387D01*
X88265000Y-59815000D01*
X88555840Y-59757148D01*
X88802401Y-59592401D01*
X88967148Y-59345840D01*
X89025000Y-59055000D01*
X89025000Y-61021220D01*
X88716748Y-61227187D01*
X88297293Y-61854947D01*
X88150000Y-62595439D01*
X88150000Y-64404561D01*
X88297293Y-65145053D01*
X88716748Y-65772813D01*
X89344508Y-66192268D01*
X90085000Y-66339561D01*
X90825492Y-66192268D01*
X91453252Y-65772813D01*
X91872707Y-65145053D01*
X92020000Y-64404561D01*
X92020000Y-65694154D01*
X91902599Y-65772599D01*
X91060351Y-66614846D01*
X90911205Y-66614716D01*
X90310057Y-66863106D01*
X89849722Y-67322637D01*
X89715800Y-67645156D01*
X89349833Y-67644838D01*
X89006057Y-67786883D01*
X88742808Y-68049673D01*
X88600162Y-68393201D01*
X88599838Y-68765167D01*
X88681020Y-68961642D01*
X88681020Y-69572130D01*
X88191340Y-69572130D01*
X87949217Y-69619107D01*
X87736413Y-69758897D01*
X87593963Y-69969930D01*
X87543900Y-70219570D01*
X87543900Y-70360000D01*
X86922462Y-70360000D01*
X86890327Y-70327808D01*
X86546799Y-70185162D01*
X86185354Y-70184847D01*
X86144646Y-69980190D01*
X85786754Y-69444567D01*
X85251131Y-69086675D01*
X84619321Y-68961000D01*
X84036679Y-68961000D01*
X83404869Y-69086675D01*
X83088325Y-69298183D01*
X83088325Y-63963930D01*
X82296000Y-63171605D01*
X82116395Y-63351210D01*
X82116395Y-62992000D01*
X81324070Y-62199675D01*
X81083069Y-62267735D01*
X80898233Y-62787034D01*
X80926195Y-63337538D01*
X81083069Y-63716265D01*
X81324070Y-63784325D01*
X82116395Y-62992000D01*
X82116395Y-63351210D01*
X81503675Y-63963930D01*
X81571735Y-64204931D01*
X82091034Y-64389767D01*
X82641538Y-64361805D01*
X83020265Y-64204931D01*
X83088325Y-63963930D01*
X83088325Y-69298183D01*
X82869246Y-69444567D01*
X82511354Y-69980190D01*
X82385679Y-70612000D01*
X82511354Y-71243810D01*
X82869246Y-71779433D01*
X83043781Y-71896053D01*
X82816764Y-72074370D01*
X82500074Y-72637523D01*
X82468025Y-72769056D01*
X82587164Y-73025000D01*
X84201000Y-73025000D01*
X84201000Y-73005000D01*
X84455000Y-73005000D01*
X84455000Y-73025000D01*
X84475000Y-73025000D01*
X84475000Y-73279000D01*
X84455000Y-73279000D01*
X84455000Y-73299000D01*
X84201000Y-73299000D01*
X84201000Y-73279000D01*
X82587164Y-73279000D01*
X82468025Y-73534944D01*
X82500074Y-73666477D01*
X82816764Y-74229630D01*
X83043781Y-74407946D01*
X82869246Y-74524567D01*
X82511354Y-75060190D01*
X82385679Y-75692000D01*
X82511354Y-76323810D01*
X82869246Y-76859433D01*
X83404869Y-77217325D01*
X84036679Y-77343000D01*
X84619321Y-77343000D01*
X85251131Y-77217325D01*
X85786754Y-76859433D01*
X86058992Y-76452000D01*
X88077197Y-76452000D01*
X91902599Y-80277402D01*
X92149161Y-80442148D01*
X92440000Y-80500000D01*
X92468119Y-80500000D01*
X92160849Y-80561120D01*
X91695302Y-80872189D01*
X91440000Y-81254274D01*
X91184698Y-80872189D01*
X90719151Y-80561120D01*
X90170000Y-80451887D01*
X89620849Y-80561120D01*
X89155302Y-80872189D01*
X88844233Y-81337736D01*
X88735000Y-81886887D01*
X88735000Y-81943113D01*
X88844233Y-82492264D01*
X88967881Y-82677316D01*
X87997599Y-83647599D01*
X87832852Y-83894161D01*
X87775000Y-84185000D01*
X87775000Y-85146280D01*
X87580073Y-85274327D01*
X87437623Y-85485360D01*
X87387560Y-85735000D01*
X87387560Y-86985000D01*
X87434537Y-87227123D01*
X87574327Y-87439927D01*
X87734885Y-87548306D01*
X87662623Y-87655360D01*
X87612560Y-87905000D01*
X87612560Y-88965000D01*
X87659537Y-89207123D01*
X87799327Y-89419927D01*
X87970640Y-89535566D01*
X87805073Y-89644327D01*
X87662623Y-89855360D01*
X87612560Y-90105000D01*
X87612560Y-91165000D01*
X87659537Y-91407123D01*
X87799327Y-91619927D01*
X88010360Y-91762377D01*
X88260000Y-91812440D01*
X88519420Y-91812440D01*
X88170293Y-92334947D01*
X88023000Y-93075439D01*
X88023000Y-94884561D01*
X88170293Y-95625053D01*
X88589748Y-96252813D01*
X89217508Y-96672268D01*
X89958000Y-96819561D01*
X90698492Y-96672268D01*
X91326252Y-96252813D01*
X91745707Y-95625053D01*
X91893000Y-94884561D01*
X91893000Y-93075439D01*
X91745707Y-92334947D01*
X91326252Y-91707187D01*
X91230091Y-91642934D01*
X91348327Y-91524698D01*
X91445000Y-91291309D01*
X91445000Y-90920750D01*
X91286250Y-90762000D01*
X90612000Y-90762000D01*
X90612000Y-90782000D01*
X90358000Y-90782000D01*
X90358000Y-90762000D01*
X90338000Y-90762000D01*
X90338000Y-90508000D01*
X90358000Y-90508000D01*
X90358000Y-90488000D01*
X90612000Y-90488000D01*
X90612000Y-90508000D01*
X91286250Y-90508000D01*
X91445000Y-90349250D01*
X91445000Y-89978691D01*
X91348327Y-89745302D01*
X91169699Y-89566673D01*
X91096461Y-89536337D01*
X91264927Y-89425673D01*
X91397560Y-89229183D01*
X91397560Y-89550000D01*
X91444537Y-89792123D01*
X91584327Y-90004927D01*
X91795360Y-90147377D01*
X92045000Y-90197440D01*
X92745000Y-90197440D01*
X92987123Y-90150463D01*
X93199927Y-90010673D01*
X93342377Y-89799640D01*
X93344216Y-89790469D01*
X93344537Y-89792123D01*
X93484327Y-90004927D01*
X93695360Y-90147377D01*
X93945000Y-90197440D01*
X94645000Y-90197440D01*
X94887123Y-90150463D01*
X95099927Y-90010673D01*
X95174860Y-89899662D01*
X97252599Y-91977401D01*
X97499160Y-92142148D01*
X97499161Y-92142148D01*
X97547413Y-92151746D01*
X97790000Y-92200000D01*
X107640254Y-92200000D01*
X107593077Y-92285472D01*
X109108000Y-93800395D01*
X110622923Y-92285472D01*
X110575745Y-92200000D01*
X110898000Y-92200000D01*
X111188839Y-92142148D01*
X111435401Y-91977401D01*
X112616527Y-90796274D01*
X112781352Y-90864716D01*
X113431795Y-90865284D01*
X114032943Y-90616894D01*
X114493278Y-90157363D01*
X114742716Y-89556648D01*
X114743284Y-88906205D01*
X114494894Y-88305057D01*
X114035363Y-87844722D01*
X113434648Y-87595284D01*
X112784205Y-87594716D01*
X112183057Y-87843106D01*
X111722722Y-88302637D01*
X111473284Y-88903352D01*
X111472716Y-89553795D01*
X111541919Y-89721278D01*
X110583198Y-90680000D01*
X99880215Y-90680000D01*
X100032943Y-90616894D01*
X100493278Y-90157363D01*
X100742716Y-89556648D01*
X100743284Y-88906205D01*
X100494894Y-88305057D01*
X100035363Y-87844722D01*
X99434648Y-87595284D01*
X98784205Y-87594716D01*
X98183057Y-87843106D01*
X97722722Y-88302637D01*
X97473284Y-88903352D01*
X97472716Y-89553795D01*
X97721106Y-90154943D01*
X98180637Y-90615278D01*
X98336505Y-90680000D01*
X98104802Y-90680000D01*
X95787401Y-88362599D01*
X95540839Y-88197852D01*
X95375000Y-88164864D01*
X95375000Y-87025879D01*
X95605900Y-87121757D01*
X96161661Y-87122242D01*
X96675303Y-86910010D01*
X97068629Y-86517370D01*
X97154949Y-86309487D01*
X97239990Y-86515303D01*
X97632630Y-86908629D01*
X98145900Y-87121757D01*
X98701661Y-87122242D01*
X99215303Y-86910010D01*
X99608629Y-86517370D01*
X99821757Y-86004100D01*
X99822242Y-85448339D01*
X99610010Y-84934697D01*
X99217370Y-84541371D01*
X98704100Y-84328243D01*
X98148339Y-84327758D01*
X97634697Y-84539990D01*
X97241371Y-84932630D01*
X97155050Y-85140512D01*
X97070010Y-84934697D01*
X96677370Y-84541371D01*
X96164100Y-84328243D01*
X95608339Y-84327758D01*
X95369333Y-84426512D01*
X95317148Y-84164161D01*
X95152401Y-83917599D01*
X93912118Y-82677316D01*
X93980000Y-82575725D01*
X94235302Y-82957811D01*
X94700849Y-83268880D01*
X95250000Y-83378113D01*
X95799151Y-83268880D01*
X96264698Y-82957811D01*
X96520000Y-82575725D01*
X96775302Y-82957811D01*
X97240849Y-83268880D01*
X97790000Y-83378113D01*
X98339151Y-83268880D01*
X98804698Y-82957811D01*
X99115767Y-82492264D01*
X99225000Y-81943113D01*
X99225000Y-81886887D01*
X99115767Y-81337736D01*
X98804698Y-80872189D01*
X98339151Y-80561120D01*
X98031880Y-80500000D01*
X105803119Y-80500000D01*
X105495849Y-80561120D01*
X105030302Y-80872189D01*
X104841333Y-81155000D01*
X104775000Y-81155000D01*
X104484161Y-81212852D01*
X104237599Y-81377599D01*
X102432638Y-83182560D01*
X102005000Y-83182560D01*
X101762877Y-83229537D01*
X101550073Y-83369327D01*
X101407623Y-83580360D01*
X101357560Y-83830000D01*
X101357560Y-85080000D01*
X101404537Y-85322123D01*
X101544327Y-85534927D01*
X101704885Y-85643306D01*
X101632623Y-85750360D01*
X101582560Y-86000000D01*
X101582560Y-87060000D01*
X101629537Y-87302123D01*
X101769327Y-87514927D01*
X101940640Y-87630566D01*
X101775073Y-87739327D01*
X101632623Y-87950360D01*
X101582560Y-88200000D01*
X101582560Y-89260000D01*
X101629537Y-89502123D01*
X101769327Y-89714927D01*
X101980360Y-89857377D01*
X102230000Y-89907440D01*
X102880000Y-89907440D01*
X103122123Y-89860463D01*
X103334927Y-89720673D01*
X103477377Y-89509640D01*
X103499790Y-89397874D01*
X103591673Y-89619698D01*
X103770301Y-89798327D01*
X104003690Y-89895000D01*
X104169250Y-89895000D01*
X104328000Y-89736250D01*
X104328000Y-88857000D01*
X104308000Y-88857000D01*
X104308000Y-88603000D01*
X104328000Y-88603000D01*
X104328000Y-88583000D01*
X104582000Y-88583000D01*
X104582000Y-88603000D01*
X104602000Y-88603000D01*
X104602000Y-88857000D01*
X104582000Y-88857000D01*
X104582000Y-89736250D01*
X104740750Y-89895000D01*
X104906310Y-89895000D01*
X105139699Y-89798327D01*
X105318327Y-89619698D01*
X105415000Y-89386309D01*
X105415000Y-89157827D01*
X105554327Y-89369927D01*
X105765360Y-89512377D01*
X106015000Y-89562440D01*
X106715000Y-89562440D01*
X106957123Y-89515463D01*
X107169927Y-89375673D01*
X107312377Y-89164640D01*
X107314216Y-89155469D01*
X107314537Y-89157123D01*
X107454327Y-89369927D01*
X107665360Y-89512377D01*
X107915000Y-89562440D01*
X108615000Y-89562440D01*
X108857123Y-89515463D01*
X109069927Y-89375673D01*
X109212377Y-89164640D01*
X109240380Y-89025000D01*
X109292537Y-89025000D01*
X109324673Y-89057192D01*
X109668201Y-89199838D01*
X110040167Y-89200162D01*
X110383943Y-89058117D01*
X110647192Y-88795327D01*
X110789838Y-88451799D01*
X110790162Y-88079833D01*
X110648117Y-87736057D01*
X110385327Y-87472808D01*
X110041799Y-87330162D01*
X109669833Y-87329838D01*
X109326057Y-87471883D01*
X109292882Y-87505000D01*
X109241097Y-87505000D01*
X109215463Y-87372877D01*
X109075673Y-87160073D01*
X108982693Y-87097310D01*
X108978083Y-87074137D01*
X109375303Y-86910010D01*
X109768629Y-86517370D01*
X109854949Y-86309487D01*
X109939990Y-86515303D01*
X110332630Y-86908629D01*
X110845900Y-87121757D01*
X111401661Y-87122242D01*
X111915303Y-86910010D01*
X112308629Y-86517370D01*
X112394949Y-86309487D01*
X112479990Y-86515303D01*
X112872630Y-86908629D01*
X113385900Y-87121757D01*
X113941661Y-87122242D01*
X114455303Y-86910010D01*
X114848629Y-86517370D01*
X115061757Y-86004100D01*
X115062242Y-85448339D01*
X115048857Y-85415944D01*
X115472401Y-84992401D01*
X115637148Y-84745840D01*
X115637148Y-84745839D01*
X115695000Y-84455000D01*
X115695000Y-80031097D01*
X115827123Y-80005463D01*
X116039927Y-79865673D01*
X116155000Y-79695197D01*
X116155000Y-92884400D01*
X116045707Y-92334947D01*
X115626252Y-91707187D01*
X114998492Y-91287732D01*
X114258000Y-91140439D01*
X113517508Y-91287732D01*
X112889748Y-91707187D01*
X112470293Y-92334947D01*
X112323000Y-93075439D01*
X112323000Y-94884561D01*
X112470293Y-95625053D01*
X112889748Y-96252813D01*
X113517508Y-96672268D01*
X114258000Y-96819561D01*
X114998492Y-96672268D01*
X115626252Y-96252813D01*
X116045707Y-95625053D01*
X116155000Y-95075599D01*
X116155000Y-99645000D01*
X116155000Y-99645000D01*
G37*
X116155000Y-99645000D02*
X111498956Y-99645000D01*
X111498956Y-94423409D01*
X111486641Y-93474677D01*
X111147271Y-92655364D01*
X110802528Y-92465077D01*
X109287605Y-93980000D01*
X110802528Y-95494923D01*
X111147271Y-95304636D01*
X111498956Y-94423409D01*
X111498956Y-99645000D01*
X110622923Y-99645000D01*
X110622923Y-95674528D01*
X109108000Y-94159605D01*
X108928395Y-94339210D01*
X108928395Y-93980000D01*
X107413472Y-92465077D01*
X107068729Y-92655364D01*
X106717044Y-93536591D01*
X106729359Y-94485323D01*
X107068729Y-95304636D01*
X107413472Y-95494923D01*
X108928395Y-93980000D01*
X108928395Y-94339210D01*
X107593077Y-95674528D01*
X107783364Y-96019271D01*
X108664591Y-96370956D01*
X109613323Y-96358641D01*
X110432636Y-96019271D01*
X110622923Y-95674528D01*
X110622923Y-99645000D01*
X97498956Y-99645000D01*
X97498956Y-94423409D01*
X97486641Y-93474677D01*
X97147271Y-92655364D01*
X96802528Y-92465077D01*
X96622923Y-92644682D01*
X96622923Y-92285472D01*
X96432636Y-91940729D01*
X95551409Y-91589044D01*
X94602677Y-91601359D01*
X93783364Y-91940729D01*
X93593077Y-92285472D01*
X95108000Y-93800395D01*
X96622923Y-92285472D01*
X96622923Y-92644682D01*
X95287605Y-93980000D01*
X96802528Y-95494923D01*
X97147271Y-95304636D01*
X97498956Y-94423409D01*
X97498956Y-99645000D01*
X96622923Y-99645000D01*
X96622923Y-95674528D01*
X95108000Y-94159605D01*
X94928395Y-94339210D01*
X94928395Y-93980000D01*
X93413472Y-92465077D01*
X93068729Y-92655364D01*
X92717044Y-93536591D01*
X92729359Y-94485323D01*
X93068729Y-95304636D01*
X93413472Y-95494923D01*
X94928395Y-93980000D01*
X94928395Y-94339210D01*
X93593077Y-95674528D01*
X93783364Y-96019271D01*
X94664591Y-96370956D01*
X95613323Y-96358641D01*
X96432636Y-96019271D01*
X96622923Y-95674528D01*
X96622923Y-99645000D01*
X86682662Y-99645000D01*
X87233761Y-99417291D01*
X87984655Y-98667707D01*
X88391536Y-97687827D01*
X88392462Y-96626828D01*
X87987291Y-95646239D01*
X87237707Y-94895345D01*
X86270321Y-94493651D01*
X86270321Y-87376000D01*
X86144646Y-86744190D01*
X85786754Y-86208567D01*
X85633251Y-86106000D01*
X85786754Y-86003433D01*
X86144646Y-85467810D01*
X86270321Y-84836000D01*
X86144646Y-84204190D01*
X85786754Y-83668567D01*
X85612218Y-83551946D01*
X85839236Y-83373630D01*
X86155926Y-82810477D01*
X86187975Y-82678944D01*
X86187975Y-81913056D01*
X86155926Y-81781523D01*
X85839236Y-81218370D01*
X85331143Y-80819276D01*
X84709000Y-80645000D01*
X84455000Y-80645000D01*
X84455000Y-82169000D01*
X86068836Y-82169000D01*
X86187975Y-81913056D01*
X86187975Y-82678944D01*
X86068836Y-82423000D01*
X84455000Y-82423000D01*
X84455000Y-82443000D01*
X84201000Y-82443000D01*
X84201000Y-82423000D01*
X84201000Y-82169000D01*
X84201000Y-80645000D01*
X83947000Y-80645000D01*
X83324857Y-80819276D01*
X82816764Y-81218370D01*
X82500074Y-81781523D01*
X82468025Y-81913056D01*
X82587164Y-82169000D01*
X84201000Y-82169000D01*
X84201000Y-82423000D01*
X82587164Y-82423000D01*
X82468025Y-82678944D01*
X82500074Y-82810477D01*
X82816764Y-83373630D01*
X83043781Y-83551946D01*
X82869246Y-83668567D01*
X82511354Y-84204190D01*
X82385679Y-84836000D01*
X82511354Y-85467810D01*
X82869246Y-86003433D01*
X83022748Y-86106000D01*
X82869246Y-86208567D01*
X82511354Y-86744190D01*
X82385679Y-87376000D01*
X82511354Y-88007810D01*
X82869246Y-88543433D01*
X83404869Y-88901325D01*
X84036679Y-89027000D01*
X84619321Y-89027000D01*
X85251131Y-88901325D01*
X85786754Y-88543433D01*
X86144646Y-88007810D01*
X86270321Y-87376000D01*
X86270321Y-94493651D01*
X86257827Y-94488464D01*
X85196828Y-94487538D01*
X84216239Y-94892709D01*
X83681810Y-95426205D01*
X83681810Y-94213602D01*
X83471314Y-93704163D01*
X83081887Y-93314056D01*
X82572816Y-93102671D01*
X82021602Y-93102190D01*
X81512163Y-93312686D01*
X81122056Y-93702113D01*
X80910671Y-94211184D01*
X80910190Y-94762398D01*
X81120686Y-95271837D01*
X81510113Y-95661944D01*
X82019184Y-95873329D01*
X82570398Y-95873810D01*
X83079837Y-95663314D01*
X83469944Y-95273887D01*
X83681329Y-94764816D01*
X83681810Y-94213602D01*
X83681810Y-95426205D01*
X83465345Y-95642293D01*
X83058464Y-96622173D01*
X83057538Y-97683172D01*
X83462709Y-98663761D01*
X84212293Y-99414655D01*
X84767026Y-99645000D01*
X76073767Y-99645000D01*
X76073767Y-94692966D01*
X76061810Y-94457561D01*
X76061810Y-62717602D01*
X75851314Y-62208163D01*
X75461887Y-61818056D01*
X74952816Y-61606671D01*
X74401602Y-61606190D01*
X73892163Y-61816686D01*
X73502056Y-62206113D01*
X73290671Y-62715184D01*
X73290190Y-63266398D01*
X73500686Y-63775837D01*
X73890113Y-64165944D01*
X74399184Y-64377329D01*
X74950398Y-64377810D01*
X75459837Y-64167314D01*
X75849944Y-63777887D01*
X76061329Y-63268816D01*
X76061810Y-62717602D01*
X76061810Y-94457561D01*
X76045805Y-94142462D01*
X75888931Y-93763735D01*
X75647930Y-93695675D01*
X75468325Y-93875280D01*
X75468325Y-93516070D01*
X75400265Y-93275069D01*
X74880966Y-93090233D01*
X74330462Y-93118195D01*
X73951735Y-93275069D01*
X73883675Y-93516070D01*
X74676000Y-94308395D01*
X75468325Y-93516070D01*
X75468325Y-93875280D01*
X74855605Y-94488000D01*
X75647930Y-95280325D01*
X75888931Y-95212265D01*
X76073767Y-94692966D01*
X76073767Y-99645000D01*
X75468325Y-99645000D01*
X75468325Y-95459930D01*
X74676000Y-94667605D01*
X74496395Y-94847210D01*
X74496395Y-94488000D01*
X73704070Y-93695675D01*
X73463069Y-93763735D01*
X73278233Y-94283034D01*
X73306195Y-94833538D01*
X73463069Y-95212265D01*
X73704070Y-95280325D01*
X74496395Y-94488000D01*
X74496395Y-94847210D01*
X73883675Y-95459930D01*
X73951735Y-95700931D01*
X74471034Y-95885767D01*
X75021538Y-95857805D01*
X75400265Y-95700931D01*
X75468325Y-95459930D01*
X75468325Y-99645000D01*
X72885040Y-99645000D01*
X72885040Y-74777600D01*
X72885040Y-72542400D01*
X72873370Y-72482251D01*
X72873370Y-68157185D01*
X72549020Y-67372200D01*
X71948959Y-66771091D01*
X71620000Y-66634495D01*
X71620000Y-65397440D01*
X71735000Y-65397440D01*
X71977123Y-65350463D01*
X72189927Y-65210673D01*
X72332377Y-64999640D01*
X72382440Y-64750000D01*
X72382440Y-62250000D01*
X72335463Y-62007877D01*
X72195673Y-61795073D01*
X71984640Y-61652623D01*
X71735000Y-61602560D01*
X69235000Y-61602560D01*
X68992877Y-61649537D01*
X68780073Y-61789327D01*
X68637623Y-62000360D01*
X68587560Y-62250000D01*
X68587560Y-64750000D01*
X68634537Y-64992123D01*
X68774327Y-65204927D01*
X68985360Y-65347377D01*
X69235000Y-65397440D01*
X69350000Y-65397440D01*
X69350000Y-66948865D01*
X68929091Y-67369041D01*
X68603372Y-68153459D01*
X68602630Y-69002815D01*
X68926980Y-69787800D01*
X69527041Y-70388909D01*
X70311459Y-70714628D01*
X71160815Y-70715370D01*
X71945800Y-70391020D01*
X72546909Y-69790959D01*
X72872628Y-69006541D01*
X72873370Y-68157185D01*
X72873370Y-72482251D01*
X72838063Y-72300277D01*
X72698273Y-72087473D01*
X72487240Y-71945023D01*
X72237600Y-71894960D01*
X70002400Y-71894960D01*
X69760277Y-71941937D01*
X69547473Y-72081727D01*
X69405023Y-72292760D01*
X69354960Y-72542400D01*
X69354960Y-74777600D01*
X69401937Y-75019723D01*
X69541727Y-75232527D01*
X69752760Y-75374977D01*
X70002400Y-75425040D01*
X72237600Y-75425040D01*
X72479723Y-75378063D01*
X72692527Y-75238273D01*
X72834977Y-75027240D01*
X72885040Y-74777600D01*
X72885040Y-99645000D01*
X72880723Y-99645000D01*
X72880723Y-79123813D01*
X72864497Y-78274613D01*
X72570739Y-77565418D01*
X72251970Y-77405635D01*
X72072365Y-77585240D01*
X72072365Y-77226030D01*
X71912582Y-76907261D01*
X71121813Y-76597277D01*
X70272613Y-76613503D01*
X69563418Y-76907261D01*
X69403635Y-77226030D01*
X70738000Y-78560395D01*
X72072365Y-77226030D01*
X72072365Y-77585240D01*
X70917605Y-78740000D01*
X72251970Y-80074365D01*
X72570739Y-79914582D01*
X72880723Y-79123813D01*
X72880723Y-99645000D01*
X72873370Y-99645000D01*
X72873370Y-88477185D01*
X72549020Y-87692200D01*
X72072365Y-87214712D01*
X72072365Y-80253970D01*
X70738000Y-78919605D01*
X70558395Y-79099210D01*
X70558395Y-78740000D01*
X69224030Y-77405635D01*
X68905261Y-77565418D01*
X68595277Y-78356187D01*
X68611503Y-79205387D01*
X68905261Y-79914582D01*
X69224030Y-80074365D01*
X70558395Y-78740000D01*
X70558395Y-79099210D01*
X69403635Y-80253970D01*
X69563418Y-80572739D01*
X70354187Y-80882723D01*
X71203387Y-80866497D01*
X71912582Y-80572739D01*
X72072365Y-80253970D01*
X72072365Y-87214712D01*
X71948959Y-87091091D01*
X71164541Y-86765372D01*
X70315185Y-86764630D01*
X69530200Y-87088980D01*
X68929091Y-87689041D01*
X68603372Y-88473459D01*
X68602630Y-89322815D01*
X68926980Y-90107800D01*
X69527041Y-90708909D01*
X70311459Y-91034628D01*
X71160815Y-91035370D01*
X71945800Y-90711020D01*
X72546909Y-90110959D01*
X72872628Y-89326541D01*
X72873370Y-88477185D01*
X72873370Y-99645000D01*
X67995000Y-99645000D01*
X67995000Y-57835000D01*
X69612203Y-57835000D01*
X69115175Y-58167104D01*
X68706558Y-58778642D01*
X68563071Y-59500000D01*
X68706558Y-60221358D01*
X69115175Y-60832896D01*
X69726713Y-61241513D01*
X70448071Y-61385000D01*
X70521929Y-61385000D01*
X71243287Y-61241513D01*
X71854825Y-60832896D01*
X72263442Y-60221358D01*
X72406929Y-59500000D01*
X72263442Y-58778642D01*
X71854825Y-58167104D01*
X71357796Y-57835000D01*
X116155000Y-57835000D01*
X116155000Y-61828446D01*
X115753252Y-61227187D01*
X115125492Y-60807732D01*
X114385000Y-60660439D01*
X113644508Y-60807732D01*
X113155000Y-61134810D01*
X113155000Y-60960000D01*
X113097148Y-60669161D01*
X112932401Y-60422599D01*
X112695122Y-60185320D01*
X112695162Y-60139833D01*
X112553117Y-59796057D01*
X112290327Y-59532808D01*
X111946799Y-59390162D01*
X111574833Y-59389838D01*
X111231057Y-59531883D01*
X111001170Y-59761368D01*
X110392401Y-59152599D01*
X110145839Y-58987852D01*
X109941100Y-58947126D01*
X109941100Y-58789570D01*
X109894123Y-58547447D01*
X109754333Y-58334643D01*
X109543300Y-58192193D01*
X109293660Y-58142130D01*
X106794300Y-58142130D01*
X106552177Y-58189107D01*
X106339373Y-58328897D01*
X106196923Y-58539930D01*
X106146860Y-58789570D01*
X106146860Y-60590430D01*
X106193837Y-60832553D01*
X106333627Y-61045357D01*
X106544660Y-61187807D01*
X106794300Y-61237870D01*
X108464307Y-61237870D01*
X107885771Y-61476916D01*
X107622227Y-61740000D01*
X107004719Y-61740000D01*
X106876673Y-61545073D01*
X106665640Y-61402623D01*
X106416000Y-61352560D01*
X105166000Y-61352560D01*
X104923877Y-61399537D01*
X104806020Y-61476956D01*
X104806020Y-61237870D01*
X105295700Y-61237870D01*
X105537823Y-61190893D01*
X105750627Y-61051103D01*
X105769169Y-61023632D01*
X105820401Y-60989401D01*
X105985148Y-60742840D01*
X106043000Y-60452000D01*
X105985148Y-60161161D01*
X105943140Y-60098291D01*
X105943140Y-58789570D01*
X105896163Y-58547447D01*
X105756373Y-58334643D01*
X105545340Y-58192193D01*
X105295700Y-58142130D01*
X102796340Y-58142130D01*
X102554217Y-58189107D01*
X102341413Y-58328897D01*
X102234551Y-58487207D01*
X102134333Y-58334643D01*
X101923300Y-58192193D01*
X101673660Y-58142130D01*
X99174300Y-58142130D01*
X98932177Y-58189107D01*
X98719373Y-58328897D01*
X98576923Y-58539930D01*
X98526860Y-58789570D01*
X98526860Y-60590430D01*
X98573837Y-60832553D01*
X98575444Y-60835000D01*
X98274093Y-60835000D01*
X98323140Y-60590430D01*
X98323140Y-58789570D01*
X98276163Y-58547447D01*
X98136373Y-58334643D01*
X97925340Y-58192193D01*
X97675700Y-58142130D01*
X95176340Y-58142130D01*
X94934217Y-58189107D01*
X94721413Y-58328897D01*
X94578963Y-58539930D01*
X94528900Y-58789570D01*
X94528900Y-60590430D01*
X94575877Y-60832553D01*
X94715667Y-61045357D01*
X94818299Y-61114635D01*
X94762675Y-61114587D01*
X93885771Y-61476916D01*
X93214274Y-62147242D01*
X92850415Y-63023513D01*
X92849587Y-63972325D01*
X93211916Y-64849229D01*
X93524700Y-65162560D01*
X93355000Y-65162560D01*
X93112877Y-65209537D01*
X92900073Y-65349327D01*
X92764616Y-65550000D01*
X92440000Y-65550000D01*
X92149160Y-65607852D01*
X92020000Y-65694154D01*
X92020000Y-64404561D01*
X92020000Y-62595439D01*
X91872707Y-61854947D01*
X91453252Y-61227187D01*
X90825492Y-60807732D01*
X90085000Y-60660439D01*
X89344508Y-60807732D01*
X89025000Y-61021220D01*
X89025000Y-59055000D01*
X88967148Y-58764161D01*
X88802401Y-58517599D01*
X88708421Y-58423619D01*
X88461859Y-58258872D01*
X88171020Y-58201020D01*
X87880181Y-58258872D01*
X87633619Y-58423619D01*
X87468872Y-58670181D01*
X87425459Y-58888426D01*
X87237707Y-58700345D01*
X86257827Y-58293464D01*
X85196828Y-58292538D01*
X84216239Y-58697709D01*
X83465345Y-59447293D01*
X83058464Y-60427173D01*
X83057538Y-61488172D01*
X83248361Y-61949999D01*
X83203377Y-61905015D01*
X83088324Y-62020067D01*
X83020265Y-61779069D01*
X82500966Y-61594233D01*
X81950462Y-61622195D01*
X81571735Y-61779069D01*
X81503675Y-62020070D01*
X82296000Y-62812395D01*
X82310142Y-62798252D01*
X82489747Y-62977857D01*
X82475605Y-62992000D01*
X83267930Y-63784325D01*
X83508931Y-63716265D01*
X83693767Y-63196966D01*
X83667183Y-62673592D01*
X84212293Y-63219655D01*
X85192173Y-63626536D01*
X86253172Y-63627462D01*
X87233761Y-63222291D01*
X87984655Y-62472707D01*
X88391536Y-61492827D01*
X88392462Y-60431828D01*
X88126184Y-59787387D01*
X88265000Y-59815000D01*
X88555840Y-59757148D01*
X88802401Y-59592401D01*
X88967148Y-59345840D01*
X89025000Y-59055000D01*
X89025000Y-61021220D01*
X88716748Y-61227187D01*
X88297293Y-61854947D01*
X88150000Y-62595439D01*
X88150000Y-64404561D01*
X88297293Y-65145053D01*
X88716748Y-65772813D01*
X89344508Y-66192268D01*
X90085000Y-66339561D01*
X90825492Y-66192268D01*
X91453252Y-65772813D01*
X91872707Y-65145053D01*
X92020000Y-64404561D01*
X92020000Y-65694154D01*
X91902599Y-65772599D01*
X91060351Y-66614846D01*
X90911205Y-66614716D01*
X90310057Y-66863106D01*
X89849722Y-67322637D01*
X89715800Y-67645156D01*
X89349833Y-67644838D01*
X89006057Y-67786883D01*
X88742808Y-68049673D01*
X88600162Y-68393201D01*
X88599838Y-68765167D01*
X88681020Y-68961642D01*
X88681020Y-69572130D01*
X88191340Y-69572130D01*
X87949217Y-69619107D01*
X87736413Y-69758897D01*
X87593963Y-69969930D01*
X87543900Y-70219570D01*
X87543900Y-70360000D01*
X86922462Y-70360000D01*
X86890327Y-70327808D01*
X86546799Y-70185162D01*
X86185354Y-70184847D01*
X86144646Y-69980190D01*
X85786754Y-69444567D01*
X85251131Y-69086675D01*
X84619321Y-68961000D01*
X84036679Y-68961000D01*
X83404869Y-69086675D01*
X83088325Y-69298183D01*
X83088325Y-63963930D01*
X82296000Y-63171605D01*
X82116395Y-63351210D01*
X82116395Y-62992000D01*
X81324070Y-62199675D01*
X81083069Y-62267735D01*
X80898233Y-62787034D01*
X80926195Y-63337538D01*
X81083069Y-63716265D01*
X81324070Y-63784325D01*
X82116395Y-62992000D01*
X82116395Y-63351210D01*
X81503675Y-63963930D01*
X81571735Y-64204931D01*
X82091034Y-64389767D01*
X82641538Y-64361805D01*
X83020265Y-64204931D01*
X83088325Y-63963930D01*
X83088325Y-69298183D01*
X82869246Y-69444567D01*
X82511354Y-69980190D01*
X82385679Y-70612000D01*
X82511354Y-71243810D01*
X82869246Y-71779433D01*
X83043781Y-71896053D01*
X82816764Y-72074370D01*
X82500074Y-72637523D01*
X82468025Y-72769056D01*
X82587164Y-73025000D01*
X84201000Y-73025000D01*
X84201000Y-73005000D01*
X84455000Y-73005000D01*
X84455000Y-73025000D01*
X84475000Y-73025000D01*
X84475000Y-73279000D01*
X84455000Y-73279000D01*
X84455000Y-73299000D01*
X84201000Y-73299000D01*
X84201000Y-73279000D01*
X82587164Y-73279000D01*
X82468025Y-73534944D01*
X82500074Y-73666477D01*
X82816764Y-74229630D01*
X83043781Y-74407946D01*
X82869246Y-74524567D01*
X82511354Y-75060190D01*
X82385679Y-75692000D01*
X82511354Y-76323810D01*
X82869246Y-76859433D01*
X83404869Y-77217325D01*
X84036679Y-77343000D01*
X84619321Y-77343000D01*
X85251131Y-77217325D01*
X85786754Y-76859433D01*
X86058992Y-76452000D01*
X88077197Y-76452000D01*
X91902599Y-80277402D01*
X92149161Y-80442148D01*
X92440000Y-80500000D01*
X92468119Y-80500000D01*
X92160849Y-80561120D01*
X91695302Y-80872189D01*
X91440000Y-81254274D01*
X91184698Y-80872189D01*
X90719151Y-80561120D01*
X90170000Y-80451887D01*
X89620849Y-80561120D01*
X89155302Y-80872189D01*
X88844233Y-81337736D01*
X88735000Y-81886887D01*
X88735000Y-81943113D01*
X88844233Y-82492264D01*
X88967881Y-82677316D01*
X87997599Y-83647599D01*
X87832852Y-83894161D01*
X87775000Y-84185000D01*
X87775000Y-85146280D01*
X87580073Y-85274327D01*
X87437623Y-85485360D01*
X87387560Y-85735000D01*
X87387560Y-86985000D01*
X87434537Y-87227123D01*
X87574327Y-87439927D01*
X87734885Y-87548306D01*
X87662623Y-87655360D01*
X87612560Y-87905000D01*
X87612560Y-88965000D01*
X87659537Y-89207123D01*
X87799327Y-89419927D01*
X87970640Y-89535566D01*
X87805073Y-89644327D01*
X87662623Y-89855360D01*
X87612560Y-90105000D01*
X87612560Y-91165000D01*
X87659537Y-91407123D01*
X87799327Y-91619927D01*
X88010360Y-91762377D01*
X88260000Y-91812440D01*
X88519420Y-91812440D01*
X88170293Y-92334947D01*
X88023000Y-93075439D01*
X88023000Y-94884561D01*
X88170293Y-95625053D01*
X88589748Y-96252813D01*
X89217508Y-96672268D01*
X89958000Y-96819561D01*
X90698492Y-96672268D01*
X91326252Y-96252813D01*
X91745707Y-95625053D01*
X91893000Y-94884561D01*
X91893000Y-93075439D01*
X91745707Y-92334947D01*
X91326252Y-91707187D01*
X91230091Y-91642934D01*
X91348327Y-91524698D01*
X91445000Y-91291309D01*
X91445000Y-90920750D01*
X91286250Y-90762000D01*
X90612000Y-90762000D01*
X90612000Y-90782000D01*
X90358000Y-90782000D01*
X90358000Y-90762000D01*
X90338000Y-90762000D01*
X90338000Y-90508000D01*
X90358000Y-90508000D01*
X90358000Y-90488000D01*
X90612000Y-90488000D01*
X90612000Y-90508000D01*
X91286250Y-90508000D01*
X91445000Y-90349250D01*
X91445000Y-89978691D01*
X91348327Y-89745302D01*
X91169699Y-89566673D01*
X91096461Y-89536337D01*
X91264927Y-89425673D01*
X91397560Y-89229183D01*
X91397560Y-89550000D01*
X91444537Y-89792123D01*
X91584327Y-90004927D01*
X91795360Y-90147377D01*
X92045000Y-90197440D01*
X92745000Y-90197440D01*
X92987123Y-90150463D01*
X93199927Y-90010673D01*
X93342377Y-89799640D01*
X93344216Y-89790469D01*
X93344537Y-89792123D01*
X93484327Y-90004927D01*
X93695360Y-90147377D01*
X93945000Y-90197440D01*
X94645000Y-90197440D01*
X94887123Y-90150463D01*
X95099927Y-90010673D01*
X95174860Y-89899662D01*
X97252599Y-91977401D01*
X97499160Y-92142148D01*
X97499161Y-92142148D01*
X97547413Y-92151746D01*
X97790000Y-92200000D01*
X107640254Y-92200000D01*
X107593077Y-92285472D01*
X109108000Y-93800395D01*
X110622923Y-92285472D01*
X110575745Y-92200000D01*
X110898000Y-92200000D01*
X111188839Y-92142148D01*
X111435401Y-91977401D01*
X112616527Y-90796274D01*
X112781352Y-90864716D01*
X113431795Y-90865284D01*
X114032943Y-90616894D01*
X114493278Y-90157363D01*
X114742716Y-89556648D01*
X114743284Y-88906205D01*
X114494894Y-88305057D01*
X114035363Y-87844722D01*
X113434648Y-87595284D01*
X112784205Y-87594716D01*
X112183057Y-87843106D01*
X111722722Y-88302637D01*
X111473284Y-88903352D01*
X111472716Y-89553795D01*
X111541919Y-89721278D01*
X110583198Y-90680000D01*
X99880215Y-90680000D01*
X100032943Y-90616894D01*
X100493278Y-90157363D01*
X100742716Y-89556648D01*
X100743284Y-88906205D01*
X100494894Y-88305057D01*
X100035363Y-87844722D01*
X99434648Y-87595284D01*
X98784205Y-87594716D01*
X98183057Y-87843106D01*
X97722722Y-88302637D01*
X97473284Y-88903352D01*
X97472716Y-89553795D01*
X97721106Y-90154943D01*
X98180637Y-90615278D01*
X98336505Y-90680000D01*
X98104802Y-90680000D01*
X95787401Y-88362599D01*
X95540839Y-88197852D01*
X95375000Y-88164864D01*
X95375000Y-87025879D01*
X95605900Y-87121757D01*
X96161661Y-87122242D01*
X96675303Y-86910010D01*
X97068629Y-86517370D01*
X97154949Y-86309487D01*
X97239990Y-86515303D01*
X97632630Y-86908629D01*
X98145900Y-87121757D01*
X98701661Y-87122242D01*
X99215303Y-86910010D01*
X99608629Y-86517370D01*
X99821757Y-86004100D01*
X99822242Y-85448339D01*
X99610010Y-84934697D01*
X99217370Y-84541371D01*
X98704100Y-84328243D01*
X98148339Y-84327758D01*
X97634697Y-84539990D01*
X97241371Y-84932630D01*
X97155050Y-85140512D01*
X97070010Y-84934697D01*
X96677370Y-84541371D01*
X96164100Y-84328243D01*
X95608339Y-84327758D01*
X95369333Y-84426512D01*
X95317148Y-84164161D01*
X95152401Y-83917599D01*
X93912118Y-82677316D01*
X93980000Y-82575725D01*
X94235302Y-82957811D01*
X94700849Y-83268880D01*
X95250000Y-83378113D01*
X95799151Y-83268880D01*
X96264698Y-82957811D01*
X96520000Y-82575725D01*
X96775302Y-82957811D01*
X97240849Y-83268880D01*
X97790000Y-83378113D01*
X98339151Y-83268880D01*
X98804698Y-82957811D01*
X99115767Y-82492264D01*
X99225000Y-81943113D01*
X99225000Y-81886887D01*
X99115767Y-81337736D01*
X98804698Y-80872189D01*
X98339151Y-80561120D01*
X98031880Y-80500000D01*
X105803119Y-80500000D01*
X105495849Y-80561120D01*
X105030302Y-80872189D01*
X104841333Y-81155000D01*
X104775000Y-81155000D01*
X104484161Y-81212852D01*
X104237599Y-81377599D01*
X102432638Y-83182560D01*
X102005000Y-83182560D01*
X101762877Y-83229537D01*
X101550073Y-83369327D01*
X101407623Y-83580360D01*
X101357560Y-83830000D01*
X101357560Y-85080000D01*
X101404537Y-85322123D01*
X101544327Y-85534927D01*
X101704885Y-85643306D01*
X101632623Y-85750360D01*
X101582560Y-86000000D01*
X101582560Y-87060000D01*
X101629537Y-87302123D01*
X101769327Y-87514927D01*
X101940640Y-87630566D01*
X101775073Y-87739327D01*
X101632623Y-87950360D01*
X101582560Y-88200000D01*
X101582560Y-89260000D01*
X101629537Y-89502123D01*
X101769327Y-89714927D01*
X101980360Y-89857377D01*
X102230000Y-89907440D01*
X102880000Y-89907440D01*
X103122123Y-89860463D01*
X103334927Y-89720673D01*
X103477377Y-89509640D01*
X103499790Y-89397874D01*
X103591673Y-89619698D01*
X103770301Y-89798327D01*
X104003690Y-89895000D01*
X104169250Y-89895000D01*
X104328000Y-89736250D01*
X104328000Y-88857000D01*
X104308000Y-88857000D01*
X104308000Y-88603000D01*
X104328000Y-88603000D01*
X104328000Y-88583000D01*
X104582000Y-88583000D01*
X104582000Y-88603000D01*
X104602000Y-88603000D01*
X104602000Y-88857000D01*
X104582000Y-88857000D01*
X104582000Y-89736250D01*
X104740750Y-89895000D01*
X104906310Y-89895000D01*
X105139699Y-89798327D01*
X105318327Y-89619698D01*
X105415000Y-89386309D01*
X105415000Y-89157827D01*
X105554327Y-89369927D01*
X105765360Y-89512377D01*
X106015000Y-89562440D01*
X106715000Y-89562440D01*
X106957123Y-89515463D01*
X107169927Y-89375673D01*
X107312377Y-89164640D01*
X107314216Y-89155469D01*
X107314537Y-89157123D01*
X107454327Y-89369927D01*
X107665360Y-89512377D01*
X107915000Y-89562440D01*
X108615000Y-89562440D01*
X108857123Y-89515463D01*
X109069927Y-89375673D01*
X109212377Y-89164640D01*
X109240380Y-89025000D01*
X109292537Y-89025000D01*
X109324673Y-89057192D01*
X109668201Y-89199838D01*
X110040167Y-89200162D01*
X110383943Y-89058117D01*
X110647192Y-88795327D01*
X110789838Y-88451799D01*
X110790162Y-88079833D01*
X110648117Y-87736057D01*
X110385327Y-87472808D01*
X110041799Y-87330162D01*
X109669833Y-87329838D01*
X109326057Y-87471883D01*
X109292882Y-87505000D01*
X109241097Y-87505000D01*
X109215463Y-87372877D01*
X109075673Y-87160073D01*
X108982693Y-87097310D01*
X108978083Y-87074137D01*
X109375303Y-86910010D01*
X109768629Y-86517370D01*
X109854949Y-86309487D01*
X109939990Y-86515303D01*
X110332630Y-86908629D01*
X110845900Y-87121757D01*
X111401661Y-87122242D01*
X111915303Y-86910010D01*
X112308629Y-86517370D01*
X112394949Y-86309487D01*
X112479990Y-86515303D01*
X112872630Y-86908629D01*
X113385900Y-87121757D01*
X113941661Y-87122242D01*
X114455303Y-86910010D01*
X114848629Y-86517370D01*
X115061757Y-86004100D01*
X115062242Y-85448339D01*
X115048857Y-85415944D01*
X115472401Y-84992401D01*
X115637148Y-84745840D01*
X115637148Y-84745839D01*
X115695000Y-84455000D01*
X115695000Y-80031097D01*
X115827123Y-80005463D01*
X116039927Y-79865673D01*
X116155000Y-79695197D01*
X116155000Y-92884400D01*
X116045707Y-92334947D01*
X115626252Y-91707187D01*
X114998492Y-91287732D01*
X114258000Y-91140439D01*
X113517508Y-91287732D01*
X112889748Y-91707187D01*
X112470293Y-92334947D01*
X112323000Y-93075439D01*
X112323000Y-94884561D01*
X112470293Y-95625053D01*
X112889748Y-96252813D01*
X113517508Y-96672268D01*
X114258000Y-96819561D01*
X114998492Y-96672268D01*
X115626252Y-96252813D01*
X116045707Y-95625053D01*
X116155000Y-95075599D01*
X116155000Y-99645000D01*
M02*
