M48
;DRILL file {KiCad 0.201505300414+5690~23~ubuntu14.04.1-product} date Sat 20 Jun 2015 09:37:03 PM PDT
;FORMAT={-:-/ absolute / metric / decimal}
FMAT,2
METRIC,TZ
T1C0.400
T2C0.800
T3C0.800
T4C0.813
T5C1.143
T6C1.200
T7C1.500
T8C1.524
T9C2.500
%
G90
G05
M71
T1
X73.66Y-80.264
X75.692Y-78.232
X75.692Y-80.772
X86.36Y-71.12
X86.868Y-87.884
X89.408Y-84.836
X89.408Y-89.916
X89.535Y-68.58
X91.44Y-73.025
X97.536Y-77.724
X99.568Y-80.772
X100.965Y-65.405
X101.092Y-86.868
X102.616Y-82.804
X103.632Y-80.772
X103.632Y-87.884
X107.188Y-89.916
X108.585Y-77.47
X111.125Y-65.405
X111.76Y-60.325
X113.03Y-69.215
T2
X90.17Y-74.295
X90.17Y-81.915
X92.71Y-74.295
X92.71Y-81.915
X95.25Y-74.295
X95.25Y-81.915
X97.79Y-74.295
X97.79Y-81.915
X106.045Y-74.295
X106.045Y-81.915
X108.585Y-74.295
X108.585Y-81.915
X111.125Y-74.295
X111.125Y-81.915
X113.665Y-74.295
X113.665Y-81.915
T3
X74.676Y-62.992
X74.676Y-94.488
X82.296Y-62.992
X82.296Y-94.488
T4
X93.345Y-85.725
X95.885Y-85.725
X98.425Y-85.725
X108.585Y-85.725
X111.125Y-85.725
X113.665Y-85.725
T5
X84.328Y-70.612
X84.328Y-73.152
X84.328Y-75.692
X84.328Y-82.296
X84.328Y-84.836
X84.328Y-87.376
T6
X91.235Y-68.25
X99.108Y-89.23
X105.235Y-68.25
X113.108Y-89.23
T7
X70.612Y-59.5
X70.612Y-63.5
T8
X70.738Y-67.945
X70.738Y-74.295
X70.738Y-83.185
X70.738Y-89.535
T9
X95.108Y-93.98
X95.235Y-63.5
X109.108Y-93.98
X109.235Y-63.5
T9
X89.958Y-94.83G85X89.958Y-93.13
G05
X90.085Y-62.65G85X90.085Y-64.35
G05
X114.258Y-94.83G85X114.258Y-93.13
G05
X114.385Y-62.65G85X114.385Y-64.35
G05
T0
M30
