G04 #@! TF.FileFunction,Legend,Top*
%FSLAX46Y46*%
G04 Gerber Fmt 4.6, Leading zero omitted, Abs format (unit mm)*
G04 Created by KiCad (PCBNEW 0.201505300414+5690~23~ubuntu14.04.1-product) date Sat 20 Jun 2015 09:37:00 PM PDT*
%MOMM*%
G01*
G04 APERTURE LIST*
%ADD10C,0.100000*%
%ADD11C,0.300000*%
%ADD12C,0.150000*%
%ADD13C,0.050000*%
G04 APERTURE END LIST*
D10*
D11*
X73152143Y-72838571D02*
X74009286Y-72838571D01*
X73580715Y-74338571D02*
X73580715Y-72838571D01*
X74366429Y-72838571D02*
X75295000Y-72838571D01*
X74795000Y-73410000D01*
X75009286Y-73410000D01*
X75152143Y-73481429D01*
X75223572Y-73552857D01*
X75295000Y-73695714D01*
X75295000Y-74052857D01*
X75223572Y-74195714D01*
X75152143Y-74267143D01*
X75009286Y-74338571D01*
X74580714Y-74338571D01*
X74437857Y-74267143D01*
X74366429Y-74195714D01*
X72676000Y-57598571D02*
X73176000Y-59098571D01*
X73676000Y-57598571D01*
X75033143Y-58955714D02*
X74961714Y-59027143D01*
X74747428Y-59098571D01*
X74604571Y-59098571D01*
X74390286Y-59027143D01*
X74247428Y-58884286D01*
X74176000Y-58741429D01*
X74104571Y-58455714D01*
X74104571Y-58241429D01*
X74176000Y-57955714D01*
X74247428Y-57812857D01*
X74390286Y-57670000D01*
X74604571Y-57598571D01*
X74747428Y-57598571D01*
X74961714Y-57670000D01*
X75033143Y-57741429D01*
X76533143Y-58955714D02*
X76461714Y-59027143D01*
X76247428Y-59098571D01*
X76104571Y-59098571D01*
X75890286Y-59027143D01*
X75747428Y-58884286D01*
X75676000Y-58741429D01*
X75604571Y-58455714D01*
X75604571Y-58241429D01*
X75676000Y-57955714D01*
X75747428Y-57812857D01*
X75890286Y-57670000D01*
X76104571Y-57598571D01*
X76247428Y-57598571D01*
X76461714Y-57670000D01*
X76533143Y-57741429D01*
X73417857Y-64655000D02*
X73275000Y-64583571D01*
X73060714Y-64583571D01*
X72846429Y-64655000D01*
X72703571Y-64797857D01*
X72632143Y-64940714D01*
X72560714Y-65226429D01*
X72560714Y-65440714D01*
X72632143Y-65726429D01*
X72703571Y-65869286D01*
X72846429Y-66012143D01*
X73060714Y-66083571D01*
X73203571Y-66083571D01*
X73417857Y-66012143D01*
X73489286Y-65940714D01*
X73489286Y-65440714D01*
X73203571Y-65440714D01*
D10*
X100326000Y-88519047D02*
X100349810Y-88471428D01*
X100349810Y-88400000D01*
X100326000Y-88328571D01*
X100278381Y-88280952D01*
X100230762Y-88257143D01*
X100135524Y-88233333D01*
X100064095Y-88233333D01*
X99968857Y-88257143D01*
X99921238Y-88280952D01*
X99873619Y-88328571D01*
X99849810Y-88400000D01*
X99849810Y-88447619D01*
X99873619Y-88519047D01*
X99897429Y-88542857D01*
X100064095Y-88542857D01*
X100064095Y-88447619D01*
X99849810Y-88757143D02*
X100349810Y-88757143D01*
X99849810Y-89042857D01*
X100349810Y-89042857D01*
X99849810Y-89280953D02*
X100349810Y-89280953D01*
X100349810Y-89400000D01*
X100326000Y-89471429D01*
X100278381Y-89519048D01*
X100230762Y-89542857D01*
X100135524Y-89566667D01*
X100064095Y-89566667D01*
X99968857Y-89542857D01*
X99921238Y-89519048D01*
X99873619Y-89471429D01*
X99849810Y-89400000D01*
X99849810Y-89280953D01*
X103397810Y-73691810D02*
X102897810Y-73858477D01*
X103397810Y-74025143D01*
X103088286Y-74191810D02*
X103088286Y-74572762D01*
X102897810Y-74382286D02*
X103278762Y-74382286D01*
D12*
X100085000Y-74430000D02*
X98815000Y-74430000D01*
X100085000Y-81780000D02*
X98815000Y-81780000D01*
X87875000Y-81780000D02*
X89145000Y-81780000D01*
X87875000Y-74430000D02*
X89145000Y-74430000D01*
X100085000Y-74430000D02*
X100085000Y-81780000D01*
X87875000Y-74430000D02*
X87875000Y-81780000D01*
X98815000Y-74430000D02*
X98815000Y-73495000D01*
X90385000Y-71620000D02*
X90385000Y-70620000D01*
X88685000Y-70620000D02*
X88685000Y-71620000D01*
X93585000Y-70520000D02*
X93585000Y-71720000D01*
X91835000Y-71720000D02*
X91835000Y-70520000D01*
X96760000Y-70520000D02*
X96760000Y-71720000D01*
X95010000Y-71720000D02*
X95010000Y-70520000D01*
X102475000Y-74330000D02*
X102475000Y-75530000D01*
X100725000Y-75530000D02*
X100725000Y-74330000D01*
X92329000Y-83693000D02*
X92329000Y-84963000D01*
X93116400Y-84442300D02*
X93078300Y-84188300D01*
X93078300Y-84188300D02*
X92900500Y-83908900D01*
X92900500Y-83908900D02*
X92583000Y-83693000D01*
X92583000Y-83693000D02*
X92138500Y-83680300D01*
X92138500Y-83680300D02*
X91782900Y-83883500D01*
X91782900Y-83883500D02*
X91605100Y-84175600D01*
X91605100Y-84175600D02*
X91554300Y-84493100D01*
X91554300Y-84493100D02*
X91655900Y-84899500D01*
X91655900Y-84899500D02*
X91998800Y-85153500D01*
X91998800Y-85153500D02*
X92176600Y-85242400D01*
X100711000Y-87503000D02*
X91059000Y-87503000D01*
X91059000Y-84455000D02*
X91059000Y-83185000D01*
X91059000Y-83185000D02*
X100711000Y-83185000D01*
X100711000Y-83185000D02*
X100711000Y-88265000D01*
X91059000Y-88265000D02*
X91059000Y-85725000D01*
X91059000Y-85725000D02*
X91059000Y-84455000D01*
X115960000Y-74430000D02*
X114690000Y-74430000D01*
X115960000Y-81780000D02*
X114690000Y-81780000D01*
X103750000Y-81780000D02*
X105020000Y-81780000D01*
X103750000Y-74430000D02*
X105020000Y-74430000D01*
X115960000Y-74430000D02*
X115960000Y-81780000D01*
X103750000Y-74430000D02*
X103750000Y-81780000D01*
X114690000Y-74430000D02*
X114690000Y-73495000D01*
X85352000Y-66890000D02*
X86352000Y-66890000D01*
X86352000Y-65190000D02*
X85352000Y-65190000D01*
X86352000Y-91098000D02*
X85352000Y-91098000D01*
X85352000Y-92798000D02*
X86352000Y-92798000D01*
X104355000Y-71620000D02*
X104355000Y-70620000D01*
X102655000Y-70620000D02*
X102655000Y-71620000D01*
X108190000Y-70520000D02*
X108190000Y-71720000D01*
X106440000Y-71720000D02*
X106440000Y-70520000D01*
X112000000Y-70520000D02*
X112000000Y-71720000D01*
X110250000Y-71720000D02*
X110250000Y-70520000D01*
X107569000Y-83693000D02*
X107569000Y-84963000D01*
X108356400Y-84442300D02*
X108318300Y-84188300D01*
X108318300Y-84188300D02*
X108140500Y-83908900D01*
X108140500Y-83908900D02*
X107823000Y-83693000D01*
X107823000Y-83693000D02*
X107378500Y-83680300D01*
X107378500Y-83680300D02*
X107022900Y-83883500D01*
X107022900Y-83883500D02*
X106845100Y-84175600D01*
X106845100Y-84175600D02*
X106794300Y-84493100D01*
X106794300Y-84493100D02*
X106895900Y-84899500D01*
X106895900Y-84899500D02*
X107238800Y-85153500D01*
X107238800Y-85153500D02*
X107416600Y-85242400D01*
X115951000Y-87503000D02*
X106299000Y-87503000D01*
X106299000Y-84455000D02*
X106299000Y-83185000D01*
X106299000Y-83185000D02*
X115951000Y-83185000D01*
X115951000Y-83185000D02*
X115951000Y-88265000D01*
X106299000Y-88265000D02*
X106299000Y-85725000D01*
X106299000Y-85725000D02*
X106299000Y-84455000D01*
X85979000Y-77978000D02*
X82550000Y-77978000D01*
X85979000Y-68326000D02*
X82550000Y-68326000D01*
X87122000Y-78486000D02*
X87122000Y-67818000D01*
X86106000Y-74930000D02*
X87376000Y-74930000D01*
X86106000Y-71374000D02*
X87376000Y-71374000D01*
X85979000Y-67818000D02*
X85979000Y-78486000D01*
X82550000Y-78486000D02*
X82550000Y-67818000D01*
X87376000Y-67818000D02*
X82550000Y-67818000D01*
X87376000Y-78486000D02*
X82550000Y-78486000D01*
X87376000Y-78486000D02*
X87376000Y-67818000D01*
X85979000Y-89662000D02*
X82550000Y-89662000D01*
X85979000Y-80010000D02*
X82550000Y-80010000D01*
X87122000Y-90170000D02*
X87122000Y-79502000D01*
X86106000Y-86614000D02*
X87376000Y-86614000D01*
X86106000Y-83058000D02*
X87376000Y-83058000D01*
X85979000Y-79502000D02*
X85979000Y-90170000D01*
X82550000Y-90170000D02*
X82550000Y-79502000D01*
X87376000Y-79502000D02*
X82550000Y-79502000D01*
X87376000Y-90170000D02*
X82550000Y-90170000D01*
X87376000Y-90170000D02*
X87376000Y-79502000D01*
X72112000Y-61000000D02*
X69112000Y-61000000D01*
X69112000Y-61000000D02*
X69112000Y-58000000D01*
X69112000Y-58000000D02*
X72112000Y-58000000D01*
X72112000Y-58000000D02*
X72112000Y-61000000D01*
X69062000Y-65050000D02*
X69062000Y-63500000D01*
X72162000Y-63500000D02*
X72162000Y-65050000D01*
X72162000Y-65050000D02*
X69062000Y-65050000D01*
X75438000Y-60452000D02*
X75438000Y-61468000D01*
X74930000Y-60960000D02*
X75946000Y-60960000D01*
X83566000Y-62992000D02*
G75*
G03X83566000Y-62992000I-5080000J0D01*
G01*
X75438000Y-91948000D02*
X75438000Y-92964000D01*
X74930000Y-92456000D02*
X75946000Y-92456000D01*
X83566000Y-94488000D02*
G75*
G03X83566000Y-94488000I-5080000J0D01*
G01*
X85352000Y-63334000D02*
X86352000Y-63334000D01*
X86352000Y-61634000D02*
X85352000Y-61634000D01*
X86352000Y-94654000D02*
X85352000Y-94654000D01*
X85352000Y-96354000D02*
X86352000Y-96354000D01*
X76073000Y-77851000D02*
G75*
G03X77597000Y-77851000I762000J762000D01*
G01*
X74549000Y-81915000D02*
X74295000Y-81915000D01*
X74295000Y-81915000D02*
X74295000Y-77089000D01*
X74295000Y-77089000D02*
X74549000Y-77089000D01*
X79121000Y-81915000D02*
X79375000Y-81915000D01*
X79375000Y-81915000D02*
X79375000Y-77089000D01*
X79375000Y-77089000D02*
X79121000Y-77089000D01*
X68580000Y-57912000D02*
X73152000Y-57912000D01*
X73152000Y-57912000D02*
X73152000Y-99568000D01*
X73152000Y-99568000D02*
X68580000Y-99568000D01*
D13*
X105108000Y-99480000D02*
X105108000Y-99822000D01*
X105108000Y-99884000D02*
X113108000Y-99884000D01*
X113108000Y-99822000D02*
X113108000Y-99480000D01*
X99108000Y-99480000D02*
X99108000Y-99822000D01*
X99108000Y-99884000D02*
X91108000Y-99884000D01*
X91108000Y-99822000D02*
X91108000Y-99480000D01*
D12*
X116108000Y-99480000D02*
X88108000Y-99480000D01*
X88108000Y-99480000D02*
X88108000Y-88980000D01*
X88108000Y-88980000D02*
X116108000Y-88980000D01*
X116108000Y-88980000D02*
X116108000Y-99480000D01*
D13*
X99235000Y-58000000D02*
X99235000Y-57658000D01*
X99235000Y-57596000D02*
X91235000Y-57596000D01*
X91235000Y-57658000D02*
X91235000Y-58000000D01*
X105235000Y-58000000D02*
X105235000Y-57658000D01*
X105235000Y-57596000D02*
X113235000Y-57596000D01*
X113235000Y-57658000D02*
X113235000Y-58000000D01*
D12*
X88235000Y-58000000D02*
X116235000Y-58000000D01*
X116235000Y-58000000D02*
X116235000Y-68500000D01*
X116235000Y-68500000D02*
X88235000Y-68500000D01*
X88235000Y-68500000D02*
X88235000Y-58000000D01*
X101131667Y-78819286D02*
X101131667Y-78343095D01*
X101417381Y-78914524D02*
X100417381Y-78581191D01*
X101417381Y-78247857D01*
X101417381Y-77390714D02*
X101417381Y-77962143D01*
X101417381Y-77676429D02*
X100417381Y-77676429D01*
X100560238Y-77771667D01*
X100655476Y-77866905D01*
X100703095Y-77962143D01*
X88622143Y-71286666D02*
X88669762Y-71334285D01*
X88717381Y-71477142D01*
X88717381Y-71572380D01*
X88669762Y-71715238D01*
X88574524Y-71810476D01*
X88479286Y-71858095D01*
X88288810Y-71905714D01*
X88145952Y-71905714D01*
X87955476Y-71858095D01*
X87860238Y-71810476D01*
X87765000Y-71715238D01*
X87717381Y-71572380D01*
X87717381Y-71477142D01*
X87765000Y-71334285D01*
X87812619Y-71286666D01*
X87717381Y-70953333D02*
X87717381Y-70334285D01*
X88098333Y-70667619D01*
X88098333Y-70524761D01*
X88145952Y-70429523D01*
X88193571Y-70381904D01*
X88288810Y-70334285D01*
X88526905Y-70334285D01*
X88622143Y-70381904D01*
X88669762Y-70429523D01*
X88717381Y-70524761D01*
X88717381Y-70810476D01*
X88669762Y-70905714D01*
X88622143Y-70953333D01*
X91892381Y-71286666D02*
X91416190Y-71620000D01*
X91892381Y-71858095D02*
X90892381Y-71858095D01*
X90892381Y-71477142D01*
X90940000Y-71381904D01*
X90987619Y-71334285D01*
X91082857Y-71286666D01*
X91225714Y-71286666D01*
X91320952Y-71334285D01*
X91368571Y-71381904D01*
X91416190Y-71477142D01*
X91416190Y-71858095D01*
X91892381Y-70334285D02*
X91892381Y-70905714D01*
X91892381Y-70620000D02*
X90892381Y-70620000D01*
X91035238Y-70715238D01*
X91130476Y-70810476D01*
X91178095Y-70905714D01*
X95067381Y-71286666D02*
X94591190Y-71620000D01*
X95067381Y-71858095D02*
X94067381Y-71858095D01*
X94067381Y-71477142D01*
X94115000Y-71381904D01*
X94162619Y-71334285D01*
X94257857Y-71286666D01*
X94400714Y-71286666D01*
X94495952Y-71334285D01*
X94543571Y-71381904D01*
X94591190Y-71477142D01*
X94591190Y-71858095D01*
X94162619Y-70905714D02*
X94115000Y-70858095D01*
X94067381Y-70762857D01*
X94067381Y-70524761D01*
X94115000Y-70429523D01*
X94162619Y-70381904D01*
X94257857Y-70334285D01*
X94353095Y-70334285D01*
X94495952Y-70381904D01*
X95067381Y-70953333D01*
X95067381Y-70334285D01*
X103322381Y-77636666D02*
X102846190Y-77970000D01*
X103322381Y-78208095D02*
X102322381Y-78208095D01*
X102322381Y-77827142D01*
X102370000Y-77731904D01*
X102417619Y-77684285D01*
X102512857Y-77636666D01*
X102655714Y-77636666D01*
X102750952Y-77684285D01*
X102798571Y-77731904D01*
X102846190Y-77827142D01*
X102846190Y-78208095D01*
X102322381Y-77303333D02*
X102322381Y-76684285D01*
X102703333Y-77017619D01*
X102703333Y-76874761D01*
X102750952Y-76779523D01*
X102798571Y-76731904D01*
X102893810Y-76684285D01*
X103131905Y-76684285D01*
X103227143Y-76731904D01*
X103274762Y-76779523D01*
X103322381Y-76874761D01*
X103322381Y-77160476D01*
X103274762Y-77255714D01*
X103227143Y-77303333D01*
X95924762Y-88717381D02*
X95591428Y-88241190D01*
X95353333Y-88717381D02*
X95353333Y-87717381D01*
X95734286Y-87717381D01*
X95829524Y-87765000D01*
X95877143Y-87812619D01*
X95924762Y-87907857D01*
X95924762Y-88050714D01*
X95877143Y-88145952D01*
X95829524Y-88193571D01*
X95734286Y-88241190D01*
X95353333Y-88241190D01*
X96210476Y-87717381D02*
X96543809Y-88717381D01*
X96877143Y-87717381D01*
X97734286Y-88717381D02*
X97162857Y-88717381D01*
X97448571Y-88717381D02*
X97448571Y-87717381D01*
X97353333Y-87860238D01*
X97258095Y-87955476D01*
X97162857Y-88003095D01*
X103036667Y-80724286D02*
X103036667Y-80248095D01*
X103322381Y-80819524D02*
X102322381Y-80486191D01*
X103322381Y-80152857D01*
X102417619Y-79867143D02*
X102370000Y-79819524D01*
X102322381Y-79724286D01*
X102322381Y-79486190D01*
X102370000Y-79390952D01*
X102417619Y-79343333D01*
X102512857Y-79295714D01*
X102608095Y-79295714D01*
X102750952Y-79343333D01*
X103322381Y-79914762D01*
X103322381Y-79295714D01*
X85685334Y-64873143D02*
X85637715Y-64920762D01*
X85494858Y-64968381D01*
X85399620Y-64968381D01*
X85256762Y-64920762D01*
X85161524Y-64825524D01*
X85113905Y-64730286D01*
X85066286Y-64539810D01*
X85066286Y-64396952D01*
X85113905Y-64206476D01*
X85161524Y-64111238D01*
X85256762Y-64016000D01*
X85399620Y-63968381D01*
X85494858Y-63968381D01*
X85637715Y-64016000D01*
X85685334Y-64063619D01*
X86256762Y-64396952D02*
X86161524Y-64349333D01*
X86113905Y-64301714D01*
X86066286Y-64206476D01*
X86066286Y-64158857D01*
X86113905Y-64063619D01*
X86161524Y-64016000D01*
X86256762Y-63968381D01*
X86447239Y-63968381D01*
X86542477Y-64016000D01*
X86590096Y-64063619D01*
X86637715Y-64158857D01*
X86637715Y-64206476D01*
X86590096Y-64301714D01*
X86542477Y-64349333D01*
X86447239Y-64396952D01*
X86256762Y-64396952D01*
X86161524Y-64444571D01*
X86113905Y-64492190D01*
X86066286Y-64587429D01*
X86066286Y-64777905D01*
X86113905Y-64873143D01*
X86161524Y-64920762D01*
X86256762Y-64968381D01*
X86447239Y-64968381D01*
X86542477Y-64920762D01*
X86590096Y-64873143D01*
X86637715Y-64777905D01*
X86637715Y-64587429D01*
X86590096Y-64492190D01*
X86542477Y-64444571D01*
X86447239Y-64396952D01*
X85685334Y-94337143D02*
X85637715Y-94384762D01*
X85494858Y-94432381D01*
X85399620Y-94432381D01*
X85256762Y-94384762D01*
X85161524Y-94289524D01*
X85113905Y-94194286D01*
X85066286Y-94003810D01*
X85066286Y-93860952D01*
X85113905Y-93670476D01*
X85161524Y-93575238D01*
X85256762Y-93480000D01*
X85399620Y-93432381D01*
X85494858Y-93432381D01*
X85637715Y-93480000D01*
X85685334Y-93527619D01*
X86161524Y-94432381D02*
X86352000Y-94432381D01*
X86447239Y-94384762D01*
X86494858Y-94337143D01*
X86590096Y-94194286D01*
X86637715Y-94003810D01*
X86637715Y-93622857D01*
X86590096Y-93527619D01*
X86542477Y-93480000D01*
X86447239Y-93432381D01*
X86256762Y-93432381D01*
X86161524Y-93480000D01*
X86113905Y-93527619D01*
X86066286Y-93622857D01*
X86066286Y-93860952D01*
X86113905Y-93956190D01*
X86161524Y-94003810D01*
X86256762Y-94051429D01*
X86447239Y-94051429D01*
X86542477Y-94003810D01*
X86590096Y-93956190D01*
X86637715Y-93860952D01*
X101957143Y-71762857D02*
X102004762Y-71810476D01*
X102052381Y-71953333D01*
X102052381Y-72048571D01*
X102004762Y-72191429D01*
X101909524Y-72286667D01*
X101814286Y-72334286D01*
X101623810Y-72381905D01*
X101480952Y-72381905D01*
X101290476Y-72334286D01*
X101195238Y-72286667D01*
X101100000Y-72191429D01*
X101052381Y-72048571D01*
X101052381Y-71953333D01*
X101100000Y-71810476D01*
X101147619Y-71762857D01*
X102052381Y-70810476D02*
X102052381Y-71381905D01*
X102052381Y-71096191D02*
X101052381Y-71096191D01*
X101195238Y-71191429D01*
X101290476Y-71286667D01*
X101338095Y-71381905D01*
X101147619Y-70429524D02*
X101100000Y-70381905D01*
X101052381Y-70286667D01*
X101052381Y-70048571D01*
X101100000Y-69953333D01*
X101147619Y-69905714D01*
X101242857Y-69858095D01*
X101338095Y-69858095D01*
X101480952Y-69905714D01*
X102052381Y-70477143D01*
X102052381Y-69858095D01*
X105862381Y-71286666D02*
X105386190Y-71620000D01*
X105862381Y-71858095D02*
X104862381Y-71858095D01*
X104862381Y-71477142D01*
X104910000Y-71381904D01*
X104957619Y-71334285D01*
X105052857Y-71286666D01*
X105195714Y-71286666D01*
X105290952Y-71334285D01*
X105338571Y-71381904D01*
X105386190Y-71477142D01*
X105386190Y-71858095D01*
X104862381Y-70381904D02*
X104862381Y-70858095D01*
X105338571Y-70905714D01*
X105290952Y-70858095D01*
X105243333Y-70762857D01*
X105243333Y-70524761D01*
X105290952Y-70429523D01*
X105338571Y-70381904D01*
X105433810Y-70334285D01*
X105671905Y-70334285D01*
X105767143Y-70381904D01*
X105814762Y-70429523D01*
X105862381Y-70524761D01*
X105862381Y-70762857D01*
X105814762Y-70858095D01*
X105767143Y-70905714D01*
X109672381Y-71286666D02*
X109196190Y-71620000D01*
X109672381Y-71858095D02*
X108672381Y-71858095D01*
X108672381Y-71477142D01*
X108720000Y-71381904D01*
X108767619Y-71334285D01*
X108862857Y-71286666D01*
X109005714Y-71286666D01*
X109100952Y-71334285D01*
X109148571Y-71381904D01*
X109196190Y-71477142D01*
X109196190Y-71858095D01*
X108672381Y-70429523D02*
X108672381Y-70620000D01*
X108720000Y-70715238D01*
X108767619Y-70762857D01*
X108910476Y-70858095D01*
X109100952Y-70905714D01*
X109481905Y-70905714D01*
X109577143Y-70858095D01*
X109624762Y-70810476D01*
X109672381Y-70715238D01*
X109672381Y-70524761D01*
X109624762Y-70429523D01*
X109577143Y-70381904D01*
X109481905Y-70334285D01*
X109243810Y-70334285D01*
X109148571Y-70381904D01*
X109100952Y-70429523D01*
X109053333Y-70524761D01*
X109053333Y-70715238D01*
X109100952Y-70810476D01*
X109148571Y-70858095D01*
X109243810Y-70905714D01*
X109640762Y-88844381D02*
X109307428Y-88368190D01*
X109069333Y-88844381D02*
X109069333Y-87844381D01*
X109450286Y-87844381D01*
X109545524Y-87892000D01*
X109593143Y-87939619D01*
X109640762Y-88034857D01*
X109640762Y-88177714D01*
X109593143Y-88272952D01*
X109545524Y-88320571D01*
X109450286Y-88368190D01*
X109069333Y-88368190D01*
X109926476Y-87844381D02*
X110259809Y-88844381D01*
X110593143Y-87844381D01*
X110878857Y-87939619D02*
X110926476Y-87892000D01*
X111021714Y-87844381D01*
X111259810Y-87844381D01*
X111355048Y-87892000D01*
X111402667Y-87939619D01*
X111450286Y-88034857D01*
X111450286Y-88130095D01*
X111402667Y-88272952D01*
X110831238Y-88844381D01*
X111450286Y-88844381D01*
X81367381Y-73786905D02*
X82176905Y-73786905D01*
X82272143Y-73739286D01*
X82319762Y-73691667D01*
X82367381Y-73596429D01*
X82367381Y-73405952D01*
X82319762Y-73310714D01*
X82272143Y-73263095D01*
X82176905Y-73215476D01*
X81367381Y-73215476D01*
X81462619Y-72786905D02*
X81415000Y-72739286D01*
X81367381Y-72644048D01*
X81367381Y-72405952D01*
X81415000Y-72310714D01*
X81462619Y-72263095D01*
X81557857Y-72215476D01*
X81653095Y-72215476D01*
X81795952Y-72263095D01*
X82367381Y-72834524D01*
X82367381Y-72215476D01*
X81367381Y-85851905D02*
X82176905Y-85851905D01*
X82272143Y-85804286D01*
X82319762Y-85756667D01*
X82367381Y-85661429D01*
X82367381Y-85470952D01*
X82319762Y-85375714D01*
X82272143Y-85328095D01*
X82176905Y-85280476D01*
X81367381Y-85280476D01*
X81367381Y-84899524D02*
X81367381Y-84280476D01*
X81748333Y-84613810D01*
X81748333Y-84470952D01*
X81795952Y-84375714D01*
X81843571Y-84328095D01*
X81938810Y-84280476D01*
X82176905Y-84280476D01*
X82272143Y-84328095D01*
X82319762Y-84375714D01*
X82367381Y-84470952D01*
X82367381Y-84756667D01*
X82319762Y-84851905D01*
X82272143Y-84899524D01*
X78573334Y-69572143D02*
X78525715Y-69619762D01*
X78382858Y-69667381D01*
X78287620Y-69667381D01*
X78144762Y-69619762D01*
X78049524Y-69524524D01*
X78001905Y-69429286D01*
X77954286Y-69238810D01*
X77954286Y-69095952D01*
X78001905Y-68905476D01*
X78049524Y-68810238D01*
X78144762Y-68715000D01*
X78287620Y-68667381D01*
X78382858Y-68667381D01*
X78525715Y-68715000D01*
X78573334Y-68762619D01*
X79430477Y-68667381D02*
X79240000Y-68667381D01*
X79144762Y-68715000D01*
X79097143Y-68762619D01*
X79001905Y-68905476D01*
X78954286Y-69095952D01*
X78954286Y-69476905D01*
X79001905Y-69572143D01*
X79049524Y-69619762D01*
X79144762Y-69667381D01*
X79335239Y-69667381D01*
X79430477Y-69619762D01*
X79478096Y-69572143D01*
X79525715Y-69476905D01*
X79525715Y-69238810D01*
X79478096Y-69143571D01*
X79430477Y-69095952D01*
X79335239Y-69048333D01*
X79144762Y-69048333D01*
X79049524Y-69095952D01*
X79001905Y-69143571D01*
X78954286Y-69238810D01*
X78065334Y-88749143D02*
X78017715Y-88796762D01*
X77874858Y-88844381D01*
X77779620Y-88844381D01*
X77636762Y-88796762D01*
X77541524Y-88701524D01*
X77493905Y-88606286D01*
X77446286Y-88415810D01*
X77446286Y-88272952D01*
X77493905Y-88082476D01*
X77541524Y-87987238D01*
X77636762Y-87892000D01*
X77779620Y-87844381D01*
X77874858Y-87844381D01*
X78017715Y-87892000D01*
X78065334Y-87939619D01*
X78398667Y-87844381D02*
X79065334Y-87844381D01*
X78636762Y-88844381D01*
X85209143Y-60809143D02*
X85161524Y-60856762D01*
X85018667Y-60904381D01*
X84923429Y-60904381D01*
X84780571Y-60856762D01*
X84685333Y-60761524D01*
X84637714Y-60666286D01*
X84590095Y-60475810D01*
X84590095Y-60332952D01*
X84637714Y-60142476D01*
X84685333Y-60047238D01*
X84780571Y-59952000D01*
X84923429Y-59904381D01*
X85018667Y-59904381D01*
X85161524Y-59952000D01*
X85209143Y-59999619D01*
X86161524Y-60904381D02*
X85590095Y-60904381D01*
X85875809Y-60904381D02*
X85875809Y-59904381D01*
X85780571Y-60047238D01*
X85685333Y-60142476D01*
X85590095Y-60190095D01*
X87066286Y-59904381D02*
X86590095Y-59904381D01*
X86542476Y-60380571D01*
X86590095Y-60332952D01*
X86685333Y-60285333D01*
X86923429Y-60285333D01*
X87018667Y-60332952D01*
X87066286Y-60380571D01*
X87113905Y-60475810D01*
X87113905Y-60713905D01*
X87066286Y-60809143D01*
X87018667Y-60856762D01*
X86923429Y-60904381D01*
X86685333Y-60904381D01*
X86590095Y-60856762D01*
X86542476Y-60809143D01*
X85209143Y-97893143D02*
X85161524Y-97940762D01*
X85018667Y-97988381D01*
X84923429Y-97988381D01*
X84780571Y-97940762D01*
X84685333Y-97845524D01*
X84637714Y-97750286D01*
X84590095Y-97559810D01*
X84590095Y-97416952D01*
X84637714Y-97226476D01*
X84685333Y-97131238D01*
X84780571Y-97036000D01*
X84923429Y-96988381D01*
X85018667Y-96988381D01*
X85161524Y-97036000D01*
X85209143Y-97083619D01*
X86161524Y-97988381D02*
X85590095Y-97988381D01*
X85875809Y-97988381D02*
X85875809Y-96988381D01*
X85780571Y-97131238D01*
X85685333Y-97226476D01*
X85590095Y-97274095D01*
X87018667Y-96988381D02*
X86828190Y-96988381D01*
X86732952Y-97036000D01*
X86685333Y-97083619D01*
X86590095Y-97226476D01*
X86542476Y-97416952D01*
X86542476Y-97797905D01*
X86590095Y-97893143D01*
X86637714Y-97940762D01*
X86732952Y-97988381D01*
X86923429Y-97988381D01*
X87018667Y-97940762D01*
X87066286Y-97893143D01*
X87113905Y-97797905D01*
X87113905Y-97559810D01*
X87066286Y-97464571D01*
X87018667Y-97416952D01*
X86923429Y-97369333D01*
X86732952Y-97369333D01*
X86637714Y-97416952D01*
X86590095Y-97464571D01*
X86542476Y-97559810D01*
X80589381Y-80367095D02*
X79589381Y-80367095D01*
X79589381Y-80129000D01*
X79637000Y-79986142D01*
X79732238Y-79890904D01*
X79827476Y-79843285D01*
X80017952Y-79795666D01*
X80160810Y-79795666D01*
X80351286Y-79843285D01*
X80446524Y-79890904D01*
X80541762Y-79986142D01*
X80589381Y-80129000D01*
X80589381Y-80367095D01*
X79589381Y-78890904D02*
X79589381Y-79367095D01*
X80065571Y-79414714D01*
X80017952Y-79367095D01*
X79970333Y-79271857D01*
X79970333Y-79033761D01*
X80017952Y-78938523D01*
X80065571Y-78890904D01*
X80160810Y-78843285D01*
X80398905Y-78843285D01*
X80494143Y-78890904D01*
X80541762Y-78938523D01*
X80589381Y-79033761D01*
X80589381Y-79271857D01*
X80541762Y-79367095D01*
X80494143Y-79414714D01*
X73874381Y-79501905D02*
X73874381Y-78930476D01*
X74874381Y-79216191D02*
X73874381Y-79216191D01*
X74874381Y-78073333D02*
X74874381Y-78644762D01*
X74874381Y-78359048D02*
X73874381Y-78359048D01*
X74017238Y-78454286D01*
X74112476Y-78549524D01*
X74160095Y-78644762D01*
X70802477Y-86574381D02*
X70612000Y-86574381D01*
X70516762Y-86622000D01*
X70469143Y-86669619D01*
X70373905Y-86812476D01*
X70326286Y-87002952D01*
X70326286Y-87383905D01*
X70373905Y-87479143D01*
X70421524Y-87526762D01*
X70516762Y-87574381D01*
X70707239Y-87574381D01*
X70802477Y-87526762D01*
X70850096Y-87479143D01*
X70897715Y-87383905D01*
X70897715Y-87145810D01*
X70850096Y-87050571D01*
X70802477Y-87002952D01*
X70707239Y-86955333D01*
X70516762Y-86955333D01*
X70421524Y-87002952D01*
X70373905Y-87050571D01*
X70326286Y-87145810D01*
X70850096Y-80224381D02*
X70373905Y-80224381D01*
X70326286Y-80700571D01*
X70373905Y-80652952D01*
X70469143Y-80605333D01*
X70707239Y-80605333D01*
X70802477Y-80652952D01*
X70850096Y-80700571D01*
X70897715Y-80795810D01*
X70897715Y-81033905D01*
X70850096Y-81129143D01*
X70802477Y-81176762D01*
X70707239Y-81224381D01*
X70469143Y-81224381D01*
X70373905Y-81176762D01*
X70326286Y-81129143D01*
X70532667Y-64730381D02*
X71151715Y-64730381D01*
X70818381Y-65111333D01*
X70961239Y-65111333D01*
X71056477Y-65158952D01*
X71104096Y-65206571D01*
X71151715Y-65301810D01*
X71151715Y-65539905D01*
X71104096Y-65635143D01*
X71056477Y-65682762D01*
X70961239Y-65730381D01*
X70675524Y-65730381D01*
X70580286Y-65682762D01*
X70532667Y-65635143D01*
X70802477Y-71667714D02*
X70802477Y-72334381D01*
X70564381Y-71286762D02*
X70326286Y-72001048D01*
X70945334Y-72001048D01*
M02*
